M48
;Layer_Color=9474304
;FILE_FORMAT=4:4
METRIC,LZ
;TYPE=PLATED
T1F00S00C0.1000
T2F00S00C0.1500
T3F00S00C0.5500
T5F00S00C0.9000
T7F00S00C2.2000
;TYPE=NON_PLATED
T8F00S00C1.0000
%
T01
X006635Y0009625
Y0010025
T02
X008715Y0008
X00876Y00076
X00886
X00882Y00105
X008666Y00111
Y0012
X008646Y00124
X008686
X008726
X00918Y00117
X009216Y0012
X009256Y00117
X00924Y00131
Y00135
X00928
Y00131
X00932
Y00135
X0100425Y0006075
X0100825
X0101225
X0101625
X0102025
X0102425
X0102825
X0103225
X0103625
X0103625Y0005675
X0103225
X0102825
X0102425
X0102025
X0101625
X0101225
X0100825
X0100425
X01066Y00063
Y00067
Y00071
Y00075
X01096Y00088
X01093Y00091
X0109Y00094
X01087Y00097
X01085Y00035
X01088Y00032
X01082Y00038
X01079Y00041
X01109Y00026
X01112Y00023
X01115Y0002
X01118Y00017
X01135Y00015
X0115
X01173Y00013
X01177Y00013
X01181
X01181Y00007
X01177
X01173
X01188
Y00013
X01189Y00026
X01193
X01185
X01181
X01198Y00033
X01202
X01206
X0121
X0121125Y000605
X0121525
X012185Y000635
X0122175Y000605
X0122575
X01229Y000635
X0123Y00053
X01236Y000715
X01241Y00075
X012465Y000715
X0125375Y0007165
X012565Y000775
X0125375Y0008335
X012465Y000835
X012395
X01229Y000915
X0122575Y000945
X0122175
X012185Y000915
X01208
X011975
X01187
X011765
X011695
X0115525Y0009085
Y0007165
X011625Y000715
X011695
X011756Y00075
X011796
X011836
X01187Y000635
X011975
X0120075Y000605
X0120475
X01208Y000635
X011765
X01251Y00095
X01256Y0009875
X008476Y00105
X008386Y00108
X008536Y00117
X0082575Y0012475
X0081755Y0012475
X008006Y00123
X007676Y0012
X00764Y00112
X007586Y00117
X007516Y00114
X007286Y00117
X007256Y00114
X00725Y0012
X0072
X007246Y0010775
X007286Y00105
Y00101
X007286Y000955
Y000915
X007286Y00086
Y00082
X007286Y000765
Y000725
X007286Y00067
Y00063
X007286Y00057501
Y000535
X007286Y00048
Y00044001
X007286Y00038501
Y00034501
X007286Y00029
Y00025
Y0002
Y00016
X007246Y0001325
Y0002275
Y0003175
X007246Y00041251
X007246Y0005075
X007246Y00060251
X007246Y0006975
X007246Y0007925
X007246Y0008875
X007246Y0009825
X00686Y0009675
X00678976Y000968
X00678976Y0009275
X0067475
X0067475Y000968
X0067Y0009675
X00675Y0010275
X00679Y0008675
X00675Y0008275
X00671
X00671Y0008675
X00686Y0008875
X0069Y0010875
X00699Y00132
Y00136
X00703
X007072Y00149
X007116
X00716
X00748Y00148
X00752
X00771Y001446
X007676Y00141
X00778Y00142
X007646Y00132
X00767501Y00167501
Y00172501
X0078225Y00074
X0078625
X0079025
X0079425
X0079825
X0080225
X0080625
X0081025
X0081425
X0081825
X0082225
X0082625
X0083025
X00855Y00069
X00863Y00044
X00838Y00018
X00834
X00824
X0082
X00841Y00014
X00792Y00017
X00654Y00035
X00651Y00038
X00648Y00041
X00645Y00044
X00627Y00035
X00624Y00038
X00621Y00041
X0063Y00032
X00606Y00029
X00603Y00032
X006Y00035
X00597Y00038
X00573Y00035
X00576Y00032
X00579Y00029
X00582Y00026
X00558Y00023
X00555Y00026
X00552Y00029
X00549Y00032
X00546Y0008
X00542
X00538
X00596Y0008
Y00084
Y00076
Y00072
X00603Y00072
Y00068
Y00064
Y0006
Y00083
Y00087
Y00091
Y00095
X00596Y00094
Y00098
Y00102
Y00106
X00603Y00105
Y00109
Y00113
Y00117
X0059Y00144
Y00148
X00586
Y00144
X00582
Y00148
X006Y00162
X005964Y001774
X00654Y00174
X00657Y00177
X0066Y0018
X00663Y00183
X0066Y00187
X006496Y00146
Y00142
Y00138
Y00134
X006405Y001415
X00625Y00135
X006606Y00116
X006646
X006782Y001334
X005146Y00132
X005106
X005066
X004906Y0013225
X004866
X004826
X004726Y0008
X004676
X004676Y0002
X004726
X004626Y0002
X004576Y0002
X004526
X004526Y0008
X004576
X004626
X00417Y0008
X00413
X00409
X0037025Y0007475
X0036625
X0036225
X0035825
X0035425
X0035025
X0034625
X0034225
X00305Y00079
X00301
X00297
X00299Y00043
X00295
X00303
X003405Y0000925
X003445
X003485
X0035475Y0002025
X0035825Y0002375
X00362Y0002725
X003725Y0002725
X00379Y000265
X003825Y00023
X00395Y00005
X00399
X00403
X00346Y0012
X003326Y0012
X003276
X003226
X002136Y001225
X0020235Y0012675
X0019585Y00123
X00197Y0013365
X00193
X00189
X00185
X00192Y00096
X00196
X002
X00204
X00208
X00212
X00216
X0022
X00224
X00224Y00092
X0022
X00216
X00212
X00208
X00204
X002
X00196
X00192
X00165Y00095
X00162Y00098
X00159Y00101
X00156Y00104
X00136Y00118
X00133Y00121
X0013Y00124
X00127Y00127
X0012175Y0008835
X00114501Y000885
X001075
X00104001Y000765
X00114501
X0012175Y0007665
X00124501Y000825
X00097001Y000965
X00093751Y000995
X00089751
X00086501Y000965
X00083251Y000995
X00079251
X00076Y000965
X00072751Y000995
X0007275Y000655
X00076Y000685
X00086501
X00097001
X001Y0006
X00103Y00057
X00106Y00054
X00109Y00051
X00089501Y00049
Y00045
Y00041
Y00037
X00062Y00024
X00058Y00015
X00061Y00012
X00053Y00011
X0005Y00014
X00045Y0001
X00049Y00006
X00056Y00008
X00055Y00018
X00055001Y000685
X0005825Y000655
X0006225
X000655Y000685
X0006875Y000655
X0005175
X0004775
X000445Y000685
X00037501
Y000775
Y000885
X00043Y00086
X000445Y000965
X00037501
X00055001
X000655
X00068751Y000995
X00043Y00119
X0004Y00133
X00051Y00128
X00031Y00124
Y00111
Y00085
X00027Y00081
X000205Y000825
X00023251Y0008835
Y0007665
X004786Y00265
X004886
X0061125Y0022325
X006Y001984
X00663Y0019
X00666Y00193
X00669Y00196
X00673Y00193
X00676Y00196
X00679Y00199
X00682Y00202
Y00209
X00685Y00212
X00688Y00215
X00679Y00206
X00716Y00233
Y00237
X0072
X00724
X00728
Y00233
X00724
X0072
X00738
X00742
X00746
X0075
Y00237
X00746
X00742
X00738
X00767501Y00212501
Y00202501
T03
X00548651Y001789
X00556651Y001834
X0058215Y001789
X0059015Y001834
Y001924
Y002014
Y002104
Y002194
Y002284
X0058215Y002329
Y002149
Y001969
X00556651Y001924
Y002014
Y002104
Y002194
Y002284
X00548651Y002329
Y002149
Y001969
T05
X007699Y00256
X007953
T07
X01254Y00023
X00022Y00022
X00687Y00249
T08
X0059015Y001585
Y002534
M30
