%FSLAX44Y44*%
%MOMM*%
G71*
G01*
G75*
G04 Layer_Color=65535*
%ADD10R,1.8000X1.1500*%
%ADD11R,3.6000X1.2000*%
%ADD12R,0.9000X0.8000*%
G04:AMPARAMS|DCode=13|XSize=0.9mm|YSize=0.8mm|CornerRadius=0mm|HoleSize=0mm|Usage=FLASHONLY|Rotation=225.000|XOffset=0mm|YOffset=0mm|HoleType=Round|Shape=Rectangle|*
%AMROTATEDRECTD13*
4,1,4,0.0354,0.6010,0.6010,0.0354,-0.0354,-0.6010,-0.6010,-0.0354,0.0354,0.6010,0.0*
%
%ADD13ROTATEDRECTD13*%

%ADD14O,0.8500X0.2500*%
%ADD15O,0.2500X0.8500*%
%ADD16R,5.1500X5.1500*%
%ADD17R,0.6200X0.6200*%
%ADD18R,0.6200X0.6200*%
%ADD19C,0.1714*%
G04:AMPARAMS|DCode=20|XSize=0.65mm|YSize=0.55mm|CornerRadius=0mm|HoleSize=0mm|Usage=FLASHONLY|Rotation=45.000|XOffset=0mm|YOffset=0mm|HoleType=Round|Shape=Rectangle|*
%AMROTATEDRECTD20*
4,1,4,-0.0354,-0.4243,-0.4243,-0.0354,0.0354,0.4243,0.4243,0.0354,-0.0354,-0.4243,0.0*
%
%ADD20ROTATEDRECTD20*%

G04:AMPARAMS|DCode=21|XSize=0.65mm|YSize=0.55mm|CornerRadius=0mm|HoleSize=0mm|Usage=FLASHONLY|Rotation=315.000|XOffset=0mm|YOffset=0mm|HoleType=Round|Shape=Rectangle|*
%AMROTATEDRECTD21*
4,1,4,-0.4243,0.0354,-0.0354,0.4243,0.4243,-0.0354,0.0354,-0.4243,-0.4243,0.0354,0.0*
%
%ADD21ROTATEDRECTD21*%

%ADD22C,1.5000*%
%ADD23R,0.6500X0.5500*%
%ADD24R,0.4600X0.4200*%
%ADD25R,0.4500X0.6500*%
%ADD26R,0.4500X0.7000*%
%ADD27R,0.6500X0.4500*%
%ADD28R,0.7000X0.4500*%
%ADD29R,0.4500X0.4500*%
%ADD30R,0.5500X0.6500*%
%ADD31R,0.3300X0.5500*%
%ADD32R,0.5500X0.3300*%
%ADD33R,0.1800X0.4700*%
%ADD34R,0.8000X0.3500*%
%ADD35R,0.3000X1.0000*%
%ADD36R,0.6000X1.0000*%
%ADD37R,0.6500X0.7500*%
G04:AMPARAMS|DCode=38|XSize=0.42mm|YSize=0.46mm|CornerRadius=0mm|HoleSize=0mm|Usage=FLASHONLY|Rotation=135.000|XOffset=0mm|YOffset=0mm|HoleType=Round|Shape=Rectangle|*
%AMROTATEDRECTD38*
4,1,4,0.3111,0.0141,-0.0141,-0.3111,-0.3111,-0.0141,0.0141,0.3111,0.3111,0.0141,0.0*
%
%ADD38ROTATEDRECTD38*%

%ADD39R,0.4200X0.4600*%
%ADD40P,0.6364X4X270.0*%
%ADD41R,0.4500X0.4500*%
%ADD42P,0.8768X4X270.0*%
%ADD43P,0.8768X4X360.0*%
%ADD44P,0.6364X4X180.0*%
%ADD45R,1.2700X2.2000*%
%ADD46R,1.0000X0.9500*%
%ADD47R,0.8000X0.3000*%
%ADD48R,1.9000X1.1000*%
%ADD49R,0.3000X1.6000*%
%ADD50R,3.7000X2.4000*%
%ADD51R,1.1500X1.4500*%
%ADD52R,0.9000X1.0000*%
G04:AMPARAMS|DCode=53|XSize=1mm|YSize=0.9mm|CornerRadius=0mm|HoleSize=0mm|Usage=FLASHONLY|Rotation=45.000|XOffset=0mm|YOffset=0mm|HoleType=Round|Shape=Rectangle|*
%AMROTATEDRECTD53*
4,1,4,-0.0354,-0.6717,-0.6717,-0.0354,0.0354,0.6717,0.6717,0.0354,-0.0354,-0.6717,0.0*
%
%ADD53ROTATEDRECTD53*%

G04:AMPARAMS|DCode=54|XSize=2.2mm|YSize=1.27mm|CornerRadius=0mm|HoleSize=0mm|Usage=FLASHONLY|Rotation=135.000|XOffset=0mm|YOffset=0mm|HoleType=Round|Shape=Rectangle|*
%AMROTATEDRECTD54*
4,1,4,1.2268,-0.3288,0.3288,-1.2268,-1.2268,0.3288,-0.3288,1.2268,1.2268,-0.3288,0.0*
%
%ADD54ROTATEDRECTD54*%

G04:AMPARAMS|DCode=55|XSize=1mm|YSize=0.9mm|CornerRadius=0mm|HoleSize=0mm|Usage=FLASHONLY|Rotation=135.000|XOffset=0mm|YOffset=0mm|HoleType=Round|Shape=Rectangle|*
%AMROTATEDRECTD55*
4,1,4,0.6717,-0.0354,0.0354,-0.6717,-0.6717,0.0354,-0.0354,0.6717,0.6717,-0.0354,0.0*
%
%ADD55ROTATEDRECTD55*%

G04:AMPARAMS|DCode=56|XSize=0.25mm|YSize=0.8mm|CornerRadius=0mm|HoleSize=0mm|Usage=FLASHONLY|Rotation=315.000|XOffset=0mm|YOffset=0mm|HoleType=Round|Shape=Round|*
%AMOVALD56*
21,1,0.5500,0.2500,0.0000,0.0000,45.0*
1,1,0.2500,-0.1945,-0.1945*
1,1,0.2500,0.1945,0.1945*
%
%ADD56OVALD56*%

G04:AMPARAMS|DCode=57|XSize=0.25mm|YSize=0.8mm|CornerRadius=0mm|HoleSize=0mm|Usage=FLASHONLY|Rotation=225.000|XOffset=0mm|YOffset=0mm|HoleType=Round|Shape=Round|*
%AMOVALD57*
21,1,0.5500,0.2500,0.0000,0.0000,315.0*
1,1,0.2500,-0.1945,0.1945*
1,1,0.2500,0.1945,-0.1945*
%
%ADD57OVALD57*%

%ADD58P,3.4648X4X270.0*%
%ADD59R,1.0000X0.9000*%
%ADD60R,0.2500X0.7000*%
%ADD61R,1.5500X0.8500*%
%ADD62R,0.2000X0.7500*%
%ADD63R,0.9600X0.8900*%
%ADD64R,1.0500X0.6500*%
%ADD65R,1.4500X1.1500*%
%ADD66R,0.7500X0.6500*%
%ADD67C,0.5000*%
%ADD68C,0.2000*%
%ADD69C,0.1270*%
%ADD70C,0.1000*%
%ADD71C,0.3000*%
%ADD72C,0.4000*%
%ADD73C,0.0762*%
%ADD74C,1.2000*%
%ADD75C,1.0000*%
%ADD76C,0.7500*%
%ADD77C,0.2500*%
%ADD78C,0.1250*%
%ADD79C,0.1524*%
%ADD80C,0.1800*%
%ADD81C,0.1500*%
%ADD82C,0.1520*%
%ADD83C,0.1750*%
%ADD84R,1.6000X0.8000*%
%ADD85R,1.3250X1.0500*%
%ADD86R,0.7976X0.7976*%
%ADD87R,0.8000X0.3000*%
%ADD88C,3.8000*%
%ADD89O,2.2500X1.2000*%
%ADD90O,2.8500X1.4500*%
%ADD91C,0.7500*%
%ADD92C,1.0000*%
%ADD93R,1.5000X1.5000*%
%ADD94C,0.3000*%
%ADD95C,0.2500*%
%ADD96C,0.6000*%
%ADD97O,2.0400X1.0000*%
%ADD98O,2.6500X1.2000*%
%ADD99C,0.8500*%
%ADD100C,1.3000*%
%ADD101C,1.2000*%
%ADD102C,0.4500*%
%ADD103C,0.4000*%
%ADD104R,0.8900X0.9600*%
%ADD105R,0.3600X0.3200*%
%ADD106R,0.3200X0.3600*%
%ADD107R,0.5200X0.5200*%
%ADD108R,0.5200X0.5200*%
%ADD109R,0.6250X0.6000*%
G36*
X650000Y110821D02*
Y117750D01*
X656929D01*
X650000Y110821D01*
D02*
G37*
D68*
X905000Y118000D02*
G03*
X905000Y118000I-1000J0D01*
G01*
X240930Y97860D02*
G03*
X240930Y87460I0J-5200D01*
G01*
X450000Y68000D02*
G03*
X450000Y68000I-1000J0D01*
G01*
Y7000D02*
G03*
X450000Y7000I-1000J0D01*
G01*
X987540Y45950D02*
G03*
X987540Y56350I0J5200D01*
G01*
X752000Y235500D02*
Y246500D01*
X736000Y235500D02*
Y246500D01*
X730000Y235500D02*
Y246500D01*
X714000Y235500D02*
Y246500D01*
X250680Y53190D02*
Y60810D01*
X291320Y53190D02*
Y60810D01*
X982320Y105190D02*
Y112810D01*
X941680Y105190D02*
Y112810D01*
X843250Y38500D02*
Y42750D01*
X839000Y38500D02*
X843250D01*
X769250D02*
X773500D01*
X769250D02*
Y42750D01*
Y108250D02*
Y112500D01*
X773500D01*
X843250Y108250D02*
Y112500D01*
X839000D02*
X843250D01*
X884600Y108500D02*
X900600D01*
X884600Y111500D02*
X900600D01*
X884600Y108500D02*
Y111500D01*
X900600Y108500D02*
Y111500D01*
X623100Y236000D02*
Y252000D01*
X620100Y236000D02*
Y252000D01*
Y236000D02*
X623100D01*
X620100Y252000D02*
X623100D01*
X598150Y148900D02*
Y262900D01*
X577600Y148900D02*
X598150D01*
X577600Y262900D02*
X598150D01*
X526500Y89750D02*
X557500D01*
X526500Y79750D02*
X557500D01*
Y89750D01*
X526500Y79750D02*
Y89750D01*
X455100Y42000D02*
X458100D01*
X455100Y62000D02*
X458100D01*
X1050600Y105500D02*
X1050600Y116500D01*
X1034600Y105500D02*
Y116500D01*
X1073600Y105500D02*
Y116500D01*
X1057600Y105500D02*
Y116500D01*
X650000Y67750D02*
X700000D01*
Y117750D01*
X650000Y67750D02*
Y117750D01*
X700000D01*
X650000Y110821D02*
X656929Y117750D01*
X153600Y27500D02*
Y38500D01*
X169600Y27500D02*
Y38500D01*
X757200Y243300D02*
X808000D01*
X757200D02*
Y268700D01*
X808000Y243300D02*
Y268700D01*
X757200D02*
X808000D01*
X778099Y237501D02*
X795099D01*
X778099Y227501D02*
Y237501D01*
Y152501D02*
Y162501D01*
Y152501D02*
X795099D01*
X807599Y165001D02*
Y225001D01*
X176600Y27500D02*
Y38500D01*
X192600Y27500D02*
Y38500D01*
X240930Y97860D02*
Y108160D01*
X174930Y108160D02*
X240930D01*
X240930Y77160D02*
Y87460D01*
X174930Y77160D02*
X240930D01*
X174930D02*
Y108160D01*
X275100Y100250D02*
X276100D01*
X275100Y87750D02*
X276100D01*
X275100Y118250D02*
X276100D01*
X275100Y105750D02*
X276100D01*
X310500Y28000D02*
X311500D01*
X310500Y20000D02*
X311500Y20000D01*
X306260Y45190D02*
X306967Y44483D01*
X311917Y50847D02*
X312624Y50140D01*
X314310Y104676D02*
X316431Y106797D01*
X328452Y90533D02*
X330574Y92655D01*
X378260Y111190D02*
X378967Y110483D01*
X383917Y116847D02*
X384624Y116140D01*
X393917Y32483D02*
X394624Y33190D01*
X388260Y38140D02*
X388967Y38847D01*
X356442Y44260D02*
X359093Y46911D01*
X353790Y46911D02*
X356442Y44260D01*
X326036Y74665D02*
X328688Y72014D01*
X326036Y74665D02*
X328688Y77317D01*
X356442Y105071D02*
X359093Y102419D01*
X353790Y102419D02*
X356442Y105071D01*
X392310Y100676D02*
X394431Y102797D01*
X406452Y86533D02*
X408573Y88655D01*
X408818Y64525D02*
X409525Y63818D01*
X414475Y70182D02*
X415182Y69475D01*
X447600Y84500D02*
Y85500D01*
X439600Y84500D02*
Y85500D01*
X499600Y94500D02*
Y95500D01*
X491600Y94500D02*
Y95500D01*
X486600Y94500D02*
Y95500D01*
X478600Y94500D02*
Y95500D01*
X455100Y102000D02*
X458100D01*
X455100Y122000D02*
X458100D01*
X447600Y24500D02*
Y25500D01*
X439600Y24500D02*
Y25500D01*
X499600Y34500D02*
Y35500D01*
X491600Y34500D02*
Y35500D01*
X486600Y34500D02*
Y35500D01*
X478600Y34500D02*
Y35500D01*
X693200Y126000D02*
X693200Y141000D01*
X663200Y126000D02*
X663200Y141000D01*
X897400Y75500D02*
Y76500D01*
X889800Y75500D02*
Y76500D01*
X959250Y63500D02*
Y64500D01*
X946750Y63500D02*
Y64500D01*
X979750Y63500D02*
Y64500D01*
X967250Y63500D02*
Y64500D01*
X1053540Y35650D02*
Y66650D01*
X987540D02*
X1053540D01*
X987540Y35650D02*
X1053540D01*
X987540Y56350D02*
Y66650D01*
Y35650D02*
Y45950D01*
X908850Y110000D02*
X913600D01*
X902850Y124000D02*
Y130000D01*
X1152750Y94250D02*
X1156749D01*
X1154749D01*
Y106246D01*
X1152750Y104247D01*
X25750Y99000D02*
X29749D01*
X27749D01*
Y110996D01*
X25750Y108997D01*
D70*
X663700Y122000D02*
G03*
X663700Y122000I-500J0D01*
G01*
X988650Y113810D02*
X1001350D01*
X228650Y29190D02*
X241350D01*
X313816Y58204D02*
X322796Y67184D01*
X397204Y51816D02*
X406184Y60796D01*
X885250Y24250D02*
Y56250D01*
X861250Y24250D02*
Y56250D01*
X612000Y25999D02*
Y20000D01*
X615428D01*
X616085Y22285D02*
X619513D01*
Y22857D01*
X619227Y23428D01*
X618941Y23714D01*
X618370Y23999D01*
X617513D01*
X616942Y23714D01*
X616371Y23142D01*
X616085Y22285D01*
Y21714D01*
X616371Y20857D01*
X616942Y20286D01*
X617513Y20000D01*
X618370D01*
X618941Y20286D01*
X619513Y20857D01*
X624226Y23999D02*
Y20000D01*
Y23142D02*
X623655Y23714D01*
X623083Y23999D01*
X622226D01*
X621655Y23714D01*
X621084Y23142D01*
X620798Y22285D01*
Y21714D01*
X621084Y20857D01*
X621655Y20286D01*
X622226Y20000D01*
X623083D01*
X623655Y20286D01*
X624226Y20857D01*
X625826Y23999D02*
Y18000D01*
Y23142D02*
X626397Y23714D01*
X626968Y23999D01*
X627825D01*
X628396Y23714D01*
X628968Y23142D01*
X629253Y22285D01*
Y21714D01*
X628968Y20857D01*
X628396Y20286D01*
X627825Y20000D01*
X626968D01*
X626397Y20286D01*
X625826Y20857D01*
X635252Y25999D02*
Y20000D01*
Y25999D02*
X637537Y20000D01*
X639823Y25999D02*
X637537Y20000D01*
X639823Y25999D02*
Y20000D01*
X642965Y23999D02*
X642393Y23714D01*
X641822Y23142D01*
X641536Y22285D01*
Y21714D01*
X641822Y20857D01*
X642393Y20286D01*
X642965Y20000D01*
X643822D01*
X644393Y20286D01*
X644964Y20857D01*
X645250Y21714D01*
Y22285D01*
X644964Y23142D01*
X644393Y23714D01*
X643822Y23999D01*
X642965D01*
X647421Y25999D02*
Y21143D01*
X647707Y20286D01*
X648278Y20000D01*
X648849D01*
X646564Y23999D02*
X648564D01*
X650277Y25999D02*
X650563Y25713D01*
X650849Y25999D01*
X650563Y26284D01*
X650277Y25999D01*
X650563Y23999D02*
Y20000D01*
X653334Y23999D02*
X652763Y23714D01*
X652191Y23142D01*
X651906Y22285D01*
Y21714D01*
X652191Y20857D01*
X652763Y20286D01*
X653334Y20000D01*
X654191D01*
X654762Y20286D01*
X655333Y20857D01*
X655619Y21714D01*
Y22285D01*
X655333Y23142D01*
X654762Y23714D01*
X654191Y23999D01*
X653334D01*
X656933D02*
Y20000D01*
Y22857D02*
X657790Y23714D01*
X658361Y23999D01*
X659218D01*
X659790Y23714D01*
X660075Y22857D01*
Y20000D01*
X612714Y13999D02*
X611857Y13713D01*
X611286Y12856D01*
X611000Y11428D01*
Y10571D01*
X611286Y9143D01*
X611857Y8286D01*
X612714Y8000D01*
X613285D01*
X614142Y8286D01*
X614714Y9143D01*
X614999Y10571D01*
Y11428D01*
X614714Y12856D01*
X614142Y13713D01*
X613285Y13999D01*
X612714D01*
X618056D02*
X617199Y13713D01*
X616627Y12856D01*
X616342Y11428D01*
Y10571D01*
X616627Y9143D01*
X617199Y8286D01*
X618056Y8000D01*
X618627D01*
X619484Y8286D01*
X620055Y9143D01*
X620341Y10571D01*
Y11428D01*
X620055Y12856D01*
X619484Y13713D01*
X618627Y13999D01*
X618056D01*
X623112D02*
X622255Y13713D01*
X621969Y13142D01*
Y12571D01*
X622255Y11999D01*
X622826Y11714D01*
X623969Y11428D01*
X624826Y11142D01*
X625397Y10571D01*
X625682Y10000D01*
Y9143D01*
X625397Y8571D01*
X625111Y8286D01*
X624254Y8000D01*
X623112D01*
X622255Y8286D01*
X621969Y8571D01*
X621683Y9143D01*
Y10000D01*
X621969Y10571D01*
X622540Y11142D01*
X623397Y11428D01*
X624540Y11714D01*
X625111Y11999D01*
X625397Y12571D01*
Y13142D01*
X625111Y13713D01*
X624254Y13999D01*
X623112D01*
X629882D02*
X627025Y10000D01*
X631310D01*
X629882Y13999D02*
Y8000D01*
X637080Y10571D02*
X642222D01*
X653277Y8000D02*
X650991Y13999D01*
X648706Y8000D01*
X649563Y10000D02*
X652420D01*
X654676Y13999D02*
Y8000D01*
Y13999D02*
X657247D01*
X658104Y13713D01*
X658390Y13427D01*
X658675Y12856D01*
Y12285D01*
X658390Y11714D01*
X658104Y11428D01*
X657247Y11142D01*
X654676D01*
X656676D02*
X658675Y8000D01*
X664731Y13999D02*
Y8000D01*
Y13999D02*
X666731D01*
X667588Y13713D01*
X668159Y13142D01*
X668445Y12571D01*
X668730Y11714D01*
Y10285D01*
X668445Y9428D01*
X668159Y8857D01*
X667588Y8286D01*
X666731Y8000D01*
X664731D01*
X670644Y13999D02*
X670930Y13713D01*
X671216Y13999D01*
X670930Y14284D01*
X670644Y13999D01*
X670930Y11999D02*
Y8000D01*
X675415Y11142D02*
X675129Y11714D01*
X674272Y11999D01*
X673415D01*
X672558Y11714D01*
X672272Y11142D01*
X672558Y10571D01*
X673129Y10285D01*
X674558Y10000D01*
X675129Y9714D01*
X675415Y9143D01*
Y8857D01*
X675129Y8286D01*
X674272Y8000D01*
X673415D01*
X672558Y8286D01*
X672272Y8857D01*
X676672Y11999D02*
Y6000D01*
Y11142D02*
X677243Y11714D01*
X677814Y11999D01*
X678671D01*
X679242Y11714D01*
X679814Y11142D01*
X680099Y10285D01*
Y9714D01*
X679814Y8857D01*
X679242Y8286D01*
X678671Y8000D01*
X677814D01*
X677243Y8286D01*
X676672Y8857D01*
X681385Y13999D02*
Y8000D01*
X686069Y11999D02*
Y8000D01*
Y11142D02*
X685498Y11714D01*
X684927Y11999D01*
X684070D01*
X683499Y11714D01*
X682927Y11142D01*
X682642Y10285D01*
Y9714D01*
X682927Y8857D01*
X683499Y8286D01*
X684070Y8000D01*
X684927D01*
X685498Y8286D01*
X686069Y8857D01*
X687955Y11999D02*
X689669Y8000D01*
X691383Y11999D02*
X689669Y8000D01*
X689097Y6857D01*
X688526Y6286D01*
X687955Y6000D01*
X687669D01*
X697381Y12571D02*
Y12856D01*
X697667Y13427D01*
X697953Y13713D01*
X698524Y13999D01*
X699667D01*
X700238Y13713D01*
X700524Y13427D01*
X700809Y12856D01*
Y12285D01*
X700524Y11714D01*
X699952Y10856D01*
X697096Y8000D01*
X701095D01*
X702723Y8571D02*
X702437Y8286D01*
X702723Y8000D01*
X703009Y8286D01*
X702723Y8571D01*
X704323Y12856D02*
X704894Y13142D01*
X705751Y13999D01*
Y8000D01*
D77*
X851000Y40000D02*
G03*
X851000Y40000I-1250J0D01*
G01*
X614850Y256250D02*
G03*
X614850Y256250I-1250J0D01*
G01*
X525250Y71000D02*
G03*
X525250Y71000I-1250J0D01*
G01*
X244250Y133000D02*
G03*
X244250Y133000I-1250J0D01*
G01*
X384915Y74665D02*
G03*
X384915Y74665I-1250J0D01*
G01*
X988250Y10000D02*
G03*
X988250Y10000I-1250J0D01*
G01*
D79*
X965750Y7750D02*
Y42750D01*
X910750Y7750D02*
Y42750D01*
M02*
