%FSLAX44Y44*%
%MOMM*%
G71*
G01*
G75*
G04 Layer_Physical_Order=1*
G04 Layer_Color=255*
%ADD10R,1.8000X1.1500*%
%ADD11R,3.6000X1.2000*%
%ADD12R,0.9000X0.8000*%
G04:AMPARAMS|DCode=13|XSize=0.9mm|YSize=0.8mm|CornerRadius=0mm|HoleSize=0mm|Usage=FLASHONLY|Rotation=225.000|XOffset=0mm|YOffset=0mm|HoleType=Round|Shape=Rectangle|*
%AMROTATEDRECTD13*
4,1,4,0.0354,0.6010,0.6010,0.0354,-0.0354,-0.6010,-0.6010,-0.0354,0.0354,0.6010,0.0*
%
%ADD13ROTATEDRECTD13*%

%ADD14O,0.8500X0.2500*%
%ADD15O,0.2500X0.8500*%
%ADD16R,5.1500X5.1500*%
%ADD17R,0.6200X0.6200*%
%ADD18R,0.6200X0.6200*%
%ADD19C,0.1714*%
G04:AMPARAMS|DCode=20|XSize=0.65mm|YSize=0.55mm|CornerRadius=0mm|HoleSize=0mm|Usage=FLASHONLY|Rotation=45.000|XOffset=0mm|YOffset=0mm|HoleType=Round|Shape=Rectangle|*
%AMROTATEDRECTD20*
4,1,4,-0.0354,-0.4243,-0.4243,-0.0354,0.0354,0.4243,0.4243,0.0354,-0.0354,-0.4243,0.0*
%
%ADD20ROTATEDRECTD20*%

G04:AMPARAMS|DCode=21|XSize=0.65mm|YSize=0.55mm|CornerRadius=0mm|HoleSize=0mm|Usage=FLASHONLY|Rotation=315.000|XOffset=0mm|YOffset=0mm|HoleType=Round|Shape=Rectangle|*
%AMROTATEDRECTD21*
4,1,4,-0.4243,0.0354,-0.0354,0.4243,0.4243,-0.0354,0.0354,-0.4243,-0.4243,0.0354,0.0*
%
%ADD21ROTATEDRECTD21*%

%ADD22C,1.5000*%
%ADD23R,0.6500X0.5500*%
%ADD24R,0.4600X0.4200*%
%ADD25R,0.4500X0.6500*%
%ADD26R,0.4500X0.7000*%
%ADD27R,0.6500X0.4500*%
%ADD28R,0.7000X0.4500*%
%ADD29R,0.4500X0.4500*%
%ADD30R,0.5500X0.6500*%
%ADD31R,0.3300X0.5500*%
%ADD32R,0.5500X0.3300*%
%ADD33R,0.1800X0.4700*%
%ADD34R,0.8000X0.3500*%
%ADD35R,0.3000X1.0000*%
%ADD36R,0.6000X1.0000*%
%ADD37R,0.6500X0.7500*%
G04:AMPARAMS|DCode=38|XSize=0.42mm|YSize=0.46mm|CornerRadius=0mm|HoleSize=0mm|Usage=FLASHONLY|Rotation=135.000|XOffset=0mm|YOffset=0mm|HoleType=Round|Shape=Rectangle|*
%AMROTATEDRECTD38*
4,1,4,0.3111,0.0141,-0.0141,-0.3111,-0.3111,-0.0141,0.0141,0.3111,0.3111,0.0141,0.0*
%
%ADD38ROTATEDRECTD38*%

%ADD39R,0.4200X0.4600*%
%ADD40P,0.6364X4X270.0*%
%ADD41R,0.4500X0.4500*%
%ADD42P,0.8768X4X270.0*%
%ADD43P,0.8768X4X360.0*%
%ADD44P,0.6364X4X180.0*%
%ADD45R,1.2700X2.2000*%
%ADD46R,1.0000X0.9500*%
%ADD47R,0.8000X0.3000*%
%ADD48R,1.9000X1.1000*%
%ADD49R,0.3000X1.6000*%
%ADD50R,3.7000X2.4000*%
%ADD51R,1.1500X1.4500*%
%ADD52R,0.9000X1.0000*%
G04:AMPARAMS|DCode=53|XSize=1mm|YSize=0.9mm|CornerRadius=0mm|HoleSize=0mm|Usage=FLASHONLY|Rotation=45.000|XOffset=0mm|YOffset=0mm|HoleType=Round|Shape=Rectangle|*
%AMROTATEDRECTD53*
4,1,4,-0.0354,-0.6717,-0.6717,-0.0354,0.0354,0.6717,0.6717,0.0354,-0.0354,-0.6717,0.0*
%
%ADD53ROTATEDRECTD53*%

G04:AMPARAMS|DCode=54|XSize=2.2mm|YSize=1.27mm|CornerRadius=0mm|HoleSize=0mm|Usage=FLASHONLY|Rotation=135.000|XOffset=0mm|YOffset=0mm|HoleType=Round|Shape=Rectangle|*
%AMROTATEDRECTD54*
4,1,4,1.2268,-0.3288,0.3288,-1.2268,-1.2268,0.3288,-0.3288,1.2268,1.2268,-0.3288,0.0*
%
%ADD54ROTATEDRECTD54*%

G04:AMPARAMS|DCode=55|XSize=1mm|YSize=0.9mm|CornerRadius=0mm|HoleSize=0mm|Usage=FLASHONLY|Rotation=135.000|XOffset=0mm|YOffset=0mm|HoleType=Round|Shape=Rectangle|*
%AMROTATEDRECTD55*
4,1,4,0.6717,-0.0354,0.0354,-0.6717,-0.6717,0.0354,-0.0354,0.6717,0.6717,-0.0354,0.0*
%
%ADD55ROTATEDRECTD55*%

G04:AMPARAMS|DCode=56|XSize=0.25mm|YSize=0.8mm|CornerRadius=0mm|HoleSize=0mm|Usage=FLASHONLY|Rotation=315.000|XOffset=0mm|YOffset=0mm|HoleType=Round|Shape=Round|*
%AMOVALD56*
21,1,0.5500,0.2500,0.0000,0.0000,45.0*
1,1,0.2500,-0.1945,-0.1945*
1,1,0.2500,0.1945,0.1945*
%
%ADD56OVALD56*%

G04:AMPARAMS|DCode=57|XSize=0.25mm|YSize=0.8mm|CornerRadius=0mm|HoleSize=0mm|Usage=FLASHONLY|Rotation=225.000|XOffset=0mm|YOffset=0mm|HoleType=Round|Shape=Round|*
%AMOVALD57*
21,1,0.5500,0.2500,0.0000,0.0000,315.0*
1,1,0.2500,-0.1945,0.1945*
1,1,0.2500,0.1945,-0.1945*
%
%ADD57OVALD57*%

%ADD58P,3.4648X4X270.0*%
%ADD59R,1.0000X0.9000*%
%ADD60R,0.2500X0.7000*%
%ADD61R,1.5500X0.8500*%
%ADD62R,0.2000X0.7500*%
%ADD63R,0.9600X0.8900*%
%ADD64R,1.0500X0.6500*%
%ADD65R,1.4500X1.1500*%
%ADD66R,0.7500X0.6500*%
%ADD67C,0.5000*%
%ADD68C,0.2000*%
%ADD69C,0.1270*%
%ADD70C,0.1000*%
%ADD71C,0.3000*%
%ADD72C,0.4000*%
%ADD73C,0.0762*%
%ADD74C,1.2000*%
%ADD75C,1.0000*%
%ADD76C,0.7500*%
%ADD77C,0.2500*%
%ADD78C,0.1250*%
%ADD79C,0.1524*%
%ADD80C,0.1800*%
%ADD81C,0.1500*%
%ADD82C,0.1520*%
%ADD83C,0.1750*%
%ADD84R,1.6000X0.8000*%
%ADD85R,1.3250X1.0500*%
%ADD86R,0.7976X0.7976*%
%ADD87R,0.8000X0.3000*%
%ADD88C,3.8000*%
%ADD89O,2.2500X1.2000*%
%ADD90O,2.8500X1.4500*%
%ADD91C,0.7500*%
%ADD92C,1.0000*%
%ADD93R,1.5000X1.5000*%
%ADD94C,0.3000*%
%ADD95C,0.2500*%
D10*
X744000Y256000D02*
D03*
Y226000D02*
D03*
X722000Y256000D02*
D03*
Y226000D02*
D03*
X1042600Y126000D02*
D03*
Y96000D02*
D03*
X1065600Y126000D02*
D03*
Y96000D02*
D03*
X161600Y18000D02*
D03*
Y48000D02*
D03*
X184600Y18000D02*
D03*
Y48000D02*
D03*
D11*
X271000Y69000D02*
D03*
Y45000D02*
D03*
X962000Y97000D02*
D03*
Y121000D02*
D03*
D12*
X995000Y98500D02*
D03*
Y121500D02*
D03*
X235000Y44500D02*
D03*
Y21500D02*
D03*
D13*
X329132Y51868D02*
D03*
X312868Y68132D02*
D03*
X390868Y67132D02*
D03*
X407132Y50868D02*
D03*
D14*
X840500Y48000D02*
D03*
Y53000D02*
D03*
Y58000D02*
D03*
Y63000D02*
D03*
Y68000D02*
D03*
Y73000D02*
D03*
Y78000D02*
D03*
Y83000D02*
D03*
Y88000D02*
D03*
Y93000D02*
D03*
Y98000D02*
D03*
Y103000D02*
D03*
X772000D02*
D03*
Y98000D02*
D03*
Y93000D02*
D03*
Y88000D02*
D03*
Y83000D02*
D03*
Y78000D02*
D03*
Y73000D02*
D03*
Y68000D02*
D03*
Y63000D02*
D03*
Y58000D02*
D03*
Y53000D02*
D03*
Y48000D02*
D03*
D15*
X833750Y109750D02*
D03*
X828750D02*
D03*
X823750D02*
D03*
X818750D02*
D03*
X813750D02*
D03*
X808750D02*
D03*
X803750D02*
D03*
X798750D02*
D03*
X793750D02*
D03*
X788750D02*
D03*
X783750D02*
D03*
X778750D02*
D03*
Y41250D02*
D03*
X783750D02*
D03*
X788750D02*
D03*
X793750D02*
D03*
X798750D02*
D03*
X803750D02*
D03*
X808750D02*
D03*
X813750D02*
D03*
X818750D02*
D03*
X823750D02*
D03*
X828750D02*
D03*
X833750D02*
D03*
D16*
X806250Y75500D02*
D03*
D17*
X247100Y124000D02*
D03*
X256100D02*
D03*
X881100Y86000D02*
D03*
X872100D02*
D03*
X972100Y37000D02*
D03*
X981100D02*
D03*
X247100Y114000D02*
D03*
X256100D02*
D03*
X809100Y30000D02*
D03*
X800100D02*
D03*
X532750Y60500D02*
D03*
X541750D02*
D03*
X532750Y109500D02*
D03*
X541750D02*
D03*
D18*
X982000Y19500D02*
D03*
Y28500D02*
D03*
X881000Y74500D02*
D03*
Y65500D02*
D03*
X871000Y74500D02*
D03*
Y65500D02*
D03*
D19*
X657000Y98750D02*
D03*
X661000D02*
D03*
X657000Y78750D02*
D03*
X661000D02*
D03*
X657000Y82750D02*
D03*
X661000D02*
D03*
X657000Y94750D02*
D03*
X661000D02*
D03*
X657000Y106750D02*
D03*
X661000D02*
D03*
X657000Y102750D02*
D03*
X661000D02*
D03*
Y74750D02*
D03*
X657000D02*
D03*
X673000Y110750D02*
D03*
X685000Y74750D02*
D03*
X689000D02*
D03*
Y78750D02*
D03*
X685000D02*
D03*
X689000Y82750D02*
D03*
X681000Y74750D02*
D03*
Y78750D02*
D03*
X677000Y74750D02*
D03*
Y78750D02*
D03*
X693000Y82750D02*
D03*
Y86750D02*
D03*
X685000D02*
D03*
X689000D02*
D03*
X685000Y82750D02*
D03*
X677000D02*
D03*
X681000D02*
D03*
X685000Y90750D02*
D03*
X681000Y86750D02*
D03*
Y90750D02*
D03*
X673000Y78750D02*
D03*
X669000Y74750D02*
D03*
X673000D02*
D03*
X669000Y78750D02*
D03*
X673000Y82750D02*
D03*
X665000D02*
D03*
X669000D02*
D03*
X677000Y86750D02*
D03*
X669000D02*
D03*
X673000D02*
D03*
X677000Y90750D02*
D03*
X669000D02*
D03*
X673000D02*
D03*
X661000Y86750D02*
D03*
X665000D02*
D03*
X661000Y90750D02*
D03*
X657000Y86750D02*
D03*
Y90750D02*
D03*
X693000Y94750D02*
D03*
X689000Y90750D02*
D03*
X693000D02*
D03*
X689000Y94750D02*
D03*
X693000Y98750D02*
D03*
X689000D02*
D03*
Y102750D02*
D03*
X681000Y94750D02*
D03*
X685000D02*
D03*
X677000D02*
D03*
X685000Y98750D02*
D03*
Y102750D02*
D03*
X677000Y98750D02*
D03*
X681000D02*
D03*
X693000Y102750D02*
D03*
X689000Y106750D02*
D03*
X693000D02*
D03*
X689000Y110750D02*
D03*
X693000D02*
D03*
X685000Y106750D02*
D03*
Y110750D02*
D03*
X681000Y102750D02*
D03*
Y106750D02*
D03*
X677000D02*
D03*
X681000Y110750D02*
D03*
X677000D02*
D03*
X673000Y94750D02*
D03*
X665000D02*
D03*
X669000D02*
D03*
X673000Y98750D02*
D03*
X677000Y102750D02*
D03*
X669000Y98750D02*
D03*
Y102750D02*
D03*
X665000Y90750D02*
D03*
Y98750D02*
D03*
Y102750D02*
D03*
X673000D02*
D03*
X669000Y106750D02*
D03*
X673000D02*
D03*
X669000Y110750D02*
D03*
X665000Y106750D02*
D03*
Y110750D02*
D03*
X661000D02*
D03*
X657000D02*
D03*
X665000Y74750D02*
D03*
Y78750D02*
D03*
X693000Y74750D02*
D03*
Y78750D02*
D03*
D20*
X337464Y23536D02*
D03*
X344536Y16465D02*
D03*
X356906Y119201D02*
D03*
X363977Y112130D02*
D03*
D21*
X406536Y31535D02*
D03*
X399464Y24464D02*
D03*
D22*
X1215000Y15000D02*
D03*
X75000D02*
D03*
X795300Y256000D02*
D03*
D23*
X605600Y167000D02*
D03*
Y157000D02*
D03*
D24*
X644900Y161000D02*
D03*
X638300D02*
D03*
X644900Y167000D02*
D03*
X638300D02*
D03*
X795900Y119000D02*
D03*
X789300D02*
D03*
X626700Y150000D02*
D03*
X633300D02*
D03*
X817550Y121500D02*
D03*
X810950D02*
D03*
X633300Y120000D02*
D03*
X626700D02*
D03*
D25*
X911750Y127000D02*
D03*
D26*
X897750D02*
D03*
D27*
X911320Y119250D02*
D03*
D28*
Y105250D02*
D03*
D29*
X604600Y184400D02*
D03*
Y177400D02*
D03*
X604600Y191400D02*
D03*
Y198400D02*
D03*
X643000Y120500D02*
D03*
Y127500D02*
D03*
X487600Y16500D02*
D03*
Y9500D02*
D03*
X488600Y76500D02*
D03*
Y69500D02*
D03*
X170600Y115500D02*
D03*
Y122500D02*
D03*
X751600Y123500D02*
D03*
Y130500D02*
D03*
X638600Y245500D02*
D03*
Y238500D02*
D03*
X604600Y245500D02*
D03*
Y238500D02*
D03*
X1009600Y106500D02*
D03*
Y99500D02*
D03*
X218600Y44500D02*
D03*
Y37500D02*
D03*
X480600Y9500D02*
D03*
Y16500D02*
D03*
X480600Y69500D02*
D03*
Y76500D02*
D03*
X894600Y28500D02*
D03*
Y35500D02*
D03*
X894600Y14500D02*
D03*
Y21500D02*
D03*
X758600Y123500D02*
D03*
Y130500D02*
D03*
X1057600Y27500D02*
D03*
Y20500D02*
D03*
X482600Y257500D02*
D03*
Y264500D02*
D03*
D30*
X532250Y118900D02*
D03*
X542250D02*
D03*
X505600Y57000D02*
D03*
X495600D02*
D03*
X486600Y118000D02*
D03*
X496600D02*
D03*
D31*
X897600Y102000D02*
D03*
X892600D02*
D03*
X887600D02*
D03*
Y118000D02*
D03*
X892600D02*
D03*
X897600D02*
D03*
D32*
X629600Y249000D02*
D03*
Y244000D02*
D03*
Y239000D02*
D03*
X613600D02*
D03*
Y244000D02*
D03*
Y249000D02*
D03*
D33*
X1183500Y87500D02*
D03*
X1180000D02*
D03*
X1204500D02*
D03*
X1201000D02*
D03*
X1215000Y67500D02*
D03*
X1211500D02*
D03*
X1225500Y87500D02*
D03*
X1222000D02*
D03*
X1204500Y67500D02*
D03*
X1201000D02*
D03*
X1194000D02*
D03*
X1190500D02*
D03*
X1225500D02*
D03*
X1222000D02*
D03*
X1215000Y87500D02*
D03*
X1211500D02*
D03*
X1194000D02*
D03*
X1190500D02*
D03*
X1162500Y67500D02*
D03*
Y87500D02*
D03*
X1166000Y67500D02*
D03*
Y87500D02*
D03*
X1169500Y67500D02*
D03*
Y87500D02*
D03*
X1173000Y67500D02*
D03*
Y87500D02*
D03*
X1176500Y67500D02*
D03*
Y87500D02*
D03*
X1187000Y67500D02*
D03*
Y87500D02*
D03*
X1197500Y67500D02*
D03*
Y87500D02*
D03*
X1208000Y67500D02*
D03*
Y87500D02*
D03*
X1218500Y67500D02*
D03*
Y87500D02*
D03*
X1229000Y67500D02*
D03*
Y87500D02*
D03*
X1232500Y67500D02*
D03*
Y87500D02*
D03*
X1236000Y67500D02*
D03*
Y87500D02*
D03*
X1239500Y67500D02*
D03*
Y87500D02*
D03*
X1243000Y67500D02*
D03*
Y87500D02*
D03*
X1246500Y67500D02*
D03*
Y87500D02*
D03*
X1180000Y67500D02*
D03*
X1183500D02*
D03*
X69001Y72500D02*
D03*
X72501D02*
D03*
X69001Y92500D02*
D03*
X72501D02*
D03*
X58500D02*
D03*
X62000D02*
D03*
X93500D02*
D03*
X90000D02*
D03*
X93500Y72500D02*
D03*
X90000D02*
D03*
X83000Y92500D02*
D03*
X79500D02*
D03*
X83000Y72500D02*
D03*
X79500D02*
D03*
X30501D02*
D03*
Y92500D02*
D03*
X34000Y72500D02*
D03*
Y92500D02*
D03*
X37501Y72500D02*
D03*
Y92500D02*
D03*
X41000Y72500D02*
D03*
Y92500D02*
D03*
X44500Y72500D02*
D03*
Y92500D02*
D03*
X55001Y72500D02*
D03*
Y92500D02*
D03*
X65500Y72500D02*
D03*
Y92500D02*
D03*
X76000Y72500D02*
D03*
Y92500D02*
D03*
X86501Y72500D02*
D03*
Y92500D02*
D03*
X97001Y72500D02*
D03*
Y92500D02*
D03*
X100500Y72500D02*
D03*
Y92500D02*
D03*
X104001Y72500D02*
D03*
Y92500D02*
D03*
X107500Y72500D02*
D03*
Y92500D02*
D03*
X111000Y72500D02*
D03*
Y92500D02*
D03*
X114501Y72500D02*
D03*
Y92500D02*
D03*
X62000Y72500D02*
D03*
X58500D02*
D03*
X51501D02*
D03*
X48000D02*
D03*
X51501Y92500D02*
D03*
X48000D02*
D03*
D34*
X1253750Y86850D02*
D03*
Y68150D02*
D03*
X1155250Y86850D02*
D03*
Y68150D02*
D03*
X121750Y91850D02*
D03*
Y73150D02*
D03*
X23251Y91850D02*
D03*
Y73150D02*
D03*
D35*
X1260000Y77500D02*
D03*
X1149000D02*
D03*
X128000Y82500D02*
D03*
X17000D02*
D03*
D36*
X532500Y98500D02*
D03*
X551500D02*
D03*
Y71000D02*
D03*
X542000D02*
D03*
X532500D02*
D03*
D37*
X635000Y141500D02*
D03*
Y128500D02*
D03*
X625000D02*
D03*
Y141500D02*
D03*
D38*
X327667Y37667D02*
D03*
X332333Y42333D02*
D03*
X379564Y52533D02*
D03*
X384231Y57200D02*
D03*
D39*
X763000Y53550D02*
D03*
Y46950D02*
D03*
X857250Y38800D02*
D03*
Y32200D02*
D03*
X857250Y52800D02*
D03*
Y46200D02*
D03*
X777600Y134300D02*
D03*
Y127700D02*
D03*
X859000Y75300D02*
D03*
Y68700D02*
D03*
X1017600Y99700D02*
D03*
Y106300D02*
D03*
X210600Y37700D02*
D03*
Y44300D02*
D03*
X817000Y30300D02*
D03*
Y23700D02*
D03*
X474600Y257700D02*
D03*
Y264300D02*
D03*
X792000Y30300D02*
D03*
Y23700D02*
D03*
X851250Y69550D02*
D03*
Y62950D02*
D03*
D40*
X338967Y48140D02*
D03*
X343917Y43190D02*
D03*
D41*
X910750Y98250D02*
D03*
X903750D02*
D03*
X1017100Y92000D02*
D03*
X1010100D02*
D03*
X248100Y106000D02*
D03*
X255100D02*
D03*
X784500Y27000D02*
D03*
X777500D02*
D03*
X808500Y19000D02*
D03*
X801500D02*
D03*
X611100Y228000D02*
D03*
X604100D02*
D03*
X884500Y126750D02*
D03*
X891500D02*
D03*
X973100Y45000D02*
D03*
X980100D02*
D03*
X761100Y137000D02*
D03*
X754100D02*
D03*
X765100Y147000D02*
D03*
X758100D02*
D03*
X832750Y121500D02*
D03*
X825750D02*
D03*
X611100Y219000D02*
D03*
X604100D02*
D03*
X218100Y51000D02*
D03*
X211100D02*
D03*
D42*
X371260Y104847D02*
D03*
X377624Y98483D02*
D03*
X351818Y37182D02*
D03*
X358182Y30818D02*
D03*
X344818Y30182D02*
D03*
X351182Y23818D02*
D03*
D43*
X366818Y39818D02*
D03*
X373182Y46182D02*
D03*
D44*
X332525Y32525D02*
D03*
X337475Y37475D02*
D03*
X373967Y33190D02*
D03*
X378917Y38140D02*
D03*
X385967Y45190D02*
D03*
X390917Y50140D02*
D03*
D45*
X468250Y52000D02*
D03*
X444950D02*
D03*
X468250Y112000D02*
D03*
X444950D02*
D03*
D46*
X803599Y155251D02*
D03*
Y234751D02*
D03*
D47*
X776599Y167501D02*
D03*
Y172501D02*
D03*
Y177501D02*
D03*
Y182501D02*
D03*
Y187501D02*
D03*
Y192501D02*
D03*
Y197501D02*
D03*
Y202501D02*
D03*
Y207501D02*
D03*
Y212501D02*
D03*
Y217501D02*
D03*
Y222501D02*
D03*
D48*
X873250Y52750D02*
D03*
Y27750D02*
D03*
D49*
X237180Y120160D02*
D03*
X224180D02*
D03*
X217680D02*
D03*
X230680D02*
D03*
X237180Y65160D02*
D03*
X230680D02*
D03*
X224180D02*
D03*
X211180Y120160D02*
D03*
X204680D02*
D03*
X198180D02*
D03*
X191680D02*
D03*
X185180D02*
D03*
X178680D02*
D03*
X217680Y65160D02*
D03*
X211180D02*
D03*
X204680D02*
D03*
X198180D02*
D03*
X191680D02*
D03*
X178680D02*
D03*
X185180D02*
D03*
X1049790Y78650D02*
D03*
X1043290D02*
D03*
X1036790D02*
D03*
X1030290D02*
D03*
X1036790Y23650D02*
D03*
X1030290D02*
D03*
X1049790D02*
D03*
X1043290D02*
D03*
X1023790D02*
D03*
X1010790Y78650D02*
D03*
X1004290D02*
D03*
X1023790D02*
D03*
X1017290D02*
D03*
X997790D02*
D03*
X991290D02*
D03*
X1017290Y23650D02*
D03*
X1010790D02*
D03*
X1004290D02*
D03*
X991290D02*
D03*
X997790D02*
D03*
D50*
X207970Y92220D02*
D03*
X1020500Y51590D02*
D03*
D51*
X284600Y94000D02*
D03*
X266600D02*
D03*
X284600Y112000D02*
D03*
X266600D02*
D03*
D52*
X319000Y24000D02*
D03*
X303000Y24000D02*
D03*
D53*
X303785Y53322D02*
D03*
X315099Y42008D02*
D03*
X375785Y119322D02*
D03*
X387099Y108008D02*
D03*
X417657Y61343D02*
D03*
X406343Y72657D02*
D03*
D54*
X314204Y90427D02*
D03*
X330680Y106903D02*
D03*
X392204Y86427D02*
D03*
X408680Y102903D02*
D03*
D55*
X385785Y30008D02*
D03*
X397099Y41322D02*
D03*
D56*
X378892Y79438D02*
D03*
X375357Y82974D02*
D03*
X371821Y86509D02*
D03*
X368286Y90045D02*
D03*
X364750Y93580D02*
D03*
X361215Y97116D02*
D03*
X333991Y69892D02*
D03*
X337527Y66357D02*
D03*
X341062Y62821D02*
D03*
X344598Y59286D02*
D03*
X348133Y55750D02*
D03*
X351669Y52214D02*
D03*
D57*
Y97116D02*
D03*
X348133Y93580D02*
D03*
X344598Y90045D02*
D03*
X341062Y86509D02*
D03*
X337527Y82974D02*
D03*
X333991Y79438D02*
D03*
X361215Y52214D02*
D03*
X364750Y55750D02*
D03*
X368286Y59286D02*
D03*
X371821Y62821D02*
D03*
X375357Y66357D02*
D03*
X378892Y69892D02*
D03*
D58*
X356442Y74665D02*
D03*
D59*
X443600Y77000D02*
D03*
Y93000D02*
D03*
X495600Y87000D02*
D03*
Y103000D02*
D03*
X482600Y87000D02*
D03*
Y103000D02*
D03*
X443600Y17000D02*
D03*
Y33000D02*
D03*
X495600Y27000D02*
D03*
Y43000D02*
D03*
X482600Y27000D02*
D03*
Y43000D02*
D03*
D60*
X470100Y70050D02*
D03*
X455100D02*
D03*
X460100D02*
D03*
X465100D02*
D03*
X470100Y89950D02*
D03*
X460100D02*
D03*
X465100D02*
D03*
X455100D02*
D03*
X470100Y10050D02*
D03*
X455100D02*
D03*
X460100D02*
D03*
X465100D02*
D03*
X470100Y29950D02*
D03*
X460100D02*
D03*
X465100D02*
D03*
X455100D02*
D03*
D61*
X462600Y80000D02*
D03*
X462600Y20000D02*
D03*
D62*
X689200Y128300D02*
D03*
X678200D02*
D03*
X684200D02*
D03*
X672200D02*
D03*
X667200D02*
D03*
X686700Y138700D02*
D03*
X681700D02*
D03*
X674700Y138700D02*
D03*
X669700Y138700D02*
D03*
D63*
X893600Y84550D02*
D03*
Y67450D02*
D03*
D64*
X958250Y37750D02*
D03*
Y12750D02*
D03*
X918250Y37750D02*
D03*
Y12750D02*
D03*
D65*
X953000Y55000D02*
D03*
Y73000D02*
D03*
X973500Y55000D02*
D03*
Y73000D02*
D03*
D66*
X786100Y137000D02*
D03*
X799100D02*
D03*
Y127000D02*
D03*
X786100D02*
D03*
D67*
X283315Y131250D02*
X356315D01*
X283315D02*
X284600Y129965D01*
X525500Y60500D02*
X532750D01*
X522000Y64000D02*
X525500Y60500D01*
X522000Y64000D02*
Y138400D01*
X409657Y72657D02*
X417000Y80000D01*
X409000Y77000D02*
X412000Y80000D01*
X408000Y76000D02*
X409000Y77000D01*
Y80000D01*
Y75314D02*
Y77000D01*
X412000Y80000D02*
X413000D01*
X409000D02*
X412000D01*
X397099Y41887D02*
X407159Y51948D01*
X407182Y50868D02*
X417657Y61343D01*
X407132Y50868D02*
X407182D01*
X406343Y74343D02*
X408000Y76000D01*
Y74314D02*
Y76000D01*
X406343Y72657D02*
X408000Y74314D01*
X406343Y72657D02*
Y74343D01*
X413000Y80000D02*
X417000D01*
X406343Y72657D02*
X409657D01*
X235000Y45000D02*
X271000D01*
X218600Y21500D02*
X235000D01*
X188100D02*
X218600D01*
X184600Y18000D02*
X188100Y21500D01*
X161600Y18000D02*
X184600D01*
X235000Y44500D02*
Y45000D01*
X271000Y42500D02*
Y45000D01*
X237180Y71550D02*
X271000D01*
X973500Y73000D02*
X991290D01*
X962000Y121000D02*
X973000D01*
X995000Y99000D01*
X1009000Y121500D02*
X1013500Y126000D01*
X1042600D01*
X995000Y121500D02*
X1009000D01*
X237180Y65160D02*
Y71550D01*
X327868Y51868D02*
X329132D01*
X319333Y43333D02*
X327868Y51868D01*
X1065600Y126000D02*
X1070000D01*
X265000Y115600D02*
Y121500D01*
X262500Y124000D02*
X265000Y121500D01*
X256100Y124000D02*
X262500D01*
X249250Y131250D02*
X283315D01*
X247100Y129100D02*
X249250Y131250D01*
X265000Y115600D02*
X266600Y114000D01*
X247100Y124000D02*
Y129100D01*
X238250Y124000D02*
X247100D01*
X297000Y79000D02*
X301000D01*
X304507D01*
X302000Y55107D02*
X303785Y53322D01*
X330680Y106903D02*
X332600Y108823D01*
X462600Y80000D02*
X467600D01*
X399250Y7000D02*
X399464Y7214D01*
X397099Y40972D02*
Y41322D01*
Y40972D02*
X406536Y31535D01*
X510600Y62000D02*
Y128000D01*
X532500Y98500D02*
Y109250D01*
X522000Y138400D02*
X523600Y140000D01*
X532500Y60500D02*
Y71000D01*
Y60500D02*
X532750D01*
X457600Y80000D02*
X462600D01*
X495600Y43000D02*
X495600Y43000D01*
X495600Y43000D02*
Y57000D01*
X510600Y128000D02*
Y130000D01*
X505600Y57000D02*
X510600Y62000D01*
X486600Y118000D02*
Y128250D01*
X496600Y104000D02*
Y118000D01*
X473600Y265000D02*
X488600D01*
X473600Y256000D02*
X501751D01*
X503651Y257900D01*
X558651Y260900D02*
X568600D01*
Y151000D02*
Y260900D01*
X558651Y151000D02*
X568600D01*
X555651Y154000D02*
X558651Y151000D01*
X503651Y154000D02*
X555651D01*
Y257900D02*
X558651Y260900D01*
X503651Y257900D02*
X555651D01*
X953000Y55000D02*
X973500D01*
X541750Y109500D02*
X542000Y109250D01*
X541750Y60500D02*
X542000Y60750D01*
X532500Y109250D02*
X532750Y109500D01*
X406465Y129965D02*
X406500Y130000D01*
X407159Y51948D02*
Y52409D01*
X406500Y105083D02*
X408680Y102903D01*
X406500Y130000D02*
X406500Y130000D01*
X353250Y115545D02*
X356906Y119201D01*
X353250Y105080D02*
Y115545D01*
Y105080D02*
X363554Y94777D01*
X314572Y42008D02*
X315099D01*
X314204Y89903D02*
Y90427D01*
X991290Y73000D02*
Y85000D01*
X207970Y92220D02*
X209750Y94000D01*
X356906Y119201D02*
Y129271D01*
X375785Y129150D02*
X376600Y129965D01*
X406465D02*
X406500D01*
Y130000D01*
X443600Y33000D02*
X445600Y31000D01*
X453600D01*
X443600Y17000D02*
X446600Y20000D01*
X462600D01*
X482600Y103000D02*
X495600D01*
X471100Y104000D02*
X482600D01*
X542000Y60750D02*
Y71000D01*
X443600Y77000D02*
X446600Y80000D01*
X457600D01*
X462600D02*
X462600D01*
X480600Y87000D02*
X482600D01*
X467600Y80000D02*
X473600D01*
X480600Y87000D01*
X473600Y20000D02*
X480600Y27000D01*
X462600Y20000D02*
X473600D01*
X482600Y43000D02*
Y44000D01*
Y43000D02*
X484600D01*
X495600D01*
X470100Y44000D02*
X482600D01*
X495600Y27000D02*
X495600Y27000D01*
X484600Y27000D02*
X495600D01*
X481600D02*
X483100Y28500D01*
X480600Y27000D02*
X481600D01*
X482600D01*
X484600D01*
X1042600Y126000D02*
X1065600D01*
X443600Y93000D02*
X445600Y91000D01*
X453600D01*
X432000Y93000D02*
X443600D01*
X482600Y87000D02*
X483600D01*
X495600D01*
X178680Y48000D02*
X184600D01*
X161600D02*
X178680D01*
Y65160D01*
X1042600Y96000D02*
X1065600D01*
X1042600D02*
X1049600D01*
X1049790Y95810D01*
Y78650D02*
Y95810D01*
X973500Y55000D02*
X1017090D01*
X1019090D01*
X399464Y7214D02*
Y8536D01*
Y8943D01*
Y24464D01*
X433000Y33000D02*
X443600D01*
X432000Y34000D02*
X433000Y33000D01*
X538000Y80000D02*
X542000D01*
X546000D01*
X542000Y71000D02*
Y80000D01*
Y109250D01*
X952800Y72800D02*
X953000Y73000D01*
X178680Y65160D02*
Y77680D01*
X185000Y84000D01*
X195250D01*
X199750Y88500D01*
X1019000Y60000D02*
X1044000D01*
X1049790Y65790D01*
Y78650D01*
X344500Y11000D02*
X344536Y11035D01*
Y13215D01*
Y13285D02*
Y16465D01*
X315099Y27901D02*
Y42008D01*
Y27901D02*
X319000Y24000D01*
X337000D01*
X337464Y23536D01*
X302000Y55107D02*
Y79000D01*
Y25000D02*
X303000Y24000D01*
X302000Y25000D02*
Y51537D01*
X303785Y53322D01*
X148000Y18000D02*
X161600D01*
X131000Y35000D02*
X148000Y18000D01*
X1070000Y126000D02*
X1078000Y134000D01*
X1251500D01*
X1271750Y113750D01*
X122000Y57000D02*
X131000Y48000D01*
Y35000D02*
Y48000D01*
D68*
X887600Y105000D02*
Y106600D01*
Y102000D02*
Y105000D01*
X882000D02*
X887600D01*
X217680Y120160D02*
Y129750D01*
X215610Y131820D02*
X217680Y129750D01*
X204680Y120160D02*
Y129890D01*
X206610Y131820D01*
X215610D01*
X37000Y104500D02*
X41000Y100499D01*
X210600Y37500D02*
X218600D01*
Y21500D02*
X219000D01*
X218600D02*
Y37500D01*
X1009600Y106500D02*
Y120600D01*
X235000Y19500D02*
Y20000D01*
X767501Y167501D02*
X776599D01*
X822000Y18000D02*
Y26500D01*
X808500Y19000D02*
X809500Y18000D01*
X820000D01*
X800000Y23700D02*
X817000D01*
X1166000Y79500D02*
Y87500D01*
X1171100Y79500D02*
X1173000Y81400D01*
X1163750Y79500D02*
X1166000D01*
X1162500Y80750D02*
X1163750Y79500D01*
X1162500Y80750D02*
Y87500D01*
X1173000Y81400D02*
Y87500D01*
X34000Y92500D02*
Y99500D01*
X32250Y101250D02*
X34000Y99500D01*
X30501Y99501D02*
X32250Y101250D01*
X1166000Y11000D02*
X1170000Y7000D01*
X256100Y114000D02*
X266600D01*
X887600Y106600D02*
X889000Y108000D01*
X757100Y148000D02*
X758100Y147000D01*
X801600Y28500D02*
Y32000D01*
X792000Y23700D02*
X800000D01*
X800100Y23800D01*
Y30000D01*
X1232500Y60100D02*
Y67500D01*
X1239600Y53000D02*
X1262600D01*
X1232500Y60100D02*
X1239600Y53000D01*
X1260600Y57000D02*
X1268600Y65000D01*
X1242600Y57000D02*
X1260600D01*
X1239500Y60100D02*
X1242600Y57000D01*
X551500Y58750D02*
Y71000D01*
X111000Y69000D02*
X114000Y66000D01*
X111000Y69000D02*
Y72500D01*
X107500Y67499D02*
Y72500D01*
X100500Y69500D02*
Y72500D01*
X41000Y92500D02*
Y100499D01*
X1170000Y7000D02*
X1173000D01*
X1173000Y13000D02*
X1173000Y13000D01*
X884500Y121100D02*
X887600Y118000D01*
X897600Y110000D02*
Y114000D01*
X895600Y108000D02*
X897600Y110000D01*
X889000Y108000D02*
X895600D01*
X532750Y56000D02*
Y60500D01*
Y56000D02*
X535250Y53500D01*
X546250D01*
X551500Y58750D01*
X746600Y110000D02*
X750350Y106250D01*
Y57250D02*
Y106250D01*
Y57250D02*
X759600Y48000D01*
X495600Y103000D02*
X503600Y95000D01*
Y80000D02*
Y95000D01*
X500100Y76500D02*
X503600Y80000D01*
X495600Y43000D02*
X503600Y35000D01*
Y20000D02*
Y35000D01*
X500100Y16500D02*
X503600Y20000D01*
X604600Y238500D02*
X605100Y239000D01*
X613600D01*
X582150Y230900D02*
X589751Y238500D01*
X604600D01*
X488600Y16500D02*
X500100D01*
X678200Y128300D02*
Y133400D01*
X895100Y21500D02*
X896600Y20000D01*
X894600Y21500D02*
X895100D01*
X894600Y28500D02*
X894600Y28500D01*
Y21500D02*
Y28500D01*
X918250Y12750D02*
X958250D01*
X801600Y32000D02*
X803750Y34150D01*
X759600Y48000D02*
X761950D01*
X746600Y110000D02*
Y131000D01*
Y138000D01*
Y131000D02*
X747100Y130500D01*
X751600D01*
X758600D01*
X761950Y48000D02*
X763000Y46950D01*
X764050Y48000D01*
X847500Y74500D02*
X858200D01*
X813750Y116500D02*
X816250Y119000D01*
X858200Y74500D02*
X859000Y75300D01*
X363977Y112130D02*
X371260Y104847D01*
X763550Y53000D02*
X783750D01*
X813750Y68000D02*
X840500D01*
X816250Y119000D02*
Y121200D01*
X816550Y121500D01*
X817950Y121500D02*
X825750D01*
X852550Y63500D02*
X868750D01*
X1020500Y51590D02*
X1026090Y46000D01*
X370442Y92201D02*
Y104029D01*
X808750Y28500D02*
Y41250D01*
X803750Y34150D02*
Y73000D01*
X813750Y109750D02*
Y116500D01*
X808750Y78000D02*
Y119300D01*
X846000Y73000D02*
X847500Y74500D01*
X863250D02*
X864500Y73250D01*
X859000Y75300D02*
X859800Y74500D01*
X863250D01*
X178680Y122500D02*
Y127000D01*
X368286Y90045D02*
X370442Y92201D01*
Y104029D02*
X371260Y104847D01*
X764050Y48000D02*
X772000D01*
X808750Y119300D02*
X810950Y121500D01*
X851250Y62200D02*
X852550Y63500D01*
X840500Y72738D02*
Y73000D01*
X850450Y63000D02*
X851250Y62200D01*
X840500Y63000D02*
X850450D01*
X840500Y73000D02*
X846000D01*
X868750Y63500D02*
X870250Y65000D01*
X864500Y68250D02*
X865750Y67000D01*
X864500Y68250D02*
Y73250D01*
X865750Y67000D02*
X870000D01*
X884500Y121100D02*
Y126750D01*
X1017290Y78650D02*
X1017501Y78439D01*
X1026090Y46000D02*
X1032000D01*
X1049790Y30210D02*
X1050080Y30500D01*
X224180Y112420D02*
Y120160D01*
X230680Y112920D02*
Y120160D01*
Y112920D02*
X234600Y109000D01*
X242100D01*
X224180Y112420D02*
X231600Y105000D01*
X247100D01*
X248100Y106000D01*
X242100Y109000D02*
X247100Y114000D01*
X255100Y106000D02*
X266600D01*
Y112000D02*
Y114000D01*
X170600Y122500D02*
X178680D01*
X178680D01*
Y120160D02*
Y122500D01*
Y122500D01*
X178180Y122000D02*
X178680Y122500D01*
X178680Y122500D01*
X170600Y110000D02*
Y115500D01*
Y110000D02*
X172180Y108420D01*
X185180D01*
X211180Y52080D02*
Y65160D01*
X210100Y51000D02*
X211180Y52080D01*
X217680Y51580D02*
Y65160D01*
X217100Y51000D02*
X217680Y51580D01*
X480600Y69500D02*
X488600D01*
X488600Y69500D01*
X470100Y69500D02*
X480600D01*
X488600Y76500D02*
X500100D01*
X477100Y20000D02*
X480600Y16500D01*
X473600Y20000D02*
X477100D01*
X477100Y80000D02*
X480600Y76500D01*
X473600Y80000D02*
X477100D01*
X487600Y9500D02*
X487600Y9500D01*
X480600Y9500D02*
X487600D01*
X470650D02*
X480600D01*
X470100Y10050D02*
X470650Y9500D01*
X483600Y44000D02*
X484600Y43000D01*
X484600Y43000D01*
X1049790Y20500D02*
Y23650D01*
Y20500D02*
X1057600D01*
Y27500D02*
Y33000D01*
X1055600Y35000D02*
X1057600Y33000D01*
X1043600Y35000D02*
X1055600D01*
X1043290Y35310D02*
X1043600Y35000D01*
X1010100Y92000D02*
X1010790Y91310D01*
Y78650D02*
Y91310D01*
X1017290Y78650D02*
Y91810D01*
X1017100Y92000D02*
X1017290Y91810D01*
X1017100Y92000D02*
Y99200D01*
X209600Y44500D02*
X210600D01*
X218600D01*
X209600Y44300D02*
Y44500D01*
X210600D02*
Y51000D01*
X1009600Y99500D02*
X1017400D01*
X1017100Y99200D02*
X1017400Y99500D01*
X1017600Y99700D01*
X1009600Y106500D02*
X1017400D01*
X1017600Y106300D01*
X1243000Y63600D02*
Y67500D01*
X1239500Y60100D02*
Y67500D01*
X1243000Y63600D02*
X1245600Y61000D01*
X1259600D01*
X1264600Y66000D01*
X1065600Y126000D02*
X1067600Y128000D01*
X1253750Y77500D02*
Y83350D01*
Y71650D02*
Y77500D01*
X1260000D01*
X1253750Y68150D02*
Y71650D01*
Y83350D02*
Y86850D01*
X23251Y76650D02*
Y82500D01*
Y88350D01*
X17000Y82500D02*
X23251D01*
Y88350D02*
Y91850D01*
Y73150D02*
Y76650D01*
X121750Y82500D02*
Y88350D01*
Y73150D02*
Y82500D01*
X128000D01*
X121750Y88350D02*
Y91850D01*
X455100Y68000D02*
Y70050D01*
X430600Y68000D02*
X455100D01*
X433000Y12600D02*
X437600Y8000D01*
X455100D02*
Y10050D01*
X437600Y8000D02*
X455100D01*
X195600Y36000D02*
X198180Y38580D01*
Y65160D01*
X196600Y30000D02*
X204680Y38080D01*
Y65160D01*
X1023790Y78650D02*
Y107190D01*
X1030600Y114000D01*
X1076600D01*
X1030290Y78650D02*
Y104690D01*
X1033600Y108000D01*
X1078600D01*
X746600Y138000D02*
X750000Y141400D01*
Y141100D02*
Y141400D01*
Y141100D02*
X754100Y137000D01*
X749600Y148000D02*
Y148000D01*
X751600D02*
X757100D01*
X750000Y141400D02*
Y148000D01*
X816550Y121500D02*
Y121800D01*
Y121500D02*
X817250Y122200D01*
X817950Y121500D01*
X30501Y92500D02*
Y99501D01*
X433000Y12600D02*
Y33000D01*
X817000Y30300D02*
Y34000D01*
X813750Y37250D02*
Y41250D01*
Y37250D02*
X817000Y34000D01*
X818450Y29550D02*
X818950D01*
X821600Y26900D01*
X897600Y101750D02*
X900250D01*
X903750Y98250D01*
X903750D01*
X821600Y26900D02*
X822000Y26500D01*
X896600Y20000D02*
X900000D01*
X907250Y12750D01*
X918250D01*
X151000Y36000D02*
X195600D01*
X148000Y30000D02*
X196600D01*
X144000Y43000D02*
X151000Y36000D01*
X138000Y40000D02*
X148000Y30000D01*
X144000Y43000D02*
Y56000D01*
X114000Y66000D02*
X134000D01*
X144000Y56000D01*
X138000Y40000D02*
Y54000D01*
X107500Y67499D02*
X113000Y62000D01*
X130000D01*
X138000Y54000D01*
X100500Y69500D02*
X112000Y58000D01*
X34000Y48000D02*
Y72500D01*
Y48000D02*
X50000Y32000D01*
Y14000D02*
Y32000D01*
X41000Y48000D02*
Y72500D01*
Y48000D02*
X55000Y34000D01*
Y18000D02*
Y34000D01*
X1076600Y114000D02*
X1091600Y129000D01*
X1247000D01*
X1268600Y107400D01*
X1078600Y108000D02*
X1095600Y125000D01*
X1268600Y65000D02*
Y107400D01*
X1262600Y53000D02*
X1273000Y63400D01*
X1173000Y13000D02*
Y67500D01*
X1166000Y11000D02*
Y67500D01*
X1149000Y77500D02*
X1155250D01*
Y86850D01*
Y71650D02*
Y77500D01*
Y68150D02*
Y71650D01*
X1273000Y63400D02*
Y112600D01*
X1271800Y113800D02*
X1273000Y112600D01*
X596400Y177400D02*
X604600D01*
X112000Y58000D02*
X121000D01*
X122000Y57000D01*
X354750Y20250D02*
Y20250D01*
X351182Y23818D02*
X354750Y20250D01*
X361750Y27250D02*
X362000D01*
X358182Y30818D02*
X361750Y27250D01*
X354807Y27193D02*
X358250Y23750D01*
X354557Y27193D02*
X354807D01*
X379000Y26500D02*
X382250Y29750D01*
X382500Y23000D02*
X385785Y26285D01*
Y30008D01*
X382250Y29750D02*
Y31750D01*
X372500Y27250D02*
Y29250D01*
X375000Y31750D01*
X1095600Y125000D02*
X1240500D01*
X1264600Y100900D01*
Y66000D02*
Y100900D01*
D69*
X876600Y104000D02*
X884600Y96000D01*
X840500Y53000D02*
X857050D01*
X873250Y51000D02*
Y52750D01*
X857250Y52800D02*
X871450D01*
X845600Y103000D02*
X847600Y105000D01*
X840500Y103000D02*
X845600D01*
X334000Y89000D02*
X336000Y91000D01*
X334000Y86500D02*
Y89000D01*
Y86500D02*
X337527Y82974D01*
X346000Y101000D02*
Y120000D01*
X340000Y95000D02*
X346000Y101000D01*
X343713Y98000D02*
X348133Y93580D01*
X340000Y94642D02*
Y95000D01*
Y94642D02*
X344598Y90045D01*
X336000Y91000D02*
X340000Y95000D01*
X336000Y91000D02*
X336571D01*
X341062Y86509D01*
X707200Y149000D02*
Y207800D01*
X784500Y20500D02*
X788000Y17000D01*
X792000D01*
X892600Y113600D02*
Y118000D01*
X891000Y112000D02*
X892600Y113600D01*
X883600Y112000D02*
X891000D01*
X879600Y116000D02*
X883600Y112000D01*
X892600Y97600D02*
Y102000D01*
X891000Y96000D02*
X892600Y97600D01*
X884600Y96000D02*
X891000D01*
X876600Y104000D02*
Y126000D01*
X769600Y123400D02*
Y139000D01*
X774600Y103000D02*
Y122400D01*
X772600Y124400D02*
X774600Y122400D01*
X772600Y124400D02*
Y143000D01*
X784500Y20500D02*
Y27000D01*
X787800Y30300D01*
X791900Y30300D02*
X793750Y32150D01*
X787800Y30300D02*
X792000D01*
X792000Y30300D02*
X792600D01*
X792000D02*
X792000Y30300D01*
X791900Y30300D02*
X792000D01*
X793750Y32150D02*
Y41250D01*
X635000Y141500D02*
X640500D01*
X633300Y143200D02*
Y150000D01*
Y143200D02*
X635000Y141500D01*
X624600Y128500D02*
X626300Y126800D01*
X625000Y135000D02*
X625000Y135000D01*
Y128500D02*
Y135000D01*
X40000Y80000D02*
X106000D01*
X39000Y81000D02*
X40000Y80000D01*
X106000D02*
X111000Y85000D01*
X41000Y83000D02*
X100000D01*
X39000Y85000D02*
X41000Y83000D01*
X100000D02*
X104001Y87001D01*
X31000Y85000D02*
X39000D01*
X27000Y81000D02*
X39000D01*
X43000Y86000D02*
X99000D01*
X100500Y87500D01*
X104001Y87001D02*
Y92500D01*
X111000Y85000D02*
Y92500D01*
X100500Y87500D02*
Y92500D01*
X605600Y159000D02*
X605600Y159000D01*
X838600Y108000D02*
Y120000D01*
X765100Y143500D02*
Y147000D01*
Y143500D02*
X767600Y141000D01*
X632900Y143200D02*
X634600Y141500D01*
X611100Y219000D02*
Y228000D01*
X626300Y120000D02*
Y126800D01*
X600000Y198400D02*
X604600D01*
X768600Y88000D02*
X772000D01*
X760850Y95750D02*
X768600Y88000D01*
X758350Y88250D02*
X768600Y78000D01*
X763350Y98250D02*
Y105500D01*
X765850Y100750D02*
Y104750D01*
X763100Y125500D02*
X764600Y127000D01*
X763350Y98250D02*
X768600Y93000D01*
X765850Y100750D02*
X768600Y98000D01*
X774600Y103000D02*
X774600Y103000D01*
X772000Y103000D02*
X774600D01*
X771000Y144600D02*
X772600Y143000D01*
X767600Y141000D02*
X769600Y139000D01*
X638600Y245500D02*
X644100D01*
X837100Y121500D02*
X838600Y120000D01*
X832750Y121500D02*
X837100D01*
X893600Y14000D02*
X894600Y15000D01*
X1004290Y23650D02*
Y30310D01*
X832750Y117150D02*
Y121500D01*
X828750Y113150D02*
X832750Y117150D01*
X828750Y109750D02*
Y113150D01*
X863703Y117103D02*
X866600Y120000D01*
X879600Y116000D02*
Y127000D01*
X778750Y109750D02*
Y126550D01*
X778300Y127000D02*
X786100D01*
X783750Y113450D02*
X789300Y119000D01*
X783750Y109750D02*
Y113450D01*
X789300Y119000D02*
X792600Y122300D01*
Y130500D01*
X799100Y137000D01*
X761100Y137000D02*
X764600Y133500D01*
Y127000D02*
Y133500D01*
X768600Y78000D02*
X772000D01*
X768600Y93000D02*
X772000D01*
X768600Y98000D02*
X772000D01*
X1012500Y35500D02*
X1022500D01*
X1010790Y23650D02*
Y33790D01*
X1023790Y23650D02*
Y34210D01*
X337527Y82974D02*
Y82974D01*
X1010790Y33790D02*
X1012500Y35500D01*
X1022500D02*
X1023790Y34210D01*
X62000Y24000D02*
X66000D01*
X75000Y15000D01*
X73000Y20000D02*
X78000Y15000D01*
X637100Y244000D02*
X638600Y245500D01*
X629600Y244000D02*
X637100D01*
X875600Y131000D02*
X879600Y127000D01*
X857600D02*
X861600Y131000D01*
X875600D01*
X874600Y128000D02*
X876600Y126000D01*
X860600Y125600D02*
X863000Y128000D01*
X874600D01*
X840500Y98000D02*
X848000D01*
X853600Y103600D01*
Y117000D01*
X840500Y93000D02*
X849000D01*
X857600Y101600D01*
Y127000D01*
X840500Y88000D02*
X850000D01*
X860600Y98600D01*
Y125600D01*
X840500Y83000D02*
X851000D01*
X863703Y95703D01*
Y117103D01*
X840500Y78000D02*
X852000D01*
X866600Y92600D01*
Y111000D01*
X841000Y14000D02*
X893600D01*
X980100Y45000D02*
X990000D01*
X1004290Y30710D01*
Y23650D02*
Y30710D01*
X1215000Y15000D02*
X1224000Y24000D01*
X1243000Y87500D02*
Y92000D01*
X1246000Y95000D01*
X1251000D01*
X1224000Y24000D02*
Y37000D01*
X1230000Y43000D01*
Y53000D01*
X1236000Y80000D02*
Y87500D01*
Y80000D02*
X1241000Y75000D01*
X644100Y245500D02*
X666600Y223000D01*
X692000D01*
X707200Y207800D01*
X760850Y95750D02*
Y108850D01*
X764000Y112000D01*
X758350Y88250D02*
Y111350D01*
X763100Y116100D01*
Y125500D01*
X763350Y105500D02*
X767600Y109750D01*
Y120000D01*
X765850Y104750D02*
X772000Y110900D01*
Y121000D01*
X769600Y123400D02*
X772000Y121000D01*
X1232500Y87500D02*
Y92750D01*
X1238500Y98750D01*
X1256000D01*
X611100Y219000D02*
X611100Y219000D01*
X611100Y228000D02*
X611350Y227750D01*
X611250Y223250D02*
X611250D01*
D70*
X925600Y67000D02*
Y117000D01*
X905600Y47000D02*
X925600Y67000D01*
X918000Y69400D02*
Y117000D01*
X851800Y32200D02*
X857250D01*
X840500Y48000D02*
X844000D01*
X840500D02*
X840500D01*
X849000Y35000D02*
X851800Y32200D01*
X849000Y35000D02*
Y43000D01*
X844000Y48000D02*
X849000Y43000D01*
X861700Y27750D02*
X873250D01*
X857250Y32200D02*
X861700Y27750D01*
X871450Y52800D02*
X873250Y51000D01*
X762501Y217501D02*
X776599D01*
X728600Y183600D02*
X762501Y217501D01*
X760501Y207501D02*
X776599D01*
X731600Y178600D02*
X760501Y207501D01*
X782499Y192501D02*
X786000Y189000D01*
Y165000D02*
Y189000D01*
X781000Y160000D02*
X786000Y165000D01*
X783499Y197501D02*
X790000Y191000D01*
Y163000D02*
Y191000D01*
X782000Y155000D02*
X790000Y163000D01*
X783499Y222501D02*
X794000Y212000D01*
Y161000D02*
Y212000D01*
X783000Y150000D02*
X794000Y161000D01*
X902600Y49000D02*
X921600Y68000D01*
X899600Y51000D02*
X918000Y69400D01*
X921600Y68000D02*
Y120000D01*
X728600Y117000D02*
Y183600D01*
X731600Y115000D02*
Y178600D01*
X751501Y182501D02*
X776599D01*
X736000Y167000D02*
X751501Y182501D01*
X736000Y107600D02*
Y167000D01*
X754501Y177501D02*
X776599D01*
X738250Y161250D02*
X754501Y177501D01*
X738250Y108350D02*
Y161250D01*
X745000Y160000D02*
X781000D01*
X740500Y155500D02*
X745000Y160000D01*
X740500Y109100D02*
Y155500D01*
X747000Y155000D02*
X782000D01*
X742750Y150750D02*
X747000Y155000D01*
X742750Y109850D02*
Y150750D01*
X776599Y222501D02*
X783499D01*
X776599Y197501D02*
X783499D01*
X768100Y150000D02*
X783000D01*
X765100Y147000D02*
X768100Y150000D01*
X776599Y192501D02*
X782499D01*
X801500Y13000D02*
X824250D01*
X777600D02*
X801500D01*
Y19000D01*
X824250Y13000D02*
X828000Y16750D01*
X740750Y49850D02*
X777600Y13000D01*
X748501Y187501D02*
X776599Y187501D01*
X733750Y172750D02*
X748501Y187501D01*
X733750Y106850D02*
Y172750D01*
X710750Y110750D02*
X720000Y120000D01*
X1020600Y7000D02*
X1030290Y16690D01*
X977000Y7000D02*
X1020600D01*
X965000Y19000D02*
X977000Y7000D01*
X1016600Y10000D02*
X1023790Y17190D01*
X978000Y10000D02*
X1016600D01*
X966000Y22000D02*
X978000Y10000D01*
X1013600Y13000D02*
X1017290Y16690D01*
X979000Y13000D02*
X1013600D01*
X967000Y25000D02*
X979000Y13000D01*
X909600Y25000D02*
X967000D01*
X908600Y22000D02*
X966000D01*
X907600Y19000D02*
X965000D01*
X905600Y29000D02*
X909600Y25000D01*
X902600Y28000D02*
X908600Y22000D01*
X899600Y27000D02*
X907600Y19000D01*
X767600Y27000D02*
X777500D01*
X764600Y34000D02*
X779600D01*
X745250Y53350D02*
X764600Y34000D01*
X738500Y48100D02*
X776600Y10000D01*
X643000Y120500D02*
X647250D01*
X643000Y127500D02*
Y131000D01*
X639000Y135000D02*
X643000Y131000D01*
X631500Y135000D02*
X639000D01*
X625000Y141500D02*
X631500Y135000D01*
X624600Y141500D02*
X626300Y143200D01*
X624600Y141000D02*
Y141500D01*
X625000Y141500D02*
X626700Y143200D01*
Y150000D01*
X646000Y125750D02*
X661000Y110750D01*
X644250Y125750D02*
X646000D01*
X643000Y127000D02*
X644250Y125750D01*
X643000Y127000D02*
Y127500D01*
X647250Y120500D02*
X657000Y110750D01*
X634600Y128500D02*
X635600Y127500D01*
X634750Y128250D02*
X642750Y120250D01*
X368153Y38483D02*
X368674D01*
X462600Y80000D02*
X462600Y80000D01*
X632900Y126800D02*
X634600Y128500D01*
X632900Y120000D02*
Y126800D01*
X747500Y55100D02*
Y105100D01*
Y55100D02*
X761350Y41250D01*
X743000Y51600D02*
X767600Y27000D01*
X693000Y110750D02*
X710750D01*
X730600Y114000D02*
X731600Y115000D01*
X725600Y114000D02*
X730600D01*
X905600Y29000D02*
Y47000D01*
X902600Y28000D02*
Y49000D01*
X899600Y27000D02*
Y51000D01*
X783750Y38150D02*
Y41250D01*
X779600Y34000D02*
X783750Y38150D01*
X778300Y127000D02*
X778750Y126550D01*
X777600Y127700D02*
X778300Y127000D01*
X785400Y127700D02*
X786100Y127000D01*
X738500Y48100D02*
Y102100D01*
X740750Y49850D02*
Y102850D01*
X743000Y51600D02*
Y103600D01*
X738250Y108350D02*
X743000Y103600D01*
X745250Y53350D02*
Y104350D01*
X740500Y109100D02*
X745250Y104350D01*
X742750Y109850D02*
X747500Y105100D01*
X761350Y41250D02*
X778750D01*
X818750Y37850D02*
Y41250D01*
X823750Y37850D02*
Y41250D01*
X392204Y83204D02*
Y86427D01*
X395442Y83190D01*
X783750Y53000D02*
X803750Y73000D01*
X385967Y45190D02*
Y46130D01*
X466250Y106350D02*
X469600Y103000D01*
X466250Y106350D02*
Y112000D01*
X857050Y53000D02*
X857250Y52800D01*
X1020500Y51590D02*
X1026410D01*
X806250Y75500D02*
X813750Y68000D01*
X806250Y75500D02*
X808750Y78000D01*
X803750Y73000D02*
X806250Y75500D01*
X349442Y49988D02*
X351669Y52214D01*
X378917Y38140D02*
X378917D01*
X384231Y57200D02*
Y57483D01*
X371260Y104847D02*
Y104847D01*
Y104847D02*
X371442Y104665D01*
X390917Y50140D02*
Y50514D01*
X396442Y82190D02*
X399442Y79190D01*
X387099Y107958D02*
Y108008D01*
X469600Y103000D02*
X470100D01*
X470100Y9000D02*
Y10050D01*
X442950Y47100D02*
Y52000D01*
Y52000D01*
X840500Y53000D02*
X840700Y52800D01*
X1026410Y51590D02*
X1027410D01*
X1023790Y54880D02*
X1028410Y59500D01*
X1049790Y23650D02*
Y30210D01*
X1017290Y16690D02*
Y23650D01*
X1023790Y17190D02*
Y23650D01*
X1030290Y16690D02*
Y23650D01*
X462600Y20000D02*
X465100Y17500D01*
X460100Y17500D02*
X462600Y20000D01*
X460100Y77500D02*
X462600Y80000D01*
X462600Y80000D01*
X462600Y80000D02*
X465100Y77500D01*
X481100Y23500D02*
X484600Y27000D01*
X483100Y28500D02*
X484600Y27000D01*
X480100Y83500D02*
X483600Y87000D01*
X1012295Y59795D02*
X1017090Y55000D01*
X1020500Y51590D01*
X736000Y107600D02*
X740750Y102850D01*
X733750Y106850D02*
X738500Y102100D01*
X357750Y74665D02*
X359977D01*
X366260Y38483D02*
X368153D01*
X776600Y10000D02*
X826000D01*
X830500Y14500D01*
X823750Y37850D02*
X830500Y31100D01*
X818750Y37850D02*
X828000Y28600D01*
Y16750D02*
Y28600D01*
X830500Y14500D02*
Y31100D01*
X1019000Y60000D02*
X1032500Y46500D01*
D71*
X817550Y121500D02*
Y124750D01*
X234500Y44500D02*
X235000D01*
X224180Y54820D02*
X234500Y44500D01*
X224180Y54820D02*
Y65160D01*
X995000Y97600D02*
Y99000D01*
Y97600D02*
X1004290Y88310D01*
X909600Y43600D02*
X939000Y73000D01*
X902600Y61600D02*
Y75550D01*
X887600Y46600D02*
X902600Y61600D01*
X893600Y84550D02*
X902600Y75550D01*
X707200Y142200D02*
X710600Y145600D01*
X701000Y136000D02*
X707200Y142200D01*
X708000Y141000D02*
X711600Y144600D01*
X703000Y136000D02*
X708000Y141000D01*
X707200Y142200D02*
Y149000D01*
Y141800D02*
Y142200D01*
Y141800D02*
X708000Y141000D01*
X699000Y132000D02*
X703000Y136000D01*
X701000D02*
X703000D01*
X699000D02*
X701000D01*
X711600Y146600D02*
Y148600D01*
Y144600D02*
Y146600D01*
X710600Y145600D02*
X711600Y144600D01*
X709600Y146600D02*
X710600Y145600D01*
X711600Y146600D01*
Y148600D02*
Y149000D01*
X707200D02*
X709600Y146600D01*
X711600Y148600D01*
X699000Y132000D02*
Y136000D01*
Y132000D02*
Y132000D01*
X711600Y144600D02*
X716000Y149000D01*
X711600D02*
X716000D01*
X707200D02*
X711600D01*
X482600Y132250D02*
X486600Y128250D01*
X1171100Y79500D02*
X1175600Y75000D01*
X1179600D01*
X1183600D01*
X1166000Y79500D02*
X1171100D01*
X977250Y21250D02*
X991290D01*
X968500Y30000D02*
X977250Y21250D01*
X912600Y30000D02*
X968500D01*
X991290Y21250D02*
Y23650D01*
X975750Y30250D02*
X980250D01*
X973750Y32250D02*
X975750Y30250D01*
X973750Y32250D02*
Y35350D01*
X980250Y30250D02*
X982000Y28500D01*
X972100Y37000D02*
X973750Y35350D01*
X857250Y38800D02*
Y46200D01*
X871500Y75000D02*
X872500Y76000D01*
X871000Y74500D02*
X871500Y75000D01*
X881000Y74000D02*
X883000Y76000D01*
X876000D02*
X883000D01*
X872500D02*
X876000D01*
X883000D02*
X886000D01*
X211180Y120160D02*
Y122500D01*
X213600D01*
X204680Y120160D02*
Y126750D01*
X202350D02*
X204680D01*
X195850Y123000D02*
X198000D01*
X195850Y123000D02*
X195850Y123000D01*
X399250Y5157D02*
Y7000D01*
X53000Y11000D02*
X56000Y8000D01*
X50000Y14000D02*
X53000Y11000D01*
X56000Y8000D02*
Y8000D01*
X55000Y18000D02*
X61000Y12000D01*
X61000D01*
X542250Y118900D02*
X580900D01*
X532250Y109500D02*
Y118900D01*
Y109500D02*
X532500Y109250D01*
X580900Y118900D02*
X605600Y143600D01*
X399250Y9157D02*
X399250Y9157D01*
X482600Y132250D02*
X486600D01*
X490600D01*
X486600Y128250D02*
Y132250D01*
X582150Y176900D02*
X587050Y172000D01*
X1177000Y7000D02*
X1181000D01*
X1173000D02*
X1177000D01*
X1177000Y13000D02*
X1181000D01*
X1173000D02*
X1177000D01*
X897600Y114000D02*
Y118000D01*
X532750Y109500D02*
X533250Y110000D01*
X495600Y103000D02*
X496600Y104000D01*
X486600Y128250D02*
X486600Y128250D01*
X486600Y118000D02*
X486600Y118000D01*
X510600Y128000D02*
Y128000D01*
X510600Y132000D02*
X514600D01*
X506600D02*
X510600D01*
X909600Y33000D02*
X912600Y30000D01*
X887600Y21000D02*
Y36000D01*
X888100Y35500D01*
X894600D01*
X881100Y86000D02*
X892150D01*
X893600Y84550D01*
X891650Y65500D02*
X893600Y67450D01*
X881000Y65500D02*
X891650D01*
X871000D02*
X881000D01*
X991290Y23650D02*
Y28000D01*
X918250Y37750D02*
X958250D01*
X972100Y37000D02*
X973100Y38000D01*
Y45000D01*
X953000Y55000D02*
X958250Y49750D01*
Y37750D02*
Y49750D01*
X949250Y51250D02*
X953000Y55000D01*
X973100Y54600D02*
X973500Y55000D01*
X973100Y45000D02*
Y54600D01*
X1020500Y51590D02*
X1023790Y54880D01*
X881100Y86000D02*
Y91500D01*
X872600Y100000D02*
X881100Y91500D01*
X872600Y100000D02*
Y124000D01*
X868600D02*
X872600D01*
X864600D02*
X868600D01*
X178680Y65160D02*
X185180D01*
X201030Y92220D02*
X207970D01*
X196250Y97000D02*
X203190D01*
X196250D02*
X201030Y92220D01*
X199250Y83500D02*
X202500Y86750D01*
X851350Y68700D02*
X859000D01*
X217680Y65160D02*
Y82510D01*
X203190Y97000D02*
X207970Y92220D01*
X213720Y86470D02*
X216720Y83470D01*
X303258Y53322D02*
X303322D01*
X825750Y121500D02*
Y124750D01*
X881000Y65500D02*
X882250Y64250D01*
X910750Y98250D02*
Y105250D01*
X1043290Y78650D02*
X1049790D01*
X1004290D02*
Y88310D01*
X207970Y92220D02*
X213220Y86970D01*
X204680Y88930D02*
X207970Y92220D01*
X185180Y108420D02*
Y120160D01*
Y108420D02*
X196250Y97350D01*
Y97000D02*
Y97350D01*
X495600Y103000D02*
X495600Y103000D01*
X486600Y128250D02*
Y128250D01*
X1030200Y48400D02*
X1043290Y35310D01*
Y23650D02*
Y35310D01*
X340500Y9250D02*
X344500D01*
X348500D01*
X1010790Y61300D02*
Y78650D01*
X871500Y86000D02*
X872100D01*
X871500Y75000D02*
Y86000D01*
X1026410Y51590D02*
X1029600Y48400D01*
X1032000Y46000D01*
X1024901Y48400D02*
X1029600D01*
X1030200D01*
X185180Y65160D02*
X191680D01*
X1036790Y78650D02*
X1043290D01*
X486600Y128250D02*
X490600Y132250D01*
X751600Y148000D02*
X751600Y148000D01*
X748000Y148000D02*
X749600D01*
X750000D01*
X751600D01*
X399250Y9157D02*
X399464Y8943D01*
X399250Y7000D02*
Y8750D01*
Y9157D01*
Y8750D02*
X399464Y8536D01*
X399000Y5000D02*
X403000D01*
X395000D02*
X399000D01*
X399464Y8536D02*
X403000Y5000D01*
X395000D02*
X398535Y8536D01*
X357750Y55250D02*
Y74665D01*
X363000Y43636D02*
Y50000D01*
X357750Y55250D02*
X363000Y50000D01*
Y43636D02*
X366818Y39818D01*
X368153Y38483D02*
X373446Y33190D01*
X506600Y132000D02*
X510600Y128000D01*
X510600Y128000D02*
X514600Y132000D01*
X887600Y36000D02*
Y46600D01*
X885600Y19000D02*
X887600Y21000D01*
X838000Y18000D02*
X839000Y19000D01*
X834000Y18000D02*
X838000D01*
X820000D02*
X822000D01*
X824000D01*
X858000Y44000D02*
X863000D01*
X839000Y19000D02*
X885600D01*
X909600Y33000D02*
Y43600D01*
X834000Y18000D02*
X835000Y19000D01*
X839000D01*
X344536Y13215D02*
Y13285D01*
X344500Y13250D02*
X344536Y13285D01*
X344500Y9250D02*
Y11000D01*
Y13250D01*
X340500Y9250D02*
X344500Y13250D01*
X344536Y13215D02*
X348500Y9250D01*
X587050Y172000D02*
X599000D01*
X604000Y167000D01*
X605600D01*
Y143600D02*
Y157000D01*
X373967Y33190D02*
X375407Y31750D01*
X375000D02*
X382250D01*
D72*
X32250Y99750D02*
X37000Y104500D01*
X910750Y119250D02*
X911750Y120250D01*
Y127000D01*
X185000Y133650D02*
X189000D01*
X193000D01*
X197000D01*
X911750Y127000D02*
X917750Y133000D01*
X925000D01*
X37000Y104500D02*
Y122000D01*
X48650Y133650D01*
X185000D01*
D73*
X702000Y146000D02*
Y208000D01*
X690000Y220000D02*
X702000Y208000D01*
X665000Y220000D02*
X690000D01*
X695000Y139000D02*
X702000Y146000D01*
X695000Y120400D02*
Y139000D01*
X687000Y112400D02*
X695000Y120400D01*
X687000Y100750D02*
Y112400D01*
X1190500Y65750D02*
Y67500D01*
X1194000D02*
Y67500D01*
X638600Y238500D02*
X646500D01*
X638300Y156700D02*
X645000Y150000D01*
X638300Y156700D02*
Y161000D01*
X645000Y133256D02*
Y150000D01*
Y133256D02*
X650256Y128000D01*
X657000D01*
X669000Y116000D01*
Y110750D02*
Y116000D01*
X650393Y164762D02*
X656524Y158631D01*
X647138Y164762D02*
X650393D01*
X649762Y163238D02*
X655000Y158000D01*
X627607Y163238D02*
X636062D01*
X628238Y164762D02*
X636062D01*
X607338Y187138D02*
X612862D01*
X619476Y171369D02*
X627607Y163238D01*
X621000Y172000D02*
X628238Y164762D01*
X666000Y191078D02*
X673974Y183104D01*
X672450Y133250D02*
Y182472D01*
X664922Y190000D02*
X672450Y182472D01*
X663000Y190000D02*
X664922D01*
X666000Y191078D02*
Y193000D01*
X679000Y197078D02*
X683974Y192104D01*
Y133474D02*
Y192104D01*
X677922Y196000D02*
X682450Y191472D01*
X676000Y196000D02*
X677922D01*
X679000Y197078D02*
Y199000D01*
X685000Y210078D02*
X693000Y202078D01*
Y148245D02*
Y202078D01*
X683922Y209000D02*
X691476Y201446D01*
Y148876D02*
Y201446D01*
X682000Y209000D02*
X683922D01*
X685000Y210078D02*
Y212000D01*
X687426Y144826D02*
X691476Y148876D01*
X688950Y144195D02*
X693000Y148245D01*
X658922Y177000D02*
X663476Y172446D01*
Y148124D02*
Y172446D01*
X660000Y178078D02*
X665000Y173078D01*
Y148755D02*
Y173078D01*
Y148755D02*
X669050Y144706D01*
X657000Y177000D02*
X658922D01*
X660000Y178078D02*
Y180000D01*
X663476Y148124D02*
X667526Y144074D01*
X1066000Y71000D02*
X1067238Y69762D01*
X691838Y46762D02*
X692310D01*
X695358D01*
X696120Y47524D01*
X697644D01*
X698406Y46762D01*
X701454D01*
X702216Y47524D01*
X703740D01*
X704502Y46762D01*
X707550D01*
X708312Y47524D01*
X709836D01*
X710598Y46762D01*
X713646D01*
X714408Y47524D01*
X715932D01*
X716694Y46762D01*
X719742D01*
X720504Y47524D01*
X722028D01*
X722790Y46762D01*
X725838D01*
X727362D01*
X681000Y57600D02*
X682139Y56461D01*
X684294Y54306D01*
X685372D01*
X686449Y53228D01*
Y52151D02*
Y53228D01*
Y52151D02*
X688605Y49995D01*
X689682D01*
X690760Y48918D01*
Y47840D02*
Y48918D01*
Y47840D02*
X691838Y46762D01*
X681000Y64000D02*
Y74750D01*
Y62172D02*
Y64000D01*
Y62172D02*
X681762Y61410D01*
Y59886D02*
Y61410D01*
X681000Y59124D02*
X681762Y59886D01*
X681000Y57600D02*
Y59124D01*
X1182512Y90238D02*
X1183500Y89250D01*
X718000Y100000D02*
X719600D01*
X715823D02*
X718000D01*
X715061Y99238D02*
X715823Y100000D01*
X713537Y99238D02*
X715061D01*
X712775Y100000D02*
X713537Y99238D01*
X709727Y100000D02*
X712775D01*
X708965Y99238D02*
X709727Y100000D01*
X707441Y99238D02*
X708965D01*
X706679Y100000D02*
X707441Y99238D01*
X705155Y100000D02*
X706679D01*
X703449Y98294D02*
X705155Y100000D01*
X701293Y96138D02*
X703449Y98294D01*
X701293Y95061D02*
Y96138D01*
X700216Y93983D02*
X701293Y95061D01*
X699138Y93983D02*
X700216D01*
X696983Y91828D02*
X699138Y93983D01*
X695905Y90750D02*
X696983Y91828D01*
X693000Y90750D02*
X695905D01*
X704524Y101524D02*
X718969D01*
X695274Y92274D02*
X704524Y101524D01*
X694305Y92274D02*
X695274D01*
X718969Y101524D02*
X721207Y103762D01*
X719600Y100000D02*
X721838Y102238D01*
X715600Y104000D02*
X725600Y114000D01*
X701000Y104000D02*
X715600D01*
X695750Y98750D02*
X701000Y104000D01*
X713600Y106000D02*
X724600Y117000D01*
X700000Y106000D02*
X713600D01*
X694750Y100750D02*
X700000Y106000D01*
X693000Y102750D02*
X698250Y108000D01*
X726000Y92738D02*
X727362D01*
X706893D02*
X707000D01*
X709236D01*
X709998Y91976D01*
X711522D01*
X712284Y92738D01*
X715332D01*
X716094Y91976D01*
X717618D01*
X718380Y92738D01*
X721428D01*
X722190Y91976D01*
X723714D01*
X724476Y92738D01*
X726000D01*
X700905Y86750D02*
X706893Y92738D01*
X693000Y86750D02*
X700905D01*
X706262Y94262D02*
X727362D01*
X700274Y88274D02*
X706262Y94262D01*
X694305Y88274D02*
X700274D01*
X720476Y81476D02*
X722238Y83238D01*
X720229Y81476D02*
X720476D01*
X717181D02*
X720229D01*
X716419Y80714D02*
X717181Y81476D01*
X714895Y80714D02*
X716419D01*
X714133Y81476D02*
X714895Y80714D01*
X711085Y81476D02*
X714133D01*
X710323Y80714D02*
X711085Y81476D01*
X708799Y80714D02*
X710323D01*
X708037Y81476D02*
X708799Y80714D01*
X704989Y81476D02*
X708037D01*
X704227Y80714D02*
X704989Y81476D01*
X702703Y80714D02*
X704227D01*
X701941Y81476D02*
X702703Y80714D01*
X698893Y81476D02*
X701941D01*
X697369D02*
X698893D01*
X696095Y82750D02*
X697369Y81476D01*
X693000Y82750D02*
X696095D01*
X719845Y83000D02*
X721607Y84762D01*
X698000Y83000D02*
X719845D01*
X722238Y83238D02*
X727362D01*
X696726Y84274D02*
X698000Y83000D01*
X694305Y84274D02*
X696726D01*
X721607Y84762D02*
X727362D01*
X697243Y77512D02*
X699493Y75262D01*
X694238Y77512D02*
X697243D01*
X699493Y75262D02*
X727362D01*
X694238Y75988D02*
X696612D01*
X698862Y73738D01*
X699000D01*
X724000D02*
X727362D01*
X699000D02*
X701140D01*
X701902Y72976D01*
X703426D01*
X704188Y73738D01*
X707236D01*
X707998Y72976D01*
X709522D01*
X710284Y73738D01*
X713332D01*
X714094Y72976D01*
X715618D01*
X716380Y73738D01*
X719428D01*
X720190Y72976D01*
X721714D01*
X722476Y73738D01*
X724000D01*
X688976Y71024D02*
Y74726D01*
X694364Y65636D02*
X695762Y64238D01*
X693287Y65636D02*
X694364D01*
X692209Y66713D02*
X693287Y65636D01*
X692209Y66713D02*
Y67791D01*
X690054Y69946D02*
X692209Y67791D01*
X688976Y71024D02*
X690054Y69946D01*
X723000Y64238D02*
X727362D01*
X721670D02*
X723000D01*
X720908Y63476D02*
X721670Y64238D01*
X719384Y63476D02*
X720908D01*
X718622Y64238D02*
X719384Y63476D01*
X715574Y64238D02*
X718622D01*
X714812Y63476D02*
X715574Y64238D01*
X713288Y63476D02*
X714812D01*
X712526Y64238D02*
X713288Y63476D01*
X709478Y64238D02*
X712526D01*
X708716Y63476D02*
X709478Y64238D01*
X707192Y63476D02*
X708716D01*
X706430Y64238D02*
X707192Y63476D01*
X703382Y64238D02*
X706430D01*
X702620Y63476D02*
X703382Y64238D01*
X701096Y63476D02*
X702620D01*
X700334Y64238D02*
X701096Y63476D01*
X697286Y64238D02*
X700334D01*
X695762D02*
X697286D01*
X696393Y65762D02*
X727362D01*
X690500Y71655D02*
X696393Y65762D01*
X690500Y71655D02*
Y73250D01*
X685000Y66155D02*
Y74750D01*
X694699Y56456D02*
X694893Y56262D01*
X692543Y58612D02*
X694699Y56456D01*
X692543Y58612D02*
Y59689D01*
X691466Y60767D02*
X692543Y59689D01*
X690388Y60767D02*
X691466D01*
X688233Y62922D02*
X690388Y60767D01*
X688233Y62922D02*
Y64000D01*
X687155Y65078D02*
X688233Y64000D01*
X686078Y65078D02*
X687155D01*
X685000Y66155D02*
X686078Y65078D01*
X726897Y56262D02*
X727362D01*
X723849D02*
X726897D01*
X723087Y57024D02*
X723849Y56262D01*
X721563Y57024D02*
X723087D01*
X720801Y56262D02*
X721563Y57024D01*
X717753Y56262D02*
X720801D01*
X716991Y57024D02*
X717753Y56262D01*
X715467Y57024D02*
X716991D01*
X714705Y56262D02*
X715467Y57024D01*
X711657Y56262D02*
X714705D01*
X710895Y57024D02*
X711657Y56262D01*
X709371Y57024D02*
X710895D01*
X708609Y56262D02*
X709371Y57024D01*
X705561Y56262D02*
X708609D01*
X704799Y57024D02*
X705561Y56262D01*
X703275Y57024D02*
X704799D01*
X702513Y56262D02*
X703275Y57024D01*
X699465Y56262D02*
X702513D01*
X698703Y57024D02*
X699465Y56262D01*
X697179Y57024D02*
X698703D01*
X696417Y56262D02*
X697179Y57024D01*
X694893Y56262D02*
X696417D01*
X694261Y54738D02*
X727362D01*
X683476Y65524D02*
X694261Y54738D01*
X683476Y65524D02*
Y73446D01*
X677000Y53000D02*
Y74750D01*
Y50600D02*
Y51476D01*
Y53000D01*
X688854Y38746D02*
X690338Y37263D01*
X688854Y38746D02*
Y39824D01*
X687776Y40901D02*
X688854Y39824D01*
X686699Y40901D02*
X687776D01*
X684544Y43057D02*
X686699Y40901D01*
X684544Y43057D02*
Y44134D01*
X683466Y45212D02*
X684544Y44134D01*
X682388Y45212D02*
X683466D01*
X680233Y47367D02*
X682388Y45212D01*
X680233Y47367D02*
Y48445D01*
X679155Y49522D02*
X680233Y48445D01*
X678078Y49522D02*
X679155D01*
X677000Y50600D02*
X678078Y49522D01*
X723000Y37263D02*
X727362D01*
X722342D02*
X723000D01*
X721580Y38025D02*
X722342Y37263D01*
X720055Y38025D02*
X721580D01*
X719294Y37263D02*
X720055Y38025D01*
X716245Y37263D02*
X719294D01*
X715483Y38025D02*
X716245Y37263D01*
X713960Y38025D02*
X715483D01*
X713197Y37263D02*
X713960Y38025D01*
X710150Y37263D02*
X713197D01*
X709388Y38025D02*
X710150Y37263D01*
X707863Y38025D02*
X709388D01*
X707102Y37263D02*
X707863Y38025D01*
X704053Y37263D02*
X707102D01*
X703291Y38025D02*
X704053Y37263D01*
X701768Y38025D02*
X703291D01*
X701005Y37263D02*
X701768Y38025D01*
X697958Y37263D02*
X701005D01*
X697196Y38025D02*
X697958Y37263D01*
X695671Y38025D02*
X697196D01*
X694910Y37263D02*
X695671Y38025D01*
X691861Y37263D02*
X694910D01*
X690338D02*
X691861D01*
X669000Y41000D02*
Y74750D01*
Y32600D02*
Y33380D01*
Y36428D01*
X669762Y37190D01*
Y38714D01*
X669000Y39476D02*
X669762Y38714D01*
X669000Y39476D02*
Y41000D01*
X680854Y20746D02*
X682838Y18762D01*
X680854Y20746D02*
Y21824D01*
X679776Y22901D02*
X680854Y21824D01*
X678699Y22901D02*
X679776D01*
X676544Y25057D02*
X678699Y22901D01*
X676544Y25057D02*
Y26134D01*
X675466Y27212D02*
X676544Y26134D01*
X674388Y27212D02*
X675466D01*
X672233Y29367D02*
X674388Y27212D01*
X672233Y29367D02*
Y30445D01*
X671155Y31522D02*
X672233Y30445D01*
X670078Y31522D02*
X671155D01*
X669000Y32600D02*
X670078Y31522D01*
X710000Y18762D02*
X727362D01*
X708746D02*
X710000D01*
X707984Y19524D02*
X708746Y18762D01*
X706460Y19524D02*
X707984D01*
X705698Y18762D02*
X706460Y19524D01*
X702650Y18762D02*
X705698D01*
X701888Y19524D02*
X702650Y18762D01*
X700364Y19524D02*
X701888D01*
X699602Y18762D02*
X700364Y19524D01*
X696554Y18762D02*
X699602D01*
X695792Y19524D02*
X696554Y18762D01*
X694268Y19524D02*
X695792D01*
X693506Y18762D02*
X694268Y19524D01*
X690458Y18762D02*
X693506D01*
X689696Y19524D02*
X690458Y18762D01*
X688172Y19524D02*
X689696D01*
X687410Y18762D02*
X688172Y19524D01*
X684362Y18762D02*
X687410D01*
X682838D02*
X684362D01*
X725000Y27762D02*
X727362D01*
X687838D02*
X689948D01*
X692996D01*
X693758Y28524D01*
X695282D01*
X696044Y27762D01*
X699092D01*
X699854Y28524D01*
X701378D01*
X702140Y27762D01*
X705188D01*
X705950Y28524D01*
X707474D01*
X708236Y27762D01*
X711284D01*
X712046Y28524D01*
X713570D01*
X714332Y27762D01*
X717380D01*
X718142Y28524D01*
X719666D01*
X720428Y27762D01*
X723476D01*
X725000D01*
X673000Y42600D02*
X673600Y42000D01*
X673829Y41771D01*
X675984Y39616D01*
X677062D01*
X678139Y38538D01*
Y37461D02*
Y38538D01*
Y37461D02*
X680295Y35306D01*
X681372D01*
X682450Y34228D01*
Y33150D02*
Y34228D01*
Y33150D02*
X684605Y30995D01*
X685683D01*
X686760Y29917D01*
Y28840D02*
Y29917D01*
Y28840D02*
X687838Y27762D01*
X693000Y98750D02*
X695750D01*
X691000Y100750D02*
X694750D01*
X1066000Y67000D02*
X1067238Y68238D01*
X727362Y54738D02*
X728600Y53500D01*
X727362Y56262D02*
X728600Y57501D01*
X655000Y142762D02*
Y158000D01*
X656524Y142131D02*
Y158631D01*
X647138Y163238D02*
X649762D01*
X653631Y139238D02*
X656524Y142131D01*
X650838Y139238D02*
X653631D01*
X653000Y140762D02*
X655000Y142762D01*
X649600Y138000D02*
X650838Y139238D01*
Y140762D02*
X653000D01*
X649600Y142000D02*
X650838Y140762D01*
X603000Y113000D02*
X604238Y111762D01*
X603000Y109000D02*
X604238Y110238D01*
X597238Y100762D02*
X607607D01*
X597238Y99238D02*
X608238D01*
X61013Y95238D02*
Y102857D01*
X597238Y78762D02*
X607762D01*
X597238Y77238D02*
X608393D01*
X607607Y100762D02*
X612845Y106000D01*
X596000Y98000D02*
X597238Y99238D01*
X596000Y102000D02*
X597238Y100762D01*
X646717Y76717D02*
X648000Y78000D01*
X645711Y76717D02*
X646717D01*
X644562Y75568D02*
X645711Y76717D01*
X644562Y74562D02*
Y75568D01*
X642407Y72407D02*
X644562Y74562D01*
X641401Y72407D02*
X642407D01*
X640251Y71257D02*
X641401Y72407D01*
X640251Y70251D02*
Y71257D01*
X638096Y68096D02*
X640251Y70251D01*
X637090Y68096D02*
X638096D01*
X635941Y66947D02*
X637090Y68096D01*
X635941Y65941D02*
Y66947D01*
X633786Y63786D02*
X635941Y65941D01*
X632780Y63786D02*
X633786D01*
X631630Y62636D02*
X632780Y63786D01*
X631630Y61630D02*
Y62636D01*
X629475Y59475D02*
X631630Y61630D01*
X628469Y59475D02*
X629475D01*
X627320Y58326D02*
X628469Y59475D01*
X627320Y57320D02*
Y58326D01*
X625164Y55164D02*
X627320Y57320D01*
X624159Y55164D02*
X625164D01*
X623009Y54015D02*
X624159Y55164D01*
X623009Y53009D02*
Y54015D01*
X620854Y50854D02*
X623009Y53009D01*
X619848Y50854D02*
X620854D01*
X618699Y49704D02*
X619848Y50854D01*
X618699Y48699D02*
Y49704D01*
X616543Y46543D02*
X618699Y48699D01*
X615538Y46543D02*
X616543D01*
X614388Y45394D02*
X615538Y46543D01*
X614388Y44388D02*
Y45394D01*
X612233Y42233D02*
X614388Y44388D01*
X611227Y42233D02*
X612233D01*
X610078Y41083D02*
X611227Y42233D01*
X610078Y40078D02*
Y41083D01*
X609000Y39000D02*
X610078Y40078D01*
X608524Y38524D02*
X609000Y39000D01*
X657018Y69096D02*
X658000Y70078D01*
X655941Y69096D02*
X657018D01*
X654863Y68018D02*
X655941Y69096D01*
X654863Y66941D02*
Y68018D01*
X652708Y64785D02*
X654863Y66941D01*
X651630Y64785D02*
X652708D01*
X650553Y63708D02*
X651630Y64785D01*
X650553Y62630D02*
Y63708D01*
X648397Y60475D02*
X650553Y62630D01*
X647320Y60475D02*
X648397D01*
X646242Y59397D02*
X647320Y60475D01*
X646242Y58320D02*
Y59397D01*
X644087Y56164D02*
X646242Y58320D01*
X643009Y56164D02*
X644087D01*
X641932Y55087D02*
X643009Y56164D01*
X641932Y54009D02*
Y55087D01*
X639776Y51854D02*
X641932Y54009D01*
X638699Y51854D02*
X639776D01*
X637621Y50776D02*
X638699Y51854D01*
X637621Y49699D02*
Y50776D01*
X635466Y47543D02*
X637621Y49699D01*
X634388Y47543D02*
X635466D01*
X633311Y46466D02*
X634388Y47543D01*
X633311Y45388D02*
Y46466D01*
X631155Y43233D02*
X633311Y45388D01*
X630078Y43233D02*
X631155D01*
X629000Y42155D02*
X630078Y43233D01*
X629000Y41078D02*
Y42155D01*
X627922Y40000D02*
X629000Y41078D01*
X625922Y38000D02*
X627922Y40000D01*
X630000Y90000D02*
X630750Y90750D01*
X606762Y66762D02*
X613000Y73000D01*
X629165Y89164D02*
X630000Y90000D01*
X628087Y89164D02*
X629165D01*
X627009Y88087D02*
X628087Y89164D01*
X627009Y87009D02*
Y88087D01*
X624854Y84854D02*
X627009Y87009D01*
X623776Y84854D02*
X624854D01*
X622699Y83776D02*
X623776Y84854D01*
X622699Y82699D02*
Y83776D01*
X620543Y80543D02*
X622699Y82699D01*
X619466Y80543D02*
X620543D01*
X618388Y79466D02*
X619466Y80543D01*
X618388Y78388D02*
Y79466D01*
X616233Y76233D02*
X618388Y78388D01*
X615155Y76233D02*
X616233D01*
X614078Y75155D02*
X615155Y76233D01*
X614078Y74078D02*
Y75155D01*
X613000Y73000D02*
X614078Y74078D01*
X647000Y94750D02*
X657000D01*
X623750D02*
X624140D01*
X627188D01*
X627950Y95512D01*
X629474D01*
X630236Y94750D01*
X633284D01*
X634046Y95512D01*
X635570D01*
X636332Y94750D01*
X639380D01*
X640142Y95512D01*
X641666D01*
X642428Y94750D01*
X645476D01*
X647000D01*
X607762Y78762D02*
X620000Y91000D01*
X620517Y91517D01*
Y92595D01*
X621595Y93673D01*
X622673D01*
X623750Y94750D01*
X642000Y100524D02*
X642631D01*
X640384D02*
X642000D01*
X639622Y101286D02*
X640384Y100524D01*
X638098Y101286D02*
X639622D01*
X637336Y100524D02*
X638098Y101286D01*
X634288Y100524D02*
X637336D01*
X633526Y101286D02*
X634288Y100524D01*
X632002Y101286D02*
X633526D01*
X631240Y100524D02*
X632002Y101286D01*
X628192Y100524D02*
X631240D01*
X627430Y101286D02*
X628192Y100524D01*
X625906Y101286D02*
X627430D01*
X625144Y100524D02*
X625906Y101286D01*
X622096Y100524D02*
X625144D01*
X621334Y101286D02*
X622096Y100524D01*
X619810Y101286D02*
X621334D01*
X619048Y100524D02*
X619810Y101286D01*
X617524Y100524D02*
X619048D01*
X606762Y89762D02*
X616000Y99000D01*
X617078Y100078D02*
X617524Y100524D01*
X616000Y99000D02*
X617078Y100078D01*
X618155Y99000D02*
X642000D01*
X607393Y88238D02*
X618155Y99000D01*
X604238Y88238D02*
X607393D01*
X604238Y89762D02*
X606762D01*
X644405Y98750D02*
X657000D01*
X642631Y100524D02*
X644405Y98750D01*
X643774Y97226D02*
X655696D01*
X642000Y99000D02*
X643774Y97226D01*
X646155Y106000D02*
X649405Y102750D01*
X612845Y106000D02*
X621000D01*
X643860D02*
X646155D01*
X643098Y106762D02*
X643860Y106000D01*
X641574Y106762D02*
X643098D01*
X640812Y106000D02*
X641574Y106762D01*
X637764Y106000D02*
X640812D01*
X637002Y106762D02*
X637764Y106000D01*
X635478Y106762D02*
X637002D01*
X634716Y106000D02*
X635478Y106762D01*
X631668Y106000D02*
X634716D01*
X630906Y106762D02*
X631668Y106000D01*
X629382Y106762D02*
X630906D01*
X628620Y106000D02*
X629382Y106762D01*
X625572Y106000D02*
X628620D01*
X624810Y106762D02*
X625572Y106000D01*
X623286Y106762D02*
X624810D01*
X622524Y106000D02*
X623286Y106762D01*
X621000Y106000D02*
X622524D01*
X649238Y111762D02*
X654250Y106750D01*
X604238Y111762D02*
X621000D01*
X623330D01*
X624092Y112524D01*
X625616D01*
X626378Y111762D01*
X629426D01*
X630188Y112524D01*
X631712D01*
X632474Y111762D01*
X635522D01*
X636284Y112524D01*
X637808D01*
X638570Y111762D01*
X641618D01*
X642380Y112524D01*
X643904D01*
X644666Y111762D01*
X647714D01*
X649238D01*
X655696Y97226D02*
X656172Y96750D01*
X659000Y100750D02*
X661000Y102750D01*
X656172Y100750D02*
X659000D01*
X655696Y101226D02*
X656172Y100750D01*
X648774Y101226D02*
X655696D01*
X645524Y104476D02*
X648774Y101226D01*
X659000Y104750D02*
X661000Y106750D01*
X656172Y104750D02*
X659000D01*
X649405Y102750D02*
X657000D01*
X613476Y104476D02*
X645524D01*
X608238Y99238D02*
X613476Y104476D01*
X655696Y93226D02*
X656172Y92750D01*
X624381Y93226D02*
X655696D01*
X608393Y77238D02*
X624381Y93226D01*
X648607Y110238D02*
X653619Y105226D01*
X604238Y110238D02*
X648607D01*
X653619Y105226D02*
X655696D01*
X654250Y106750D02*
X657000D01*
X655696Y105226D02*
X656172Y104750D01*
X691000Y92750D02*
X693829D01*
X689000Y90750D02*
X691000Y92750D01*
X693829D02*
X694305Y92274D01*
X689000Y102750D02*
X691000Y100750D01*
X683000Y76750D02*
X685000Y78750D01*
X683000Y73922D02*
Y76750D01*
X663000D02*
X665000Y78750D01*
X663440Y62440D02*
Y73482D01*
X663000Y73922D02*
X663440Y73482D01*
X663000Y73922D02*
Y76750D01*
X671000D02*
X673000Y78750D01*
X671440Y42005D02*
Y73482D01*
X671000Y73922D02*
X671440Y73482D01*
X671000Y73922D02*
Y76750D01*
X683000Y73922D02*
X683476Y73446D01*
X675476Y49969D02*
Y73446D01*
X675000Y73922D02*
X675476Y73446D01*
X675000Y73922D02*
Y76750D01*
X679476Y56969D02*
Y73446D01*
X679000Y73922D02*
X679476Y73446D01*
X679000Y73922D02*
Y76750D01*
X667000Y73425D02*
X667440Y72985D01*
X667000Y73425D02*
Y76750D01*
X667440Y32005D02*
Y72985D01*
X648750Y78750D02*
X657000D01*
X648000Y78000D02*
X648750Y78750D01*
X659000Y96750D02*
X661000Y98750D01*
X656172Y96750D02*
X659000D01*
X658000Y70078D02*
X658238Y70316D01*
X579446Y54524D02*
X583000D01*
X553922Y29000D02*
X562922Y38000D01*
X565437Y40515D01*
Y41592D01*
X566515Y42670D01*
X567592D01*
X569748Y44825D01*
Y45903D01*
X570825Y46981D01*
X571903D01*
X574058Y49136D01*
Y50213D01*
X575136Y51291D01*
X576213D01*
X578369Y53446D01*
X579446Y54524D01*
X636000Y86000D02*
X636750Y86750D01*
X604524Y54524D02*
X607000Y57000D01*
X609059Y59059D01*
Y60137D01*
X610137Y61214D01*
X611214D01*
X613370Y63370D01*
Y64447D01*
X614447Y65525D01*
X615525D01*
X617680Y67680D01*
Y68758D01*
X618758Y69836D01*
X619836D01*
X621991Y71991D01*
Y73068D01*
X623068Y74146D01*
X624146D01*
X626301Y76301D01*
Y77379D01*
X627379Y78457D01*
X628457D01*
X630612Y80612D01*
Y81689D01*
X631689Y82767D01*
X632767D01*
X634922Y84922D01*
X636000Y86000D01*
X602000Y54524D02*
X604524D01*
X599764D02*
X602000D01*
X599002Y55286D02*
X599764Y54524D01*
X597478Y55286D02*
X599002D01*
X596716Y54524D02*
X597478Y55286D01*
X593668Y54524D02*
X596716D01*
X592906Y55286D02*
X593668Y54524D01*
X591382Y55286D02*
X592906D01*
X590620Y54524D02*
X591382Y55286D01*
X587572Y54524D02*
X590620D01*
X586810Y55286D02*
X587572Y54524D01*
X585286Y55286D02*
X586810D01*
X584524Y54524D02*
X585286Y55286D01*
X583000Y54524D02*
X584524D01*
X605446Y38524D02*
X608524D01*
X609155Y37000D02*
X649381Y77226D01*
X655696D01*
X606000Y47000D02*
X607000D01*
X592922D02*
X594000D01*
X604668D02*
X606000D01*
X603906Y47762D02*
X604668Y47000D01*
X602382Y47762D02*
X603906D01*
X601620Y47000D02*
X602382Y47762D01*
X598572Y47000D02*
X601620D01*
X597810Y47762D02*
X598572Y47000D01*
X596286Y47762D02*
X597810D01*
X595524Y47000D02*
X596286Y47762D01*
X594000Y47000D02*
X595524D01*
X644274Y82750D02*
X657000D01*
X643000D02*
X644274D01*
X607000Y47000D02*
X608000Y48000D01*
X641407Y81407D02*
X642750Y82750D01*
X640329Y81407D02*
X641407D01*
X639251Y80329D02*
X640329Y81407D01*
X639251Y79251D02*
Y80329D01*
X637096Y77096D02*
X639251Y79251D01*
X636018Y77096D02*
X637096D01*
X634941Y76018D02*
X636018Y77096D01*
X634941Y74941D02*
Y76018D01*
X632785Y72786D02*
X634941Y74941D01*
X631708Y72786D02*
X632785D01*
X630630Y71708D02*
X631708Y72786D01*
X630630Y70630D02*
Y71708D01*
X628475Y68475D02*
X630630Y70630D01*
X627397Y68475D02*
X628475D01*
X626320Y67397D02*
X627397Y68475D01*
X626320Y66320D02*
Y67397D01*
X624165Y64165D02*
X626320Y66320D01*
X623087Y64165D02*
X624165D01*
X622009Y63087D02*
X623087Y64165D01*
X622009Y62009D02*
Y63087D01*
X619854Y59854D02*
X622009Y62009D01*
X618776Y59854D02*
X619854D01*
X617699Y58776D02*
X618776Y59854D01*
X617699Y57699D02*
Y58776D01*
X615543Y55543D02*
X617699Y57699D01*
X614466Y55543D02*
X615543D01*
X613388Y54466D02*
X614466Y55543D01*
X613388Y53388D02*
Y54466D01*
X611233Y51233D02*
X613388Y53388D01*
X610155Y51233D02*
X611233D01*
X609078Y50155D02*
X610155Y51233D01*
X609078Y49078D02*
Y50155D01*
X608000Y48000D02*
X609078Y49078D01*
X607631Y45476D02*
X643381Y81226D01*
X656172Y80750D02*
X659000D01*
X655696Y81226D02*
X656172Y80750D01*
X643381Y81226D02*
X655696D01*
X659000Y84750D02*
X661000Y86750D01*
X656172Y84750D02*
X659000D01*
X655696Y85226D02*
X656172Y84750D01*
X637381Y85226D02*
X655696D01*
X656172Y76750D02*
X659000D01*
X655696Y77226D02*
X656172Y76750D01*
X605155Y53000D02*
X637381Y85226D01*
X580078Y53000D02*
X605155D01*
X636750Y86750D02*
X657000D01*
X593554Y45476D02*
X607631D01*
X555000Y27922D02*
X580078Y53000D01*
X552000Y29000D02*
X553922D01*
X658485Y55330D02*
X665000Y61845D01*
X579000Y30922D02*
X593554Y45476D01*
X577922Y32000D02*
X592922Y47000D01*
X631381Y89226D02*
X655696D01*
X607393Y65238D02*
X631381Y89226D01*
X604238Y65238D02*
X607393D01*
X630750Y90750D02*
X657000D01*
X604238Y66762D02*
X606762D01*
X603000Y68000D02*
X604238Y66762D01*
X596000Y80000D02*
X597238Y78762D01*
X603000Y91000D02*
X604238Y89762D01*
X603000Y87000D02*
X604238Y88238D01*
X601922Y35000D02*
X605446Y38524D01*
X606078Y37000D02*
X609155D01*
X603000Y33922D02*
X606078Y37000D01*
X627000Y36922D02*
X659762Y69685D01*
Y73512D01*
X658238Y70316D02*
Y73512D01*
X627000Y35000D02*
Y36922D01*
X624000Y38000D02*
X625922D01*
X603000Y32000D02*
Y33922D01*
X600000Y35000D02*
X601922D01*
X579000Y29000D02*
Y30922D01*
X576000Y32000D02*
X577922D01*
X555000Y26000D02*
Y27922D01*
X596000Y76000D02*
X597238Y77238D01*
X603000Y64000D02*
X604238Y65238D01*
X665000Y61845D02*
Y74750D01*
X658485Y47408D02*
Y55330D01*
X656961Y55961D02*
X663440Y62440D01*
X656961Y48039D02*
Y55961D01*
X651000Y39922D02*
X658485Y47408D01*
X649922Y41000D02*
X656961Y48039D01*
X651000Y38000D02*
Y39922D01*
X648000Y41000D02*
X649922D01*
X58500Y94250D02*
X59489Y95238D01*
X61013Y95238D02*
X62000Y94250D01*
X59489Y95238D02*
X59489Y95238D01*
X61013Y95238D02*
X61013Y95238D01*
X89751Y99500D02*
X90989Y98262D01*
X93631Y99500D02*
X93751D01*
X92513Y98262D02*
X93751Y99500D01*
X71512Y98262D02*
X72751Y99500D01*
X68751D02*
X69989Y98262D01*
X68751Y99500D02*
X68870D01*
X72631D02*
X72751D01*
X82013Y95238D02*
Y98262D01*
X79251Y99500D02*
X80489Y98262D01*
X90000Y94250D02*
X90989Y95238D01*
Y98262D01*
X71512Y95238D02*
Y98262D01*
X90000Y70750D02*
X90989Y69762D01*
X673000Y42600D02*
Y74750D01*
X667440Y32005D02*
X682207Y17238D01*
X727362D01*
X727362Y84762D02*
X728600Y86000D01*
X727362Y83238D02*
X728600Y82000D01*
X727362Y92738D02*
X728600Y91500D01*
X727362Y94262D02*
X728600Y95500D01*
X727362Y102238D02*
X728600Y101000D01*
X671440Y42005D02*
X687207Y26238D01*
X727362D01*
X728600Y25000D01*
X727362Y18762D02*
X728600Y20000D01*
X727362Y17238D02*
X728600Y16000D01*
X689706Y35739D02*
X727362D01*
X675476Y49969D02*
X689706Y35739D01*
X727362D02*
X728600Y34501D01*
X679476Y56969D02*
X691206Y45238D01*
X727362D01*
X727362Y37263D02*
X728600Y38501D01*
X727362Y27762D02*
X728600Y29000D01*
X727362Y45238D02*
X728600Y44001D01*
X721207Y103762D02*
X727362D01*
X721838Y102238D02*
X727362D01*
Y103762D02*
X728600Y105000D01*
X659000Y76750D02*
X661000Y78750D01*
X693829Y88750D02*
X694305Y88274D01*
X691000Y88750D02*
X693829D01*
Y84750D02*
X694305Y84274D01*
X691000Y84750D02*
X693829D01*
X688976Y74726D02*
X689000Y74750D01*
X689000Y74750D02*
X689000Y74750D01*
X690500Y73250D02*
X691000Y73750D01*
X656172Y88750D02*
X659000D01*
X655696Y89226D02*
X656172Y88750D01*
X636062Y163238D02*
X638300Y161000D01*
X636062Y164762D02*
X638300Y167000D01*
X644900Y161000D02*
X647138Y163238D01*
X644900Y167000D02*
X647138Y164762D01*
X724600Y117000D02*
X728600D01*
X664600Y116000D02*
X667000Y113600D01*
X601862Y187138D02*
X604600Y184400D01*
X667526Y133319D02*
Y144074D01*
X688950Y133295D02*
Y144195D01*
X687026Y121431D02*
Y133526D01*
X687426Y133926D01*
X660600Y116000D02*
X663000Y113600D01*
X660600Y115400D02*
Y116000D01*
X663000Y108750D02*
Y113600D01*
X604600Y184400D02*
X607338Y187138D01*
X604600Y191400D02*
X607338Y188662D01*
X601862D02*
X604600Y191400D01*
X1190500Y67500D02*
Y67500D01*
X1183500Y65750D02*
Y67500D01*
X1180000D02*
Y67500D01*
X1190500Y87500D02*
Y89250D01*
X1180000Y87500D02*
Y89250D01*
X1183500Y87500D02*
Y89250D01*
X727362Y75262D02*
X728600Y76500D01*
X727362Y73738D02*
X728600Y72500D01*
X727362Y65762D02*
X728600Y67000D01*
X659000Y80750D02*
X661000Y82750D01*
X659000Y92750D02*
X661000Y94750D01*
X656172Y92750D02*
X659000D01*
X659762Y73512D02*
X661000Y74750D01*
X657000D02*
X658238Y73512D01*
X667000Y76750D02*
X669000Y78750D01*
X689000Y86750D02*
X691000Y88750D01*
X675000Y108750D02*
X677000Y106750D01*
X675000Y76750D02*
X677000Y78750D01*
X675000Y108750D02*
Y111750D01*
X675476Y112226D01*
X674347Y123403D02*
X677000Y120750D01*
X672823Y122772D02*
X675476Y120119D01*
X671000Y108750D02*
X673000Y106750D01*
X667000Y108750D02*
X669000Y106750D01*
X663000Y108750D02*
X665000Y106750D01*
X674347Y123403D02*
Y133509D01*
X669450Y121705D02*
Y133550D01*
X683000Y108750D02*
X685000Y106750D01*
X679000Y108750D02*
X681000Y106750D01*
X681950Y123355D02*
Y133605D01*
X659000Y88750D02*
X661000Y90750D01*
X665000Y98750D02*
Y98750D01*
Y94750D02*
Y94750D01*
X673000Y110750D02*
Y118155D01*
X671000Y108750D02*
Y111750D01*
X671476Y112226D01*
Y117524D01*
X667926Y121074D02*
X671476Y117524D01*
X669450Y121705D02*
X673000Y118155D01*
X667000Y108750D02*
Y113600D01*
X667526Y133319D02*
X667926Y132919D01*
X673974Y133881D02*
X674347Y133509D01*
X672450Y133250D02*
X672823Y132877D01*
X669050Y133950D02*
X669450Y133550D01*
X685000Y74750D02*
X685000Y74750D01*
X691000Y73750D02*
Y76750D01*
X689000Y78750D02*
X691000Y76750D01*
X679000Y76750D02*
X681000Y78750D01*
X689000Y82750D02*
X691000Y84750D01*
X693000Y78750D02*
X694238Y77512D01*
X693000Y74750D02*
X694238Y75988D01*
X693000Y106750D02*
X693000D01*
X679476Y120881D02*
X681950Y123355D01*
X675476Y112226D02*
Y120119D01*
X677000Y110750D02*
Y120750D01*
X679476Y112226D02*
Y120881D01*
X681000Y110750D02*
Y120250D01*
X683476Y112226D02*
Y117881D01*
X685000Y110750D02*
Y117250D01*
X683000Y108750D02*
Y111750D01*
X683476Y112226D01*
X679000Y111750D02*
X679476Y112226D01*
X679000Y108750D02*
Y111750D01*
X683476Y117881D02*
X687026Y121431D01*
X685000Y117250D02*
X688550Y120800D01*
X681000Y120250D02*
X683474Y122724D01*
X688550Y132895D02*
X688950Y133295D01*
X681950Y133605D02*
X682450Y134105D01*
X683474Y132974D02*
X683974Y133474D01*
X80489Y95238D02*
Y98262D01*
X79500Y94250D02*
X80489Y95238D01*
X82013Y95238D02*
X83000Y94250D01*
X69989Y95238D02*
Y98262D01*
X69001Y94250D02*
X69989Y95238D01*
X71512Y95238D02*
X72501Y94250D01*
X93500Y70750D02*
Y72500D01*
X90000Y70750D02*
Y72500D01*
X83000Y70750D02*
Y72500D01*
X79500Y70750D02*
Y72500D01*
X1201000Y87500D02*
Y89250D01*
X1211500Y87500D02*
Y89250D01*
X1222988Y90238D02*
Y93262D01*
X1222000Y89250D02*
X1222988Y90238D01*
X1222000Y87500D02*
Y89250D01*
X1224512Y90238D02*
X1225500Y89250D01*
Y87500D02*
Y89250D01*
X1203512Y61738D02*
Y64762D01*
X1204500Y65750D01*
X1201988Y61739D02*
Y64762D01*
X1204500Y65750D02*
Y67500D01*
X1201000Y65750D02*
X1201988Y64762D01*
X1201000Y65750D02*
Y67500D01*
X1214012Y61738D02*
Y64762D01*
X1215000Y65750D01*
X1212488Y61739D02*
Y64762D01*
X1215000Y65750D02*
Y67500D01*
X1214012Y61738D02*
X1215250Y60500D01*
X1211250D02*
X1212488Y61739D01*
X1215130Y60500D02*
X1215250D01*
X1211250D02*
X1211369D01*
X1211500Y65750D02*
X1212488Y64762D01*
X1211500Y65750D02*
Y67500D01*
X1224512Y61738D02*
Y64762D01*
X1225500Y65750D01*
X1222988Y61739D02*
Y64762D01*
X1225500Y65750D02*
Y67500D01*
X1224512Y61738D02*
X1225750Y60500D01*
X1221750D02*
X1222988Y61739D01*
X1225630Y60500D02*
X1225750D01*
X1221750D02*
X1221869D01*
X1222000Y65750D02*
X1222988Y64762D01*
X1222000Y65750D02*
Y67500D01*
X1224512Y90238D02*
Y93262D01*
X1225750Y94500D01*
X1225630D02*
X1225750D01*
X92512Y69762D02*
X93500Y70750D01*
X727362Y64238D02*
X728600Y63000D01*
X727362Y46762D02*
X728600Y48000D01*
X90000Y92500D02*
Y94250D01*
X72501Y92500D02*
Y94250D01*
X62000Y92500D02*
Y94250D01*
X58500Y92500D02*
Y94250D01*
X79500Y92500D02*
Y94250D01*
X83000Y92500D02*
Y94250D01*
X69001Y92500D02*
Y94250D01*
X687000Y100750D02*
X689000Y98750D01*
X724600Y120000D02*
X725000D01*
X698250Y108000D02*
X712600D01*
X724600Y120000D01*
X103000Y55078D02*
Y57000D01*
X104078Y54000D02*
X106000D01*
X100922Y53000D02*
X103000Y55078D01*
X97000Y53000D02*
X100922D01*
X101554Y51476D02*
X104078Y54000D01*
X96369Y51476D02*
X101554D01*
X92512Y57488D02*
X97000Y53000D01*
X92512Y57488D02*
Y69762D01*
X90989Y56856D02*
X96369Y51476D01*
X90989Y56856D02*
Y69762D01*
X51501Y70750D02*
Y72500D01*
X48000Y70750D02*
Y72500D01*
Y70750D02*
X48988Y69762D01*
X50512Y69762D02*
X51501Y70750D01*
X50512Y66738D02*
Y69762D01*
X48988Y66739D02*
Y69762D01*
X47750Y65500D02*
X47870D01*
X51631D02*
X51750D01*
X50512Y66738D02*
X51750Y65500D01*
X47750D02*
X48988Y66739D01*
X62000Y70750D02*
Y72500D01*
X58500Y70750D02*
Y72500D01*
Y70750D02*
X59489Y69762D01*
X61012Y69762D02*
X62000Y70750D01*
X61012Y66738D02*
Y69762D01*
X59489Y66739D02*
Y69762D01*
X58250Y65500D02*
X58370D01*
X62131D02*
X62250D01*
X61012Y66738D02*
X62250Y65500D01*
X58250D02*
X59489Y66739D01*
X72501Y70750D02*
Y72500D01*
X69001Y70750D02*
Y72500D01*
Y70750D02*
X69988Y69762D01*
X71512Y69762D02*
X72501Y70750D01*
X71512Y66738D02*
Y69762D01*
X69988Y66739D02*
Y69762D01*
X68750Y65500D02*
X68870D01*
X72631D02*
X72750D01*
X71512Y66738D02*
X72750Y65500D01*
X68750D02*
X69988Y66739D01*
X88263Y43762D02*
X89501Y45000D01*
X88263Y42238D02*
X89501Y41000D01*
X82013Y98262D02*
X83251Y99500D01*
X83131D02*
X83251D01*
X79251D02*
X79370D01*
X89751D02*
X89870D01*
X93500Y92500D02*
Y94250D01*
X92513Y95238D02*
X93500Y94250D01*
X92513Y95238D02*
Y98262D01*
X48000Y92500D02*
Y94250D01*
X51501Y92500D02*
Y94250D01*
X48989Y95238D02*
X48989Y95238D01*
X48000Y94250D02*
X48989Y95238D01*
X59489Y95238D02*
Y103489D01*
X64000Y108000D01*
X61013Y102857D02*
X64631Y106476D01*
X130000Y122078D02*
Y124000D01*
X131078Y121000D02*
X133000D01*
X67601Y114717D02*
X70671D01*
X72946Y116992D01*
Y120853D01*
X74328Y122235D01*
X76136D01*
X77518Y120853D01*
Y116992D02*
Y120853D01*
Y116992D02*
X79793Y114717D01*
X82863D01*
X85138Y116992D01*
Y120853D01*
X86520Y122235D01*
X88328D01*
X89710Y120853D01*
Y116992D02*
Y120853D01*
Y116992D02*
X91985Y114717D01*
X95055D01*
X97330Y116992D01*
Y120853D01*
X98712Y122235D01*
X100520D01*
X101902Y120853D01*
Y116992D02*
Y120853D01*
Y116992D02*
X104177Y114717D01*
X107247D01*
X109522Y116992D01*
Y120853D01*
X110904Y122235D01*
X112712D01*
X114094Y120853D01*
Y116992D02*
Y120853D01*
Y116992D02*
X116369Y114717D01*
X68232Y116241D02*
X70040D01*
X71422Y117623D01*
Y121484D01*
X73697Y123759D01*
X76767D01*
X79042Y121484D01*
Y117623D02*
Y121484D01*
Y117623D02*
X80424Y116241D01*
X82232D01*
X83614Y117623D01*
Y121484D01*
X85889Y123759D01*
X88959D01*
X91234Y121484D01*
Y117623D02*
Y121484D01*
Y117623D02*
X92616Y116241D01*
X94424D01*
X95806Y117623D01*
Y121484D01*
X98081Y123759D01*
X101151D01*
X103426Y121484D01*
Y117623D02*
Y121484D01*
Y117623D02*
X104808Y116241D01*
X106616D01*
X107998Y117623D01*
Y121484D01*
X110273Y123759D01*
X113343D01*
X115618Y121484D01*
Y117623D02*
Y121484D01*
Y117623D02*
X117000Y116241D01*
X124163D01*
X63842Y118476D02*
X67601Y114717D01*
X64473Y120000D02*
X68232Y116241D01*
X116369Y114717D02*
X124794D01*
X124163Y116241D02*
X130000Y122078D01*
X124794Y114717D02*
X131078Y121000D01*
X50513Y95238D02*
X51501Y94250D01*
X50513Y95238D02*
Y108513D01*
X60476Y118476D01*
X63842D01*
X48989Y95238D02*
Y109144D01*
X59845Y120000D01*
X64473D01*
X79500Y70750D02*
X80489Y69762D01*
X82013Y69762D02*
X83000Y70750D01*
X84762Y42238D02*
X88263D01*
X82524Y40000D02*
X84762Y42238D01*
X84131Y43762D02*
X88263D01*
X79000Y32000D02*
X82524Y35524D01*
Y40000D01*
X78369Y33524D02*
X81000Y36155D01*
Y40631D01*
X68000Y32000D02*
X79000D01*
X68631Y33524D02*
X78369D01*
X81000Y40631D02*
X84131Y43762D01*
X78405Y56000D02*
X82013Y59607D01*
Y69762D01*
X80489Y60238D02*
Y69762D01*
X67869Y57524D02*
X77774D01*
X80489Y60238D01*
X68500Y56000D02*
X78405D01*
X63976Y53631D02*
X67869Y57524D01*
X159000Y99078D02*
Y101000D01*
X160078Y98000D02*
X162000D01*
X156000Y93922D02*
X160078Y98000D01*
X156000Y74845D02*
Y93922D01*
X154476Y94554D02*
X159000Y99078D01*
X151155Y70000D02*
X156000Y74845D01*
X154476Y75476D02*
Y94554D01*
X150524Y71524D02*
X154476Y75476D01*
X139000Y75000D02*
Y86155D01*
Y75000D02*
X144000Y70000D01*
X151155D01*
X144631Y71524D02*
X150524D01*
X140524Y75631D02*
X144631Y71524D01*
X64631Y106476D02*
X139524D01*
X64000Y108000D02*
X140155D01*
X140524Y75631D02*
Y85524D01*
X1204631Y60500D02*
X1204750D01*
X1203512Y61738D02*
X1204750Y60500D01*
X1200750D02*
X1200869D01*
X1200750D02*
X1201988Y61739D01*
X1215000Y87500D02*
Y89250D01*
X1113922Y23000D02*
X1137476Y46554D01*
X1115000Y21922D02*
X1139000Y45922D01*
X1180988Y90238D02*
Y93381D01*
X1180000Y89250D02*
X1180988Y90238D01*
X1182512Y90238D02*
Y94012D01*
X1194000Y65750D02*
Y67500D01*
X1180000Y65750D02*
Y67500D01*
X1139000Y45922D02*
Y85000D01*
X1137476Y46554D02*
Y85631D01*
X1194000Y87500D02*
Y89250D01*
X1221750Y94500D02*
X1222988Y93262D01*
X1221750Y94500D02*
X1221869D01*
X1204500Y87500D02*
Y89250D01*
X1139000Y85000D02*
X1151000Y97000D01*
X1177369D01*
X1180988Y93381D01*
X1137476Y85631D02*
X1150369Y98524D01*
X1178000D01*
X1182512Y94012D01*
X1090000Y94000D02*
X1091922D01*
X1214012Y90238D02*
X1215000Y89250D01*
X1093000Y91000D02*
Y92922D01*
X1211500Y89250D02*
X1212488Y90238D01*
X1093000Y92922D02*
X1095977Y95900D01*
Y98794D01*
X1092319Y102453D02*
X1095977Y98794D01*
X1092319Y102453D02*
Y104085D01*
X1093381Y105147D01*
X1095013D01*
X1104593Y95567D01*
X1107487D01*
X1109442Y97522D01*
Y100416D01*
X1099862Y109996D02*
X1109442Y100416D01*
X1099862Y109996D02*
Y111628D01*
X1100925Y112690D01*
X1102556D01*
X1112137Y103110D01*
X1115031D01*
X1116986Y105065D01*
Y107959D01*
X1113327Y111618D02*
X1116986Y107959D01*
X1113327Y111618D02*
Y113250D01*
X1116078Y116000D01*
X1091922Y94000D02*
X1094454Y96531D01*
Y98163D01*
X1090795Y101821D02*
X1094454Y98163D01*
X1090795Y101821D02*
Y104716D01*
X1092750Y106671D01*
X1095644D01*
X1105224Y97091D01*
X1106856D01*
X1107918Y98153D01*
Y99785D01*
X1098338Y109365D02*
X1107918Y99785D01*
X1098338Y109365D02*
Y112259D01*
X1100293Y114214D01*
X1103188D01*
X1112768Y104634D01*
X1114399D01*
X1115462Y105696D01*
Y107328D01*
X1111803Y110987D02*
X1115462Y107328D01*
X1111803Y110987D02*
Y113881D01*
X1115446Y117524D01*
X1116078Y116000D02*
X1202000D01*
X1115446Y117524D02*
X1202631D01*
X1202000Y116000D02*
X1212488Y105512D01*
X1202631Y117524D02*
X1214012Y106143D01*
X1212488Y90238D02*
Y105512D01*
X1214012Y90238D02*
Y106143D01*
X1203512Y90238D02*
X1204500Y89250D01*
X1201000Y89250D02*
X1201988Y90238D01*
X1105672Y69762D02*
X1107762Y69762D01*
X1104290Y71144D02*
X1105672Y69762D01*
X1104290Y71144D02*
Y72861D01*
X1102015Y75137D02*
X1104290Y72861D01*
X1098945Y75137D02*
X1102015D01*
X1096670Y72861D02*
X1098945Y75137D01*
X1096670Y65770D02*
Y72861D01*
X1095288Y64387D02*
X1096670Y65770D01*
X1093480Y64387D02*
X1095288D01*
X1092098Y65770D02*
X1093480Y64387D01*
X1092098Y65770D02*
Y72861D01*
X1089823Y75137D02*
X1092098Y72861D01*
X1086753Y75137D02*
X1089823D01*
X1084478Y72861D02*
X1086753Y75137D01*
X1084478Y65770D02*
Y72861D01*
X1083096Y64387D02*
X1084478Y65770D01*
X1081288Y64387D02*
X1083096D01*
X1079906Y65770D02*
X1081288Y64387D01*
X1079906Y65770D02*
Y72861D01*
X1077631Y75137D02*
X1079906Y72861D01*
X1074561Y75137D02*
X1077631D01*
X1072286Y72861D02*
X1074561Y75137D01*
X1072286Y71144D02*
Y72861D01*
X1070904Y69762D02*
X1072286Y71144D01*
X1067238Y69762D02*
X1070904Y69762D01*
X1102766Y70513D02*
X1105041Y68238D01*
X1102766Y70513D02*
Y72230D01*
X1101384Y73613D02*
X1102766Y72230D01*
X1099576Y73613D02*
X1101384D01*
X1098194Y72230D02*
X1099576Y73613D01*
X1098194Y65139D02*
Y72230D01*
X1095919Y62863D02*
X1098194Y65139D01*
X1092849Y62863D02*
X1095919D01*
X1090574Y65139D02*
X1092849Y62863D01*
X1090574Y65139D02*
Y72230D01*
X1089192Y73613D02*
X1090574Y72230D01*
X1087384Y73613D02*
X1089192D01*
X1086002Y72230D02*
X1087384Y73613D01*
X1086002Y65139D02*
Y72230D01*
X1083727Y62863D02*
X1086002Y65139D01*
X1080657Y62863D02*
X1083727D01*
X1078382Y65139D02*
X1080657Y62863D01*
X1078382Y65139D02*
Y72230D01*
X1077000Y73613D02*
X1078382Y72230D01*
X1075192Y73613D02*
X1077000D01*
X1073810Y72230D02*
X1075192Y73613D01*
X1073810Y70513D02*
Y72230D01*
X1071535Y68238D02*
X1073810Y70513D01*
X1067238Y68238D02*
X1071535Y68238D01*
X1118000Y91155D02*
X1138369Y111524D01*
X1194631D01*
X1139000Y110000D02*
X1194000D01*
X1194631Y111524D02*
X1203512Y102643D01*
X1194000Y110000D02*
X1201988Y102012D01*
X1203512Y90238D02*
Y102643D01*
X1201988Y90238D02*
Y102012D01*
X1105041Y68238D02*
X1108393Y68238D01*
X1107762Y69762D02*
X1118000Y80000D01*
Y91155D01*
X1119524Y90524D02*
X1139000Y110000D01*
X1108393Y68238D02*
X1119524Y79369D01*
Y90524D01*
X1082000Y38000D02*
X1083922D01*
X1193012Y90238D02*
X1194000Y89250D01*
X1085000Y35000D02*
Y36922D01*
X1190500Y89250D02*
X1191488Y90238D01*
X1083922Y38000D02*
X1086922Y41000D01*
X1085000Y36922D02*
X1087554Y39476D01*
X1104476D01*
X1103845Y41000D02*
X1105854Y43010D01*
X1105854Y44534D02*
X1105854Y43010D01*
X1104939Y45450D02*
X1105854Y44534D01*
X1104939Y45450D02*
Y48236D01*
X1107540Y50838D01*
X1110327D01*
X1114314Y46851D01*
X1115838D01*
X1117547Y48559D01*
Y50083D01*
X1113559Y54071D02*
X1117547Y50083D01*
X1113559Y54071D02*
Y56857D01*
X1116161Y59459D01*
X1118948D01*
X1122935Y55472D01*
X1124459D01*
X1126168Y57181D01*
Y58705D01*
X1125252Y59620D02*
X1126168Y58705D01*
X1125252Y62407D02*
X1125252Y59620D01*
X1125252Y62407D02*
X1128000Y65155D01*
X1104476Y39476D02*
X1107378Y42379D01*
X1107378Y45165D02*
X1107378Y42379D01*
X1106462Y46081D02*
X1107378Y45165D01*
X1106462Y46081D02*
Y47605D01*
X1108171Y49314D01*
X1109695D01*
X1113683Y45327D01*
X1116469D01*
X1119071Y47928D01*
Y50715D01*
X1115083Y54702D02*
X1119071Y50715D01*
X1115083Y54702D02*
Y56226D01*
X1116792Y57935D01*
X1118316D01*
X1122304Y53948D01*
X1125090D01*
X1127692Y56549D01*
Y59336D01*
X1126776Y60252D02*
X1127692Y59336D01*
X1126776Y61776D02*
X1126776Y60252D01*
X1126776Y61776D02*
X1129524Y64524D01*
X1128000Y65155D02*
Y88155D01*
X1129524Y64524D02*
Y87524D01*
X1128000Y88155D02*
X1144369Y104524D01*
X1129524Y87524D02*
X1145000Y103000D01*
X1144369Y104524D02*
X1185231D01*
X1145000Y103000D02*
X1184600D01*
X1185231Y104524D02*
X1193012Y96743D01*
X1184600Y103000D02*
X1191488Y96112D01*
X1193012Y90238D02*
Y96743D01*
X1191488Y90238D02*
Y96112D01*
X1086922Y41000D02*
X1103845D01*
X1115000Y20000D02*
Y21922D01*
X1112000Y23000D02*
X1113922D01*
X1187762Y27238D02*
X1189000Y26000D01*
X1185000D02*
X1186238Y27238D01*
X1182512Y64762D02*
X1183500Y65750D01*
X1182512Y40488D02*
Y64762D01*
Y40488D02*
X1187762Y35238D01*
Y27238D02*
Y35238D01*
X1180000Y65750D02*
X1180988Y64762D01*
Y39857D02*
Y64762D01*
Y39857D02*
X1186238Y34607D01*
Y27238D02*
Y34607D01*
X1204762Y34238D02*
X1206000Y33000D01*
X1202000D02*
X1203238Y34238D01*
X1193012Y64762D02*
X1194000Y65750D01*
X1193012Y64762D02*
X1193012Y64762D01*
Y51988D02*
Y64762D01*
Y51988D02*
X1204762Y40238D01*
Y34238D02*
Y40238D01*
X1190500Y65750D02*
X1191488Y64762D01*
Y51357D02*
Y64762D01*
Y51357D02*
X1203238Y39607D01*
Y34238D02*
Y39607D01*
X590150Y192400D02*
X593889Y188662D01*
X590150Y183400D02*
X593889Y187138D01*
X593889Y188662D02*
X601862D01*
X593889Y187138D02*
X601862D01*
X612862D02*
X619476Y180524D01*
Y171369D02*
Y180524D01*
X607338Y188662D02*
X613493D01*
X621000Y181155D01*
Y172000D02*
Y181155D01*
X646500Y238500D02*
X665000Y220000D01*
X140524Y85524D02*
X145250Y90250D01*
Y102905D01*
X140155Y108000D02*
X145250Y102905D01*
X139000Y86155D02*
X143726Y90881D01*
Y102274D01*
X139524Y106476D02*
X143726Y102274D01*
X65500Y36655D02*
X68631Y33524D01*
X65500Y36655D02*
Y53000D01*
X68500Y56000D01*
X63976Y36024D02*
X68000Y32000D01*
X63976Y36024D02*
Y53631D01*
X667926Y121074D02*
Y132919D01*
X687426Y133926D02*
Y144826D01*
X688550Y120800D02*
Y132895D01*
X669050Y133950D02*
Y144706D01*
X682450Y134105D02*
Y191472D01*
X683474Y122724D02*
Y132974D01*
X672823Y122772D02*
Y132877D01*
X642750Y82750D02*
X644274D01*
X673974Y133881D02*
Y183104D01*
D74*
X744000Y256000D02*
X769900D01*
X722000D02*
X744000D01*
D75*
X769900D02*
X769900Y256000D01*
D76*
X432000Y34000D02*
Y93000D01*
X284600Y69000D02*
Y94000D01*
X271000Y69000D02*
X284600D01*
X973500Y73000D02*
Y97000D01*
X962000D02*
X973500D01*
X953000Y73000D02*
Y97000D01*
X962000D01*
X953000Y73000D02*
X973500D01*
X934000Y78000D02*
X939000Y73000D01*
X934000Y78000D02*
X934000D01*
X934000D02*
Y133000D01*
X939000Y73000D02*
X953000D01*
X925000Y133000D02*
X934000D01*
X572000Y135000D02*
X583000Y146000D01*
X542600Y135000D02*
X572000D01*
X537600Y140000D02*
X542600Y135000D01*
X479000Y140000D02*
X523600D01*
X468965Y129965D02*
X479000Y140000D01*
X523600D02*
X537600D01*
X266600Y106000D02*
Y112000D01*
Y94000D02*
Y106000D01*
X284600Y94000D02*
Y112000D01*
Y129965D01*
X375785Y119322D02*
Y129150D01*
X357600Y129965D02*
X376600D01*
X432000D01*
X406500Y105083D02*
Y129965D01*
X583000Y146000D02*
X589000D01*
X209750Y94000D02*
X266600D01*
X432000Y129965D02*
X468965D01*
X432000Y93000D02*
Y129965D01*
D77*
X318442Y85442D02*
X319442Y84442D01*
X312868Y77868D02*
X319442Y84442D01*
X312868Y68132D02*
Y77868D01*
X313830Y90053D02*
X318442Y85442D01*
Y85665D02*
Y86190D01*
Y85442D02*
Y85665D01*
Y84665D02*
Y85442D01*
Y85665D02*
X337527Y66580D01*
X314204Y89903D02*
X318442Y85665D01*
X311442Y68753D02*
X313662Y66533D01*
X337527Y66357D02*
Y66580D01*
X319333Y43333D02*
X322000D01*
X327667Y37666D01*
X358182Y30818D02*
X366818Y39454D01*
Y39818D01*
X368153Y38483D01*
X373446Y33190D02*
X373967D01*
X327667Y37384D02*
Y37666D01*
Y37384D02*
X332525Y32525D01*
X332333Y42333D02*
X333160D01*
X332333D02*
X337192Y37475D01*
X337475D01*
X343917Y43190D02*
X344000Y43107D01*
Y31000D02*
Y43107D01*
Y31000D02*
X344818Y30182D01*
X350000Y50546D02*
X351669Y52214D01*
X350000Y50000D02*
Y50546D01*
Y50000D02*
X351818Y48182D01*
Y37182D02*
Y48182D01*
X361215Y52214D02*
X363250Y50179D01*
X372000Y45471D02*
X372624Y44847D01*
X343500Y44250D02*
X345442Y46192D01*
X444950Y106650D02*
Y112000D01*
X453600Y38000D02*
X457600D01*
X460100Y35500D01*
Y29950D02*
Y35500D01*
X443950Y47650D02*
X453600Y38000D01*
X443950Y47650D02*
Y52000D01*
X395442Y71665D02*
Y83190D01*
X391442Y67665D02*
X395442Y71665D01*
X383665Y74665D02*
X392204Y83204D01*
X376442Y91130D02*
Y97301D01*
X371821Y86509D02*
X376442Y91130D01*
X359977Y74665D02*
X371821Y86509D01*
X367048Y74665D02*
X375357Y82974D01*
X359977Y74665D02*
X367048D01*
X338967Y53655D02*
X344598Y59286D01*
X384231Y57200D02*
X390917Y50514D01*
X345442Y53059D02*
X348133Y55750D01*
X379564Y52533D02*
X385967Y46130D01*
X345442Y46192D02*
Y53059D01*
X377624Y98483D02*
X387099Y107958D01*
X470100Y103000D02*
Y108150D01*
X378892Y79438D02*
X383665Y74665D01*
X378892Y69892D02*
X383665Y74665D01*
X383665D02*
X383665D01*
X465100Y70050D02*
Y77500D01*
X465250Y111650D02*
Y112000D01*
Y111650D02*
X465600Y112000D01*
X465100Y10050D02*
Y17500D01*
X443950Y52000D02*
X443950Y52000D01*
X442950Y52000D02*
X443950D01*
X441950D02*
X442950D01*
X338967Y48140D02*
Y53655D01*
X333160Y42333D02*
X338967Y48140D01*
X343917Y43190D02*
X344442Y43715D01*
X329621Y51379D02*
X341062Y62821D01*
X337527Y66357D02*
Y66357D01*
X375357Y66357D02*
X384231Y57483D01*
X376442Y97301D02*
X377624Y98483D01*
X390917Y50140D02*
X397099Y43958D01*
Y41322D02*
Y41887D01*
Y43958D01*
X470100Y69500D02*
Y70050D01*
X460100D02*
Y77500D01*
X470100Y89950D02*
Y103000D01*
X460100Y89950D02*
Y95500D01*
X466250Y112000D02*
X470100Y108150D01*
X460100Y10050D02*
Y17500D01*
X444950Y106650D02*
X453600Y98000D01*
X457600D01*
X460100Y95500D01*
X480600Y9500D02*
X480600Y9500D01*
X468250Y52000D02*
X470100Y50150D01*
Y44000D02*
Y50150D01*
Y29950D02*
Y44000D01*
X455100Y67850D02*
Y68000D01*
X455100Y7850D02*
Y8000D01*
X371821Y62821D02*
X376442Y58201D01*
Y55655D02*
X379564Y52533D01*
X376442Y55655D02*
Y58201D01*
X372000Y45471D02*
Y55571D01*
X368286Y59286D02*
X372000Y55571D01*
X378917Y38140D02*
X385967Y45190D01*
X351182Y23818D02*
X354557Y27193D01*
X358182Y30818D01*
D78*
X767501Y202501D02*
X776599D01*
X767501Y212501D02*
X776599D01*
X767501Y172501D02*
X776599D01*
X776350D02*
X776599Y172750D01*
X776349Y172500D02*
X776350Y172501D01*
X776599D01*
X663500Y100250D02*
X665000Y98750D01*
X663500Y96250D02*
X665000Y94750D01*
X768600Y68000D02*
X772000D01*
X753350Y83250D02*
X768600Y68000D01*
X753350Y83250D02*
Y112250D01*
X768600Y73000D02*
X772000D01*
X755850Y85750D02*
X768600Y73000D01*
X755850Y85750D02*
Y114250D01*
X751600Y114000D02*
X753350Y112250D01*
X755850Y114250D02*
X758600Y117000D01*
X751600Y114000D02*
Y123500D01*
X758600Y117000D02*
Y123500D01*
X1004290Y17040D02*
Y23650D01*
D79*
X689000Y106750D02*
Y110750D01*
Y106750D02*
X690000Y107750D01*
Y108750D01*
X689000Y110750D02*
X690000Y109750D01*
Y108750D02*
Y109750D01*
X669000Y94750D02*
Y98750D01*
Y94750D02*
X670000Y95750D01*
Y96750D01*
X669000Y98750D02*
X670000Y97750D01*
Y96750D02*
Y97750D01*
X669024Y102726D02*
X673000Y98750D01*
X665024Y102726D02*
X669024D01*
X685000Y86750D02*
Y90750D01*
Y86750D02*
X686000Y87750D01*
Y88750D01*
X685000Y90750D02*
X686000Y89750D01*
Y88750D02*
Y89750D01*
X685000Y94750D02*
Y98750D01*
Y94750D02*
X686000Y95750D01*
Y96750D01*
X685000Y98750D02*
X686000Y97750D01*
Y96750D02*
Y97750D01*
X665000Y102750D02*
X665024Y102726D01*
X32001Y77500D02*
X37501D01*
X30501Y76000D02*
X32001Y77500D01*
X30501Y72500D02*
Y76000D01*
X673000Y102750D02*
X677000D01*
Y98726D02*
X680976D01*
X677000Y90750D02*
Y94750D01*
X673000D02*
X677000D01*
Y98726D01*
X673024D02*
X677000D01*
Y94750D02*
X681000D01*
X677000Y86750D02*
X681000D01*
X669000D02*
X673000D01*
X638100Y239000D02*
X638600Y238500D01*
X629600Y239000D02*
X638100D01*
X763000Y53550D02*
X763550Y53000D01*
X673000Y90750D02*
X677000D01*
X665000Y86750D02*
X669000D01*
X673000Y98750D02*
X673024Y98726D01*
X672976Y90726D02*
X673000Y90750D01*
X665000D02*
X665024Y90726D01*
X672976D01*
X677000Y102750D02*
X681000D01*
Y98750D02*
X685000Y102750D01*
X680976Y98726D02*
X681000Y98750D01*
X685000Y90750D02*
X685000D01*
X677000D02*
X681000D01*
D80*
X37501Y88500D02*
Y92500D01*
X97001D02*
Y96500D01*
X37501Y92500D02*
Y96500D01*
Y72500D02*
Y77500D01*
X114501Y72500D02*
Y76500D01*
X86501Y68500D02*
Y72500D01*
X76000Y92500D02*
Y96500D01*
X86501Y92500D02*
Y96500D01*
X1187000Y63500D02*
Y67500D01*
X1176500Y63500D02*
Y67500D01*
X1169500D02*
Y71500D01*
X1162500Y67500D02*
Y71500D01*
X1218500Y63500D02*
Y67500D01*
X1229000Y63500D02*
Y67500D01*
X1246500D02*
Y71500D01*
Y83500D02*
Y87500D01*
X1239500Y83500D02*
Y87500D01*
X1229000D02*
Y91500D01*
X1176500Y87500D02*
Y91500D01*
X1169500Y87500D02*
Y91500D01*
X114501Y88500D02*
Y92500D01*
X107500Y88500D02*
Y92500D01*
X44500D02*
Y96500D01*
X37501Y68500D02*
Y72500D01*
X44500Y68500D02*
Y72500D01*
X76000Y68500D02*
Y72500D01*
X55001Y68500D02*
Y72500D01*
X65500Y68500D02*
Y72500D01*
X104001D02*
Y76500D01*
X55001Y92500D02*
Y96500D01*
X65500Y92500D02*
Y96500D01*
X97001Y68500D02*
Y72500D01*
X1155250Y86850D02*
Y90850D01*
X1153850Y68150D02*
X1155250D01*
X1153850Y86850D02*
X1155250D01*
X1208000Y63500D02*
Y67500D01*
X1197500Y63500D02*
Y67500D01*
X1236000D02*
Y71500D01*
X1187000Y87500D02*
Y91500D01*
X1197500Y87500D02*
Y91500D01*
X1218500Y87500D02*
Y91500D01*
X1208000Y87500D02*
Y91500D01*
D81*
X574600Y171400D02*
X580000Y166000D01*
X574600Y171400D02*
Y237000D01*
X580600Y243000D01*
X595600D01*
X598100Y245500D01*
X604600D01*
X981100Y35000D02*
X982100Y36000D01*
X997790Y23650D02*
Y30810D01*
X799600Y119000D02*
X800600Y120000D01*
X795900Y119000D02*
X799600D01*
X799100Y127000D02*
X800600Y125500D01*
Y120000D02*
Y125500D01*
X784100Y135000D02*
X786100Y137000D01*
X778300Y135000D02*
X784100D01*
X777600Y134300D02*
X778300Y135000D01*
X771750Y93250D02*
X772000Y93000D01*
X891500Y126750D02*
X897500D01*
X981100Y37000D02*
X991600D01*
X997790Y30810D01*
Y23650D02*
Y30810D01*
X600000Y162000D02*
X605000Y157000D01*
X605600D01*
X605000Y159000D02*
X605600D01*
X580000Y166000D02*
X596000D01*
X600000Y162000D01*
X590150Y219400D02*
X603700D01*
X604100Y219000D01*
X590150Y228400D02*
X603700D01*
X604100Y228000D01*
X777600Y134300D02*
X778000Y134700D01*
Y142000D01*
D82*
X673000Y82750D02*
X677000D01*
X669000D02*
X673000D01*
X665000D02*
X669000D01*
D83*
X840500Y68000D02*
X858000D01*
D84*
X744000Y235000D02*
D03*
X722000D02*
D03*
D85*
X327625Y116250D02*
D03*
D86*
X677012Y94738D02*
D03*
D87*
X299000Y43000D02*
D03*
D88*
X1254000Y23000D02*
D03*
X22000Y22000D02*
D03*
X687000Y249000D02*
D03*
D89*
X503651Y154000D02*
D03*
Y257900D02*
D03*
D90*
X558651Y151000D02*
D03*
Y260900D02*
D03*
D91*
X590150Y219400D02*
D03*
Y228400D02*
D03*
X582150Y232900D02*
D03*
Y214900D02*
D03*
Y196900D02*
D03*
Y178900D02*
D03*
X548651D02*
D03*
Y196900D02*
D03*
Y232900D02*
D03*
Y214900D02*
D03*
X556651Y228400D02*
D03*
Y219400D02*
D03*
Y210400D02*
D03*
Y201400D02*
D03*
Y192400D02*
D03*
Y183400D02*
D03*
X590150Y210400D02*
D03*
Y201400D02*
D03*
Y192400D02*
D03*
Y183400D02*
D03*
D92*
Y253400D02*
D03*
Y158500D02*
D03*
D93*
X769900Y256000D02*
D03*
D94*
X882000Y105000D02*
D03*
X925600Y117000D02*
D03*
X918000Y117000D02*
D03*
X817550Y124750D02*
D03*
X358250Y74750D02*
D03*
X362250D02*
D03*
X366250D02*
D03*
X370250D02*
D03*
X354250D02*
D03*
X350250D02*
D03*
X346250D02*
D03*
X342250D02*
D03*
X49000Y6000D02*
D03*
X738000Y237000D02*
D03*
X742000D02*
D03*
X746000D02*
D03*
X750000D02*
D03*
X716000D02*
D03*
X720000D02*
D03*
X724000D02*
D03*
X728000D02*
D03*
X738000Y233000D02*
D03*
X742000D02*
D03*
X746000D02*
D03*
X750000D02*
D03*
X728000D02*
D03*
X724000D02*
D03*
X720000D02*
D03*
X716000D02*
D03*
X417000Y80000D02*
D03*
X767501Y202501D02*
D03*
Y212501D02*
D03*
Y172501D02*
D03*
Y167501D02*
D03*
X792000Y17000D02*
D03*
X699000Y136000D02*
D03*
X707200Y149000D02*
D03*
X716000D02*
D03*
X711600D02*
D03*
X31000Y124000D02*
D03*
X40000Y133000D02*
D03*
X45000Y10000D02*
D03*
X51000Y128000D02*
D03*
X43000Y119000D02*
D03*
X1188000Y13000D02*
D03*
Y7000D02*
D03*
X1150000Y15000D02*
D03*
X1135000D02*
D03*
X31000Y111000D02*
D03*
X649600Y146000D02*
D03*
Y134000D02*
D03*
X657000Y177000D02*
D03*
X660000Y180000D02*
D03*
X663000Y190000D02*
D03*
X666000Y193000D02*
D03*
X676000Y196000D02*
D03*
X679000Y199000D02*
D03*
X682000Y209000D02*
D03*
X685000Y212000D02*
D03*
X663000Y183000D02*
D03*
X654000Y174000D02*
D03*
X669000Y196000D02*
D03*
X660000Y187000D02*
D03*
X682000Y202000D02*
D03*
X673000Y193000D02*
D03*
X679000Y206000D02*
D03*
X688000Y215000D02*
D03*
X1096000Y88000D02*
D03*
X1066000Y71000D02*
D03*
Y75000D02*
D03*
X1082000Y38000D02*
D03*
X1085000Y35000D02*
D03*
X728600Y44001D02*
D03*
Y48000D02*
D03*
X886000Y76000D02*
D03*
X876000D02*
D03*
X1066000Y67000D02*
D03*
X1087000Y97000D02*
D03*
X728600Y53500D02*
D03*
X649600Y138000D02*
D03*
Y142000D02*
D03*
X640500Y141500D02*
D03*
X301000Y79000D02*
D03*
X305000D02*
D03*
X297000D02*
D03*
X603000Y117000D02*
D03*
Y113000D02*
D03*
Y109000D02*
D03*
Y105000D02*
D03*
X346000Y120000D02*
D03*
X467600Y80000D02*
D03*
X596000Y94000D02*
D03*
Y98000D02*
D03*
Y102000D02*
D03*
Y106000D02*
D03*
X625000Y135000D02*
D03*
X764600Y132000D02*
D03*
X728600Y117000D02*
D03*
X332600Y120000D02*
D03*
X596000Y76000D02*
D03*
Y80000D02*
D03*
X62000Y24000D02*
D03*
X31000Y85000D02*
D03*
X27000Y81000D02*
D03*
X43000Y86000D02*
D03*
X121750Y76650D02*
D03*
X114501Y76500D02*
D03*
X37501Y88500D02*
D03*
X97001Y96500D02*
D03*
X37501D02*
D03*
Y77500D02*
D03*
X538000Y80000D02*
D03*
X546000D02*
D03*
X542000D02*
D03*
X600000Y162000D02*
D03*
X603000Y87000D02*
D03*
Y91000D02*
D03*
X457600Y80000D02*
D03*
X603000Y64000D02*
D03*
Y68000D02*
D03*
X552000Y29000D02*
D03*
X596000Y84000D02*
D03*
Y72000D02*
D03*
X627000Y35000D02*
D03*
X624000Y38000D02*
D03*
X555000Y26000D02*
D03*
X600000Y35000D02*
D03*
X579000Y29000D02*
D03*
X576000Y32000D02*
D03*
X603000D02*
D03*
X648000Y41000D02*
D03*
X651000Y38000D02*
D03*
X924000Y131000D02*
D03*
X928000D02*
D03*
X932000D02*
D03*
X924000Y135000D02*
D03*
X928000D02*
D03*
X932000D02*
D03*
X106000Y54000D02*
D03*
X103000Y57000D02*
D03*
X89501Y37000D02*
D03*
Y49000D02*
D03*
X100000Y60000D02*
D03*
X549000Y32000D02*
D03*
X558000Y23000D02*
D03*
X573000Y35000D02*
D03*
X582000Y26000D02*
D03*
X597000Y38000D02*
D03*
X606000Y29000D02*
D03*
X86501Y68500D02*
D03*
X630000Y32000D02*
D03*
X621000Y41000D02*
D03*
X654000Y35000D02*
D03*
X645000Y44000D02*
D03*
X603000Y60000D02*
D03*
X197000Y133650D02*
D03*
X193000D02*
D03*
X189000D02*
D03*
X185000D02*
D03*
X76000Y96500D02*
D03*
X327600Y120000D02*
D03*
X462600Y80000D02*
D03*
X86501Y96500D02*
D03*
X603000Y95000D02*
D03*
Y83000D02*
D03*
Y72000D02*
D03*
X486600Y132250D02*
D03*
X590000Y148000D02*
D03*
X586000D02*
D03*
X582000D02*
D03*
X590000Y144000D02*
D03*
X586000D02*
D03*
X582000D02*
D03*
X1173000Y13000D02*
D03*
X1177000Y13000D02*
D03*
X1181000Y7000D02*
D03*
X1177000D02*
D03*
X1173000D02*
D03*
X1198000Y33000D02*
D03*
X1210000D02*
D03*
X728600Y91500D02*
D03*
Y95500D02*
D03*
X728600Y86000D02*
D03*
X728600Y101000D02*
D03*
Y105000D02*
D03*
X847600D02*
D03*
X838600Y108000D02*
D03*
X866600Y111000D02*
D03*
X728600Y82000D02*
D03*
X728600Y72500D02*
D03*
Y76500D02*
D03*
X728600Y63000D02*
D03*
Y67000D02*
D03*
X728600Y57501D02*
D03*
X728600Y34501D02*
D03*
Y38501D02*
D03*
X728600Y25000D02*
D03*
Y29000D02*
D03*
Y16000D02*
D03*
Y20000D02*
D03*
X724600Y13250D02*
D03*
Y22750D02*
D03*
Y31750D02*
D03*
X724600Y41251D02*
D03*
X724600Y50750D02*
D03*
X724600Y60251D02*
D03*
X724600Y69750D02*
D03*
X724600Y79250D02*
D03*
X724600Y88750D02*
D03*
X724600Y107750D02*
D03*
X600000Y198400D02*
D03*
X670000Y96750D02*
D03*
X751600Y114000D02*
D03*
X725600D02*
D03*
X758600Y117000D02*
D03*
X767600Y120000D02*
D03*
Y141000D02*
D03*
X771000Y144600D02*
D03*
X690000Y108750D02*
D03*
X678976Y92750D02*
D03*
X675000Y82750D02*
D03*
X674750Y92750D02*
D03*
X671000Y82750D02*
D03*
X679000Y86750D02*
D03*
X664600Y116000D02*
D03*
X506600Y132000D02*
D03*
X514600D02*
D03*
X510600D02*
D03*
X660600Y116000D02*
D03*
X478600Y265000D02*
D03*
X488600D02*
D03*
X490600Y132250D02*
D03*
X482600D02*
D03*
X322600Y120000D02*
D03*
X1066000Y63000D02*
D03*
X678200Y133400D02*
D03*
X678976Y96800D02*
D03*
X686000Y96750D02*
D03*
X1088000Y32000D02*
D03*
X1079000Y41000D02*
D03*
X853600Y117000D02*
D03*
X866600Y120000D02*
D03*
X921600D02*
D03*
X800600Y123000D02*
D03*
X724600Y98250D02*
D03*
X457600Y20000D02*
D03*
X224000Y92000D02*
D03*
X216000D02*
D03*
X208000D02*
D03*
X200000D02*
D03*
X462600Y20000D02*
D03*
X467600Y20000D02*
D03*
X686000Y88750D02*
D03*
X675000Y102750D02*
D03*
X348500Y9250D02*
D03*
X344500D02*
D03*
X340500D02*
D03*
X825750Y124750D02*
D03*
X872600Y124000D02*
D03*
X864600D02*
D03*
X868600D02*
D03*
X674750Y96800D02*
D03*
X671000Y86750D02*
D03*
X1225750Y60500D02*
D03*
X1221750D02*
D03*
X1225750Y94500D02*
D03*
X1215250Y60500D02*
D03*
X1211250D02*
D03*
X195850Y123000D02*
D03*
X202350Y126750D02*
D03*
X213600Y122500D02*
D03*
X55000Y18000D02*
D03*
X58000Y15000D02*
D03*
X61000Y12000D02*
D03*
X56000Y8000D02*
D03*
X53000Y11000D02*
D03*
X50000Y14000D02*
D03*
X1181000Y13000D02*
D03*
X1253750Y71650D02*
D03*
Y83350D02*
D03*
X1187000Y63500D02*
D03*
X1176500D02*
D03*
X1169500Y71500D02*
D03*
X1162500D02*
D03*
X1218500Y63500D02*
D03*
X1229000D02*
D03*
X1246500Y71500D02*
D03*
Y83500D02*
D03*
X1239500D02*
D03*
X1229000Y91500D02*
D03*
X1176500D02*
D03*
X1169500D02*
D03*
X1175600Y75000D02*
D03*
X1179600D02*
D03*
X1183600D02*
D03*
X23251Y88350D02*
D03*
Y76650D02*
D03*
X121750Y88350D02*
D03*
X114501Y88500D02*
D03*
X107500D02*
D03*
X44500Y96500D02*
D03*
X703000Y136000D02*
D03*
X748000Y148000D02*
D03*
X752000D02*
D03*
X20500Y82500D02*
D03*
X124501D02*
D03*
X37501Y68500D02*
D03*
X44500D02*
D03*
X196000Y92000D02*
D03*
X204000D02*
D03*
X212000D02*
D03*
X220000D02*
D03*
X192000D02*
D03*
X403000Y5000D02*
D03*
X399000D02*
D03*
X395000D02*
D03*
X413000Y80000D02*
D03*
X409000D02*
D03*
X452600Y80000D02*
D03*
X472600D02*
D03*
X452600Y20000D02*
D03*
X472600D02*
D03*
X725000Y120000D02*
D03*
X720000D02*
D03*
X699000Y132000D02*
D03*
X782250Y74000D02*
D03*
X810250D02*
D03*
X802250D02*
D03*
X794250D02*
D03*
X786250D02*
D03*
X790250D02*
D03*
X798250D02*
D03*
X806250D02*
D03*
X814250D02*
D03*
X830250D02*
D03*
X822250D02*
D03*
X818250D02*
D03*
X826250D02*
D03*
X1004250Y56750D02*
D03*
X1032250D02*
D03*
X1024250D02*
D03*
X1016250D02*
D03*
X1008250D02*
D03*
X1012250D02*
D03*
X1020250D02*
D03*
X1028250D02*
D03*
X1036250D02*
D03*
X838000Y18000D02*
D03*
X834000D02*
D03*
X841000Y14000D02*
D03*
X820000Y18000D02*
D03*
X824000D02*
D03*
X863000Y44000D02*
D03*
X76000Y68500D02*
D03*
X55001D02*
D03*
X65500D02*
D03*
X104001Y76500D02*
D03*
X93751Y99500D02*
D03*
X109000Y51000D02*
D03*
X72750Y65500D02*
D03*
X68750D02*
D03*
X89501Y45000D02*
D03*
Y41000D02*
D03*
X127000Y127000D02*
D03*
X136000Y118000D02*
D03*
X51750Y65500D02*
D03*
X47750D02*
D03*
X55001Y96500D02*
D03*
X62250Y65500D02*
D03*
X58250D02*
D03*
X65500Y96500D02*
D03*
X72751Y99500D02*
D03*
X68751D02*
D03*
X165000Y95000D02*
D03*
X156000Y104000D02*
D03*
X83251Y99500D02*
D03*
X79251D02*
D03*
X89751D02*
D03*
X130000Y124000D02*
D03*
X133000Y121000D02*
D03*
X159000Y101000D02*
D03*
X162000Y98000D02*
D03*
X97001Y68500D02*
D03*
X192000Y96000D02*
D03*
X220000D02*
D03*
X212000D02*
D03*
X204000D02*
D03*
X196000D02*
D03*
X200000D02*
D03*
X208000D02*
D03*
X216000D02*
D03*
X224000D02*
D03*
X1036250Y60750D02*
D03*
X1028250D02*
D03*
X1020250D02*
D03*
X1012250D02*
D03*
X1008250D02*
D03*
X1016250D02*
D03*
X1024250D02*
D03*
X1032250D02*
D03*
X1004250D02*
D03*
X1193000Y26000D02*
D03*
X1155250Y90850D02*
D03*
X1208000Y63500D02*
D03*
X1204750Y60500D02*
D03*
X1200750D02*
D03*
X1197500Y63500D02*
D03*
X1256500Y77500D02*
D03*
X1236000Y71500D02*
D03*
X1187000Y91500D02*
D03*
X1197500D02*
D03*
X1218500D02*
D03*
X1208000D02*
D03*
X1221750Y94500D02*
D03*
X1090000Y94000D02*
D03*
X1093000Y91000D02*
D03*
X1230000Y53000D02*
D03*
X1118000Y17000D02*
D03*
X1115000Y20000D02*
D03*
X1112000Y23000D02*
D03*
X1181000Y26000D02*
D03*
X1109000D02*
D03*
X1189000D02*
D03*
X1185000D02*
D03*
X1206000Y33000D02*
D03*
X1202000D02*
D03*
X1155250Y71650D02*
D03*
X1251000Y95000D02*
D03*
X1241000Y75000D02*
D03*
X596400Y177400D02*
D03*
X778000Y142000D02*
D03*
X764000Y112000D02*
D03*
X871500Y80000D02*
D03*
X855000Y69000D02*
D03*
X295000Y43000D02*
D03*
X303000D02*
D03*
X299000D02*
D03*
X362000Y27250D02*
D03*
X358250Y23750D02*
D03*
X354750Y20250D02*
D03*
X382500Y23000D02*
D03*
X379000Y26500D02*
D03*
X372500Y27250D02*
D03*
X1256000Y98750D02*
D03*
X611250Y223250D02*
D03*
D95*
X663500Y100250D02*
D03*
Y96250D02*
D03*
M02*
