%FSLAX44Y44*%
%MOMM*%
G71*
G01*
G75*
G04 Layer_Color=16711935*
%ADD10R,1.8000X1.1500*%
%ADD11R,3.6000X1.2000*%
%ADD12R,0.9000X0.8000*%
G04:AMPARAMS|DCode=13|XSize=0.9mm|YSize=0.8mm|CornerRadius=0mm|HoleSize=0mm|Usage=FLASHONLY|Rotation=225.000|XOffset=0mm|YOffset=0mm|HoleType=Round|Shape=Rectangle|*
%AMROTATEDRECTD13*
4,1,4,0.0354,0.6010,0.6010,0.0354,-0.0354,-0.6010,-0.6010,-0.0354,0.0354,0.6010,0.0*
%
%ADD13ROTATEDRECTD13*%

%ADD14O,0.8500X0.2500*%
%ADD15O,0.2500X0.8500*%
%ADD16R,5.1500X5.1500*%
%ADD17R,0.6200X0.6200*%
%ADD18R,0.6200X0.6200*%
%ADD19C,0.1714*%
G04:AMPARAMS|DCode=20|XSize=0.65mm|YSize=0.55mm|CornerRadius=0mm|HoleSize=0mm|Usage=FLASHONLY|Rotation=45.000|XOffset=0mm|YOffset=0mm|HoleType=Round|Shape=Rectangle|*
%AMROTATEDRECTD20*
4,1,4,-0.0354,-0.4243,-0.4243,-0.0354,0.0354,0.4243,0.4243,0.0354,-0.0354,-0.4243,0.0*
%
%ADD20ROTATEDRECTD20*%

G04:AMPARAMS|DCode=21|XSize=0.65mm|YSize=0.55mm|CornerRadius=0mm|HoleSize=0mm|Usage=FLASHONLY|Rotation=315.000|XOffset=0mm|YOffset=0mm|HoleType=Round|Shape=Rectangle|*
%AMROTATEDRECTD21*
4,1,4,-0.4243,0.0354,-0.0354,0.4243,0.4243,-0.0354,0.0354,-0.4243,-0.4243,0.0354,0.0*
%
%ADD21ROTATEDRECTD21*%

%ADD22C,1.5000*%
%ADD23R,0.6500X0.5500*%
%ADD24R,0.4600X0.4200*%
%ADD25R,0.4500X0.6500*%
%ADD26R,0.4500X0.7000*%
%ADD27R,0.6500X0.4500*%
%ADD28R,0.7000X0.4500*%
%ADD29R,0.4500X0.4500*%
%ADD30R,0.5500X0.6500*%
%ADD31R,0.3300X0.5500*%
%ADD32R,0.5500X0.3300*%
%ADD33R,0.1800X0.4700*%
%ADD34R,0.8000X0.3500*%
%ADD35R,0.3000X1.0000*%
%ADD36R,0.6000X1.0000*%
%ADD37R,0.6500X0.7500*%
G04:AMPARAMS|DCode=38|XSize=0.42mm|YSize=0.46mm|CornerRadius=0mm|HoleSize=0mm|Usage=FLASHONLY|Rotation=135.000|XOffset=0mm|YOffset=0mm|HoleType=Round|Shape=Rectangle|*
%AMROTATEDRECTD38*
4,1,4,0.3111,0.0141,-0.0141,-0.3111,-0.3111,-0.0141,0.0141,0.3111,0.3111,0.0141,0.0*
%
%ADD38ROTATEDRECTD38*%

%ADD39R,0.4200X0.4600*%
%ADD40P,0.6364X4X270.0*%
%ADD41R,0.4500X0.4500*%
%ADD42P,0.8768X4X270.0*%
%ADD43P,0.8768X4X360.0*%
%ADD44P,0.6364X4X180.0*%
%ADD45R,1.2700X2.2000*%
%ADD46R,1.0000X0.9500*%
%ADD47R,0.8000X0.3000*%
%ADD48R,1.9000X1.1000*%
%ADD49R,0.3000X1.6000*%
%ADD50R,3.7000X2.4000*%
%ADD51R,1.1500X1.4500*%
%ADD52R,0.9000X1.0000*%
G04:AMPARAMS|DCode=53|XSize=1mm|YSize=0.9mm|CornerRadius=0mm|HoleSize=0mm|Usage=FLASHONLY|Rotation=45.000|XOffset=0mm|YOffset=0mm|HoleType=Round|Shape=Rectangle|*
%AMROTATEDRECTD53*
4,1,4,-0.0354,-0.6717,-0.6717,-0.0354,0.0354,0.6717,0.6717,0.0354,-0.0354,-0.6717,0.0*
%
%ADD53ROTATEDRECTD53*%

G04:AMPARAMS|DCode=54|XSize=2.2mm|YSize=1.27mm|CornerRadius=0mm|HoleSize=0mm|Usage=FLASHONLY|Rotation=135.000|XOffset=0mm|YOffset=0mm|HoleType=Round|Shape=Rectangle|*
%AMROTATEDRECTD54*
4,1,4,1.2268,-0.3288,0.3288,-1.2268,-1.2268,0.3288,-0.3288,1.2268,1.2268,-0.3288,0.0*
%
%ADD54ROTATEDRECTD54*%

G04:AMPARAMS|DCode=55|XSize=1mm|YSize=0.9mm|CornerRadius=0mm|HoleSize=0mm|Usage=FLASHONLY|Rotation=135.000|XOffset=0mm|YOffset=0mm|HoleType=Round|Shape=Rectangle|*
%AMROTATEDRECTD55*
4,1,4,0.6717,-0.0354,0.0354,-0.6717,-0.6717,0.0354,-0.0354,0.6717,0.6717,-0.0354,0.0*
%
%ADD55ROTATEDRECTD55*%

G04:AMPARAMS|DCode=56|XSize=0.25mm|YSize=0.8mm|CornerRadius=0mm|HoleSize=0mm|Usage=FLASHONLY|Rotation=315.000|XOffset=0mm|YOffset=0mm|HoleType=Round|Shape=Round|*
%AMOVALD56*
21,1,0.5500,0.2500,0.0000,0.0000,45.0*
1,1,0.2500,-0.1945,-0.1945*
1,1,0.2500,0.1945,0.1945*
%
%ADD56OVALD56*%

G04:AMPARAMS|DCode=57|XSize=0.25mm|YSize=0.8mm|CornerRadius=0mm|HoleSize=0mm|Usage=FLASHONLY|Rotation=225.000|XOffset=0mm|YOffset=0mm|HoleType=Round|Shape=Round|*
%AMOVALD57*
21,1,0.5500,0.2500,0.0000,0.0000,315.0*
1,1,0.2500,-0.1945,0.1945*
1,1,0.2500,0.1945,-0.1945*
%
%ADD57OVALD57*%

%ADD58P,3.4648X4X270.0*%
%ADD59R,1.0000X0.9000*%
%ADD60R,0.2500X0.7000*%
%ADD61R,1.5500X0.8500*%
%ADD62R,0.2000X0.7500*%
%ADD63R,0.9600X0.8900*%
%ADD64R,1.0500X0.6500*%
%ADD65R,1.4500X1.1500*%
%ADD66R,0.7500X0.6500*%
%ADD67C,0.5000*%
%ADD68C,0.2000*%
%ADD69C,0.1270*%
%ADD70C,0.1000*%
%ADD71C,0.3000*%
%ADD72C,0.4000*%
%ADD73C,0.0762*%
%ADD74C,1.2000*%
%ADD75C,1.0000*%
%ADD76C,0.7500*%
%ADD77C,0.2500*%
%ADD78C,0.1250*%
%ADD79C,0.1524*%
%ADD80C,0.1800*%
%ADD81C,0.1500*%
%ADD82C,0.1520*%
%ADD83C,0.1750*%
%ADD84R,1.6000X0.8000*%
%ADD85R,1.3250X1.0500*%
%ADD86R,0.7976X0.7976*%
%ADD87R,0.8000X0.3000*%
%ADD88C,3.8000*%
%ADD89O,2.2500X1.2000*%
%ADD90O,2.8500X1.4500*%
%ADD91C,0.7500*%
%ADD92C,1.0000*%
%ADD93R,1.5000X1.5000*%
%ADD94C,0.3000*%
%ADD95C,0.2500*%
%ADD96C,0.6000*%
%ADD97O,2.0400X1.0000*%
%ADD98O,2.6500X1.2000*%
%ADD99C,0.8500*%
%ADD100C,1.3000*%
%ADD101C,1.2000*%
%ADD102C,0.4500*%
%ADD103C,0.4000*%
%ADD104R,0.8900X0.9600*%
%ADD105R,0.3600X0.3200*%
%ADD106R,0.3200X0.3600*%
%ADD107R,0.5200X0.5200*%
%ADD108R,0.5200X0.5200*%
%ADD109R,0.6250X0.6000*%
%ADD110R,1.8508X1.2008*%
%ADD111R,3.6508X1.2508*%
%ADD112R,0.9508X0.8508*%
G04:AMPARAMS|DCode=113|XSize=0.9508mm|YSize=0.8508mm|CornerRadius=0mm|HoleSize=0mm|Usage=FLASHONLY|Rotation=225.000|XOffset=0mm|YOffset=0mm|HoleType=Round|Shape=Rectangle|*
%AMROTATEDRECTD113*
4,1,4,0.0354,0.6370,0.6370,0.0354,-0.0354,-0.6370,-0.6370,-0.0354,0.0354,0.6370,0.0*
%
%ADD113ROTATEDRECTD113*%

%ADD114O,0.9008X0.3008*%
%ADD115O,0.3008X0.9008*%
%ADD116R,5.2008X5.2008*%
%ADD117R,0.6708X0.6708*%
%ADD118R,0.6708X0.6708*%
%ADD119C,0.2222*%
G04:AMPARAMS|DCode=120|XSize=0.7008mm|YSize=0.6008mm|CornerRadius=0mm|HoleSize=0mm|Usage=FLASHONLY|Rotation=45.000|XOffset=0mm|YOffset=0mm|HoleType=Round|Shape=Rectangle|*
%AMROTATEDRECTD120*
4,1,4,-0.0354,-0.4602,-0.4602,-0.0354,0.0354,0.4602,0.4602,0.0354,-0.0354,-0.4602,0.0*
%
%ADD120ROTATEDRECTD120*%

G04:AMPARAMS|DCode=121|XSize=0.7008mm|YSize=0.6008mm|CornerRadius=0mm|HoleSize=0mm|Usage=FLASHONLY|Rotation=315.000|XOffset=0mm|YOffset=0mm|HoleType=Round|Shape=Rectangle|*
%AMROTATEDRECTD121*
4,1,4,-0.4602,0.0354,-0.0354,0.4602,0.4602,-0.0354,0.0354,-0.4602,-0.4602,0.0354,0.0*
%
%ADD121ROTATEDRECTD121*%

%ADD122C,1.5508*%
%ADD123R,0.7008X0.6008*%
%ADD124R,0.5108X0.4708*%
%ADD125R,0.5008X0.7008*%
%ADD126R,0.5008X0.7508*%
%ADD127R,0.7008X0.5008*%
%ADD128R,0.7508X0.5008*%
%ADD129R,0.5008X0.5008*%
%ADD130R,0.6008X0.7008*%
%ADD131R,0.3808X0.6008*%
%ADD132R,0.6008X0.3808*%
%ADD133R,0.2308X0.5208*%
%ADD134R,0.8508X0.4008*%
%ADD135R,0.3508X1.0508*%
%ADD136R,0.6508X1.0508*%
%ADD137R,0.7008X0.8008*%
G04:AMPARAMS|DCode=138|XSize=0.4708mm|YSize=0.5108mm|CornerRadius=0mm|HoleSize=0mm|Usage=FLASHONLY|Rotation=135.000|XOffset=0mm|YOffset=0mm|HoleType=Round|Shape=Rectangle|*
%AMROTATEDRECTD138*
4,1,4,0.3471,0.0141,-0.0141,-0.3471,-0.3471,-0.0141,0.0141,0.3471,0.3471,0.0141,0.0*
%
%ADD138ROTATEDRECTD138*%

%ADD139R,0.4708X0.5108*%
%ADD140P,0.7082X4X270.0*%
%ADD141R,0.5008X0.5008*%
%ADD142P,0.9486X4X270.0*%
%ADD143P,0.9486X4X360.0*%
%ADD144P,0.7082X4X180.0*%
%ADD145R,1.3208X2.2508*%
%ADD146R,1.0508X1.0008*%
%ADD147R,0.8508X0.3508*%
%ADD148R,1.9508X1.1508*%
%ADD149R,0.3508X1.6508*%
%ADD150R,3.7508X2.4508*%
%ADD151R,1.2008X1.5008*%
%ADD152R,0.9508X1.0508*%
G04:AMPARAMS|DCode=153|XSize=1.0508mm|YSize=0.9508mm|CornerRadius=0mm|HoleSize=0mm|Usage=FLASHONLY|Rotation=45.000|XOffset=0mm|YOffset=0mm|HoleType=Round|Shape=Rectangle|*
%AMROTATEDRECTD153*
4,1,4,-0.0354,-0.7077,-0.7077,-0.0354,0.0354,0.7077,0.7077,0.0354,-0.0354,-0.7077,0.0*
%
%ADD153ROTATEDRECTD153*%

G04:AMPARAMS|DCode=154|XSize=2.2508mm|YSize=1.3208mm|CornerRadius=0mm|HoleSize=0mm|Usage=FLASHONLY|Rotation=135.000|XOffset=0mm|YOffset=0mm|HoleType=Round|Shape=Rectangle|*
%AMROTATEDRECTD154*
4,1,4,1.2628,-0.3288,0.3288,-1.2628,-1.2628,0.3288,-0.3288,1.2628,1.2628,-0.3288,0.0*
%
%ADD154ROTATEDRECTD154*%

G04:AMPARAMS|DCode=155|XSize=1.0508mm|YSize=0.9508mm|CornerRadius=0mm|HoleSize=0mm|Usage=FLASHONLY|Rotation=135.000|XOffset=0mm|YOffset=0mm|HoleType=Round|Shape=Rectangle|*
%AMROTATEDRECTD155*
4,1,4,0.7077,-0.0354,0.0354,-0.7077,-0.7077,0.0354,-0.0354,0.7077,0.7077,-0.0354,0.0*
%
%ADD155ROTATEDRECTD155*%

G04:AMPARAMS|DCode=156|XSize=0.3008mm|YSize=0.8508mm|CornerRadius=0mm|HoleSize=0mm|Usage=FLASHONLY|Rotation=315.000|XOffset=0mm|YOffset=0mm|HoleType=Round|Shape=Round|*
%AMOVALD156*
21,1,0.5500,0.3008,0.0000,0.0000,45.0*
1,1,0.3008,-0.1945,-0.1945*
1,1,0.3008,0.1945,0.1945*
%
%ADD156OVALD156*%

G04:AMPARAMS|DCode=157|XSize=0.3008mm|YSize=0.8508mm|CornerRadius=0mm|HoleSize=0mm|Usage=FLASHONLY|Rotation=225.000|XOffset=0mm|YOffset=0mm|HoleType=Round|Shape=Round|*
%AMOVALD157*
21,1,0.5500,0.3008,0.0000,0.0000,315.0*
1,1,0.3008,-0.1945,0.1945*
1,1,0.3008,0.1945,-0.1945*
%
%ADD157OVALD157*%

%ADD158P,3.5367X4X270.0*%
%ADD159R,1.0508X0.9508*%
%ADD160R,0.3008X0.7508*%
%ADD161R,1.6008X0.9008*%
%ADD162R,1.0108X0.9408*%
%ADD163R,1.1008X0.7008*%
%ADD164R,1.5008X1.2008*%
%ADD165R,0.8008X0.7008*%
%ADD166C,3.8508*%
%ADD167O,2.3008X1.2508*%
%ADD168O,2.9008X1.5008*%
%ADD169C,0.8008*%
%ADD170C,1.0508*%
%ADD171R,1.5508X1.5508*%
%ADD172R,0.9408X1.0108*%
%ADD173R,0.4108X0.3708*%
%ADD174R,0.3708X0.4108*%
%ADD175R,0.5708X0.5708*%
%ADD176R,0.5708X0.5708*%
D122*
X795300Y256000D02*
D03*
D166*
X1254000Y23000D02*
D03*
X22000Y22000D02*
D03*
X687000Y249000D02*
D03*
D167*
X503651Y154000D02*
D03*
Y257900D02*
D03*
D168*
X558651Y151000D02*
D03*
Y260900D02*
D03*
D169*
X590150Y219400D02*
D03*
Y228400D02*
D03*
X582150Y232900D02*
D03*
Y214900D02*
D03*
Y196900D02*
D03*
Y178900D02*
D03*
X548651D02*
D03*
Y196900D02*
D03*
Y232900D02*
D03*
Y214900D02*
D03*
X556651Y228400D02*
D03*
Y219400D02*
D03*
Y210400D02*
D03*
Y201400D02*
D03*
Y192400D02*
D03*
Y183400D02*
D03*
X590150Y210400D02*
D03*
Y201400D02*
D03*
Y192400D02*
D03*
Y183400D02*
D03*
D170*
Y253400D02*
D03*
Y158500D02*
D03*
D171*
X769900Y256000D02*
D03*
D172*
X692150Y122000D02*
D03*
X675050D02*
D03*
Y63000D02*
D03*
X692150D02*
D03*
D173*
X691800Y88000D02*
D03*
X697400D02*
D03*
X685400Y82000D02*
D03*
X679800D02*
D03*
X685400Y102000D02*
D03*
X679800D02*
D03*
D174*
X670100Y106800D02*
D03*
X670100Y101200D02*
D03*
D175*
X665600Y79000D02*
D03*
Y87000D02*
D03*
X691600Y102000D02*
D03*
Y94000D02*
D03*
D176*
X676600Y109500D02*
D03*
X684600D02*
D03*
X676600Y74500D02*
D03*
X684600D02*
D03*
M02*
