%FSLAX44Y44*%
%MOMM*%
G71*
G01*
G75*
G04 Layer_Physical_Order=4*
G04 Layer_Color=16711680*
%ADD10R,1.8000X1.1500*%
%ADD11R,3.6000X1.2000*%
%ADD12R,0.9000X0.8000*%
G04:AMPARAMS|DCode=13|XSize=0.9mm|YSize=0.8mm|CornerRadius=0mm|HoleSize=0mm|Usage=FLASHONLY|Rotation=225.000|XOffset=0mm|YOffset=0mm|HoleType=Round|Shape=Rectangle|*
%AMROTATEDRECTD13*
4,1,4,0.0354,0.6010,0.6010,0.0354,-0.0354,-0.6010,-0.6010,-0.0354,0.0354,0.6010,0.0*
%
%ADD13ROTATEDRECTD13*%

%ADD14O,0.8500X0.2500*%
%ADD15O,0.2500X0.8500*%
%ADD16R,5.1500X5.1500*%
%ADD17R,0.6200X0.6200*%
%ADD18R,0.6200X0.6200*%
%ADD19C,0.1714*%
G04:AMPARAMS|DCode=20|XSize=0.65mm|YSize=0.55mm|CornerRadius=0mm|HoleSize=0mm|Usage=FLASHONLY|Rotation=45.000|XOffset=0mm|YOffset=0mm|HoleType=Round|Shape=Rectangle|*
%AMROTATEDRECTD20*
4,1,4,-0.0354,-0.4243,-0.4243,-0.0354,0.0354,0.4243,0.4243,0.0354,-0.0354,-0.4243,0.0*
%
%ADD20ROTATEDRECTD20*%

G04:AMPARAMS|DCode=21|XSize=0.65mm|YSize=0.55mm|CornerRadius=0mm|HoleSize=0mm|Usage=FLASHONLY|Rotation=315.000|XOffset=0mm|YOffset=0mm|HoleType=Round|Shape=Rectangle|*
%AMROTATEDRECTD21*
4,1,4,-0.4243,0.0354,-0.0354,0.4243,0.4243,-0.0354,0.0354,-0.4243,-0.4243,0.0354,0.0*
%
%ADD21ROTATEDRECTD21*%

%ADD22C,1.5000*%
%ADD23R,0.6500X0.5500*%
%ADD24R,0.4600X0.4200*%
%ADD25R,0.4500X0.6500*%
%ADD26R,0.4500X0.7000*%
%ADD27R,0.6500X0.4500*%
%ADD28R,0.7000X0.4500*%
%ADD29R,0.4500X0.4500*%
%ADD30R,0.5500X0.6500*%
%ADD31R,0.3300X0.5500*%
%ADD32R,0.5500X0.3300*%
%ADD33R,0.1800X0.4700*%
%ADD34R,0.8000X0.3500*%
%ADD35R,0.3000X1.0000*%
%ADD36R,0.6000X1.0000*%
%ADD37R,0.6500X0.7500*%
G04:AMPARAMS|DCode=38|XSize=0.42mm|YSize=0.46mm|CornerRadius=0mm|HoleSize=0mm|Usage=FLASHONLY|Rotation=135.000|XOffset=0mm|YOffset=0mm|HoleType=Round|Shape=Rectangle|*
%AMROTATEDRECTD38*
4,1,4,0.3111,0.0141,-0.0141,-0.3111,-0.3111,-0.0141,0.0141,0.3111,0.3111,0.0141,0.0*
%
%ADD38ROTATEDRECTD38*%

%ADD39R,0.4200X0.4600*%
%ADD40P,0.6364X4X270.0*%
%ADD41R,0.4500X0.4500*%
%ADD42P,0.8768X4X270.0*%
%ADD43P,0.8768X4X360.0*%
%ADD44P,0.6364X4X180.0*%
%ADD45R,1.2700X2.2000*%
%ADD46R,1.0000X0.9500*%
%ADD47R,0.8000X0.3000*%
%ADD48R,1.9000X1.1000*%
%ADD49R,0.3000X1.6000*%
%ADD50R,3.7000X2.4000*%
%ADD51R,1.1500X1.4500*%
%ADD52R,0.9000X1.0000*%
G04:AMPARAMS|DCode=53|XSize=1mm|YSize=0.9mm|CornerRadius=0mm|HoleSize=0mm|Usage=FLASHONLY|Rotation=45.000|XOffset=0mm|YOffset=0mm|HoleType=Round|Shape=Rectangle|*
%AMROTATEDRECTD53*
4,1,4,-0.0354,-0.6717,-0.6717,-0.0354,0.0354,0.6717,0.6717,0.0354,-0.0354,-0.6717,0.0*
%
%ADD53ROTATEDRECTD53*%

G04:AMPARAMS|DCode=54|XSize=2.2mm|YSize=1.27mm|CornerRadius=0mm|HoleSize=0mm|Usage=FLASHONLY|Rotation=135.000|XOffset=0mm|YOffset=0mm|HoleType=Round|Shape=Rectangle|*
%AMROTATEDRECTD54*
4,1,4,1.2268,-0.3288,0.3288,-1.2268,-1.2268,0.3288,-0.3288,1.2268,1.2268,-0.3288,0.0*
%
%ADD54ROTATEDRECTD54*%

G04:AMPARAMS|DCode=55|XSize=1mm|YSize=0.9mm|CornerRadius=0mm|HoleSize=0mm|Usage=FLASHONLY|Rotation=135.000|XOffset=0mm|YOffset=0mm|HoleType=Round|Shape=Rectangle|*
%AMROTATEDRECTD55*
4,1,4,0.6717,-0.0354,0.0354,-0.6717,-0.6717,0.0354,-0.0354,0.6717,0.6717,-0.0354,0.0*
%
%ADD55ROTATEDRECTD55*%

G04:AMPARAMS|DCode=56|XSize=0.25mm|YSize=0.8mm|CornerRadius=0mm|HoleSize=0mm|Usage=FLASHONLY|Rotation=315.000|XOffset=0mm|YOffset=0mm|HoleType=Round|Shape=Round|*
%AMOVALD56*
21,1,0.5500,0.2500,0.0000,0.0000,45.0*
1,1,0.2500,-0.1945,-0.1945*
1,1,0.2500,0.1945,0.1945*
%
%ADD56OVALD56*%

G04:AMPARAMS|DCode=57|XSize=0.25mm|YSize=0.8mm|CornerRadius=0mm|HoleSize=0mm|Usage=FLASHONLY|Rotation=225.000|XOffset=0mm|YOffset=0mm|HoleType=Round|Shape=Round|*
%AMOVALD57*
21,1,0.5500,0.2500,0.0000,0.0000,315.0*
1,1,0.2500,-0.1945,0.1945*
1,1,0.2500,0.1945,-0.1945*
%
%ADD57OVALD57*%

%ADD58P,3.4648X4X270.0*%
%ADD59R,1.0000X0.9000*%
%ADD60R,0.2500X0.7000*%
%ADD61R,1.5500X0.8500*%
%ADD62R,0.2000X0.7500*%
%ADD63R,0.9600X0.8900*%
%ADD64R,1.0500X0.6500*%
%ADD65R,1.4500X1.1500*%
%ADD66R,0.7500X0.6500*%
%ADD67C,0.5000*%
%ADD68C,0.2000*%
%ADD69C,0.1270*%
%ADD70C,0.1000*%
%ADD71C,0.3000*%
%ADD72C,0.4000*%
%ADD73C,0.0762*%
%ADD74C,1.2000*%
%ADD75C,1.0000*%
%ADD76C,0.7500*%
%ADD77C,0.2500*%
%ADD78C,0.1250*%
%ADD79C,0.1524*%
%ADD80C,0.1800*%
%ADD81C,0.1500*%
%ADD82C,0.1520*%
%ADD83C,0.1750*%
%ADD84R,1.6000X0.8000*%
%ADD85R,1.3250X1.0500*%
%ADD86R,0.7976X0.7976*%
%ADD87R,0.8000X0.3000*%
%ADD88C,3.8000*%
%ADD89O,2.2500X1.2000*%
%ADD90O,2.8500X1.4500*%
%ADD91C,0.7500*%
%ADD92C,1.0000*%
%ADD93R,1.5000X1.5000*%
%ADD94C,0.3000*%
%ADD95C,0.2500*%
%ADD96C,0.6000*%
%ADD97O,2.0400X1.0000*%
%ADD98O,2.6500X1.2000*%
%ADD99C,0.8500*%
%ADD100C,1.3000*%
%ADD101C,1.2000*%
%ADD102C,0.4500*%
%ADD103C,0.4000*%
%ADD104R,0.8900X0.9600*%
%ADD105R,0.3600X0.3200*%
%ADD106R,0.3200X0.3600*%
%ADD107R,0.5200X0.5200*%
%ADD108R,0.5200X0.5200*%
%ADD109R,0.6250X0.6000*%
G36*
X808000Y266000D02*
Y166618D01*
D01*
Y156000D01*
X808000Y138000D01*
X799000D01*
X781000Y156000D01*
X770195Y156000D01*
X769297Y156898D01*
Y166118D01*
X769632Y166618D01*
X769807Y167501D01*
X769632Y168384D01*
X769132Y169132D01*
X768912Y169279D01*
Y170723D01*
X769132Y170870D01*
X769632Y171618D01*
X769807Y172501D01*
X769632Y173384D01*
X769132Y174132D01*
X768384Y174632D01*
X767501Y174807D01*
X766618Y174632D01*
X765870Y174132D01*
X765370Y173384D01*
X765195Y172501D01*
X765370Y171618D01*
X765870Y170870D01*
X766090Y170723D01*
Y169279D01*
X765870Y169132D01*
X765370Y168384D01*
X765195Y167501D01*
X765370Y166618D01*
X765704Y166118D01*
Y156000D01*
X674000Y156000D01*
X674000Y159000D01*
X709000Y194000D01*
X709000Y266000D01*
X712000Y269000D01*
X805000Y269000D01*
X808000Y266000D01*
D02*
G37*
%LPC*%
G36*
X728000Y239306D02*
X727117Y239131D01*
X726369Y238631D01*
X725631D01*
X724883Y239131D01*
X724000Y239306D01*
X723117Y239131D01*
X722369Y238631D01*
X721631D01*
X720883Y239131D01*
X720000Y239306D01*
X719117Y239131D01*
X718369Y238631D01*
X717631D01*
X716883Y239131D01*
X716000Y239306D01*
X715117Y239131D01*
X714369Y238631D01*
X713869Y237883D01*
X713694Y237000D01*
X713869Y236117D01*
X714369Y235369D01*
Y234631D01*
X713869Y233883D01*
X713694Y233000D01*
X713869Y232117D01*
X714369Y231369D01*
X715117Y230869D01*
X716000Y230694D01*
X716883Y230869D01*
X717631Y231369D01*
X718369D01*
X719117Y230869D01*
X720000Y230694D01*
X720883Y230869D01*
X721631Y231369D01*
X722369D01*
X723117Y230869D01*
X724000Y230694D01*
X724883Y230869D01*
X725631Y231369D01*
X726369D01*
X727117Y230869D01*
X728000Y230694D01*
X728883Y230869D01*
X729631Y231369D01*
X730131Y232117D01*
X730306Y233000D01*
X730131Y233883D01*
X729631Y234631D01*
Y235369D01*
X730131Y236117D01*
X730306Y237000D01*
X730131Y237883D01*
X729631Y238631D01*
X728883Y239131D01*
X728000Y239306D01*
D02*
G37*
G36*
X750000D02*
X749117Y239131D01*
X748369Y238631D01*
X747631D01*
X746883Y239131D01*
X746000Y239306D01*
X745117Y239131D01*
X744369Y238631D01*
X743631D01*
X742883Y239131D01*
X742000Y239306D01*
X741117Y239131D01*
X740369Y238631D01*
X739631D01*
X738883Y239131D01*
X738000Y239306D01*
X737117Y239131D01*
X736369Y238631D01*
X735869Y237883D01*
X735694Y237000D01*
X735869Y236117D01*
X736369Y235369D01*
Y234631D01*
X735869Y233883D01*
X735694Y233000D01*
X735869Y232117D01*
X736369Y231369D01*
X737117Y230869D01*
X738000Y230694D01*
X738883Y230869D01*
X739631Y231369D01*
X740369D01*
X741117Y230869D01*
X742000Y230694D01*
X742883Y230869D01*
X743631Y231369D01*
X744369D01*
X745117Y230869D01*
X746000Y230694D01*
X746883Y230869D01*
X747631Y231369D01*
X748369D01*
X749117Y230869D01*
X750000Y230694D01*
X750883Y230869D01*
X751631Y231369D01*
X752131Y232117D01*
X752306Y233000D01*
X752131Y233883D01*
X751631Y234631D01*
Y235369D01*
X752131Y236117D01*
X752306Y237000D01*
X752131Y237883D01*
X751631Y238631D01*
X750883Y239131D01*
X750000Y239306D01*
D02*
G37*
G36*
X767501Y204807D02*
X766618Y204632D01*
X765870Y204132D01*
X765370Y203384D01*
X765195Y202501D01*
X765370Y201618D01*
X765870Y200870D01*
X766618Y200370D01*
X767501Y200195D01*
X768384Y200370D01*
X769132Y200870D01*
X769632Y201618D01*
X769807Y202501D01*
X769632Y203384D01*
X769132Y204132D01*
X768384Y204632D01*
X767501Y204807D01*
D02*
G37*
G36*
Y214807D02*
X766618Y214632D01*
X765870Y214132D01*
X765370Y213384D01*
X765195Y212501D01*
X765370Y211618D01*
X765870Y210870D01*
X766618Y210370D01*
X767501Y210195D01*
X768384Y210370D01*
X769132Y210870D01*
X769632Y211618D01*
X769807Y212501D01*
X769632Y213384D01*
X769132Y214132D01*
X768384Y214632D01*
X767501Y214807D01*
D02*
G37*
G36*
X767400Y265500D02*
X760400D01*
Y258500D01*
X767400D01*
Y265500D01*
D02*
G37*
G36*
X779400D02*
X772400D01*
Y258500D01*
X779400D01*
Y265500D01*
D02*
G37*
G36*
Y253500D02*
X772400D01*
Y246500D01*
X779400D01*
Y253500D01*
D02*
G37*
G36*
X795300Y265582D02*
X792820Y265256D01*
X790509Y264298D01*
X788525Y262776D01*
X787002Y260791D01*
X786045Y258480D01*
X785718Y256000D01*
X786045Y253520D01*
X787002Y251209D01*
X788525Y249225D01*
X790509Y247702D01*
X792820Y246745D01*
X795300Y246418D01*
X797780Y246745D01*
X800091Y247702D01*
X802076Y249225D01*
X803598Y251209D01*
X804556Y253520D01*
X804882Y256000D01*
X804556Y258480D01*
X803598Y260791D01*
X802076Y262776D01*
X800091Y264298D01*
X797780Y265256D01*
X795300Y265582D01*
D02*
G37*
G36*
X767400Y253500D02*
X760400D01*
Y246500D01*
X767400D01*
Y253500D01*
D02*
G37*
%LPD*%
D22*
X795300Y256000D02*
D03*
D68*
X767501Y152501D02*
Y167501D01*
X666600Y88000D02*
Y104250D01*
X675050Y121050D02*
Y122000D01*
X670100Y116100D02*
X675050Y121050D01*
X670100Y106800D02*
Y116100D01*
X670000Y92600D02*
Y96750D01*
X670950Y106800D02*
X675000Y102750D01*
X670100Y106800D02*
X670950D01*
X684600Y109500D02*
X685400Y108700D01*
Y102000D02*
Y108700D01*
X686000Y96750D02*
Y101400D01*
X685400Y102000D02*
X686000Y101400D01*
X684600Y93000D02*
X690600D01*
X680600Y89000D02*
X684600Y93000D01*
X673600Y89000D02*
X680600D01*
X686000Y82600D02*
Y88750D01*
X685400Y82000D02*
X686000Y82600D01*
X684600Y74500D02*
X685400Y75300D01*
Y82000D01*
X675000Y76100D02*
Y82750D01*
Y76100D02*
X676600Y74500D01*
X675000Y82750D02*
X679050D01*
X679800Y82000D01*
X674750Y96800D02*
Y97350D01*
X670900Y101200D02*
X674750Y97350D01*
X670100Y101200D02*
X670900D01*
X669150Y106800D02*
X670100D01*
X666600Y104250D02*
X669150Y106800D01*
X665600Y87000D02*
X666600Y88000D01*
X690600Y93000D02*
X691600Y94000D01*
X670000Y92600D02*
X673600Y89000D01*
X665600Y87000D02*
X665850Y86750D01*
X671000D01*
X670350Y82750D02*
X671000D01*
X666600Y79000D02*
X670350Y82750D01*
X665600Y79000D02*
X666600D01*
X671000Y82750D02*
X675000D01*
X676600Y108400D02*
Y109500D01*
Y108400D02*
X678976Y106024D01*
Y96800D02*
Y106024D01*
D69*
X653600Y68400D02*
Y88400D01*
X613250Y128750D02*
X653600Y88400D01*
X204350Y128750D02*
X613250D01*
X650600Y66400D02*
Y87400D01*
X612000Y126000D02*
X650600Y87400D01*
X209000Y126000D02*
X612000D01*
X647600Y64400D02*
Y86400D01*
X610750Y123250D02*
X647600Y86400D01*
X217250Y123250D02*
X610750D01*
X644600Y61400D02*
Y85400D01*
X609250Y120750D02*
X644600Y85400D01*
X349750Y120750D02*
X609250D01*
X34000Y58000D02*
X76750Y15250D01*
X34000Y58000D02*
Y81000D01*
X928500Y108500D02*
X947000Y127000D01*
X874500Y108500D02*
X928500D01*
X871000Y105000D02*
X874500Y108500D01*
X847600Y105000D02*
X871000D01*
X873250Y111250D02*
X927250D01*
X870000Y108000D02*
X873250Y111250D01*
X838600Y108000D02*
X870000D01*
X927250Y111250D02*
X946000Y130000D01*
X853703Y116897D02*
X918000D01*
X922600Y114000D02*
X925600Y117000D01*
X795000Y14000D02*
X841000D01*
X792000Y17000D02*
X795000Y14000D01*
X701600Y56600D02*
Y126600D01*
X698000Y53000D02*
X701600Y56600D01*
Y126600D02*
X713000Y138000D01*
X672600Y141000D02*
X767600D01*
X664600Y133000D02*
X672600Y141000D01*
X660600Y134000D02*
X671200Y144600D01*
X728600Y117000D02*
X758600D01*
X31000Y55000D02*
X62000Y24000D01*
X31000Y55000D02*
Y85000D01*
X27000Y54000D02*
Y81000D01*
X653600Y68400D02*
X669000Y53000D01*
X720000Y113600D02*
X722600Y111000D01*
X671200Y144600D02*
X771000D01*
X660600Y116000D02*
Y134000D01*
X27000Y54000D02*
X68250Y12750D01*
X664600Y116000D02*
Y133000D01*
X650600Y66400D02*
X669000Y48000D01*
X647600Y64400D02*
X669000Y43000D01*
X644600Y61400D02*
X668000Y38000D01*
X669000Y53000D02*
X698000D01*
X669000Y48000D02*
X700000D01*
X704600Y52600D01*
X669000Y43000D02*
X702000D01*
X707600Y48600D01*
X668000Y38000D02*
X704000D01*
X710600Y44600D01*
X68250Y12750D02*
X692750D01*
X716600Y36600D01*
X767600Y120000D02*
X767600Y120000D01*
X725000Y120000D02*
X767600D01*
X720000Y113600D02*
Y120000D01*
X704600Y52600D02*
Y125600D01*
X714000Y135000D01*
X707600Y48600D02*
Y124600D01*
X715000Y132000D01*
X764600D01*
X710600Y44600D02*
Y123600D01*
X716000Y129000D01*
X713600Y40600D02*
Y122600D01*
X717000Y126000D01*
X716600Y36600D02*
Y121600D01*
X718000Y123000D01*
X853600Y117000D02*
X853703Y116897D01*
X206000Y123000D02*
X209000Y126000D01*
X195850Y123000D02*
X206000D01*
X202350Y126750D02*
X204350Y128750D01*
X213600Y122500D02*
X216500D01*
X217250Y123250D01*
X346000Y120000D02*
X349000D01*
X349750Y120750D01*
X688250Y15250D02*
X713600Y40600D01*
X76750Y15250D02*
X688250D01*
X40000Y83000D02*
X43000Y86000D01*
X34000Y81000D02*
X36000Y83000D01*
X40000D01*
X1241000Y64000D02*
Y75000D01*
X1230000Y53000D02*
X1241000Y64000D01*
X600000Y162000D02*
X600000Y162000D01*
X713000Y138000D02*
X779000D01*
X797000Y120000D01*
X921600D01*
X714000Y135000D02*
X778000D01*
X796000Y117000D01*
X853600D01*
X764600Y132000D02*
X777000D01*
X795000Y114000D01*
X922600D01*
X716000Y129000D02*
X776000D01*
X794000Y111000D01*
X866600D01*
X717000Y126000D02*
X775000D01*
X793000Y108000D01*
X838600D01*
X718000Y123000D02*
X774000D01*
X792000Y105000D01*
X847600D01*
X722600Y111000D02*
X757000D01*
X758000Y112000D01*
X764000D01*
X947000Y127000D02*
X1228250D01*
X1251000Y104250D01*
Y95000D02*
Y104250D01*
X946000Y130000D02*
X1230000D01*
X1256000Y104000D01*
Y98750D02*
Y104000D01*
D71*
X657600Y72400D02*
Y90400D01*
X615000Y133000D02*
X657600Y90400D01*
X506000Y133000D02*
X615000D01*
X699000Y132000D02*
X703000Y136000D01*
X695250Y130250D02*
X699000Y134000D01*
Y136000D01*
Y132000D02*
Y134000D01*
X695250Y125100D02*
Y130250D01*
X692150Y122000D02*
X695250Y125100D01*
X699000Y132000D02*
Y132000D01*
Y136000D02*
X703000D01*
X704200Y152000D02*
X707200Y149000D01*
X711600D02*
X716000D01*
X707200D02*
X711600D01*
X716000D02*
X719000Y152000D01*
X481200Y133650D02*
X482600Y132250D01*
X55000Y18000D02*
X63750Y9250D01*
X53000Y11000D02*
X59000Y5000D01*
X50000Y14000D02*
X53000Y11000D01*
X1166250Y9250D02*
X1170000Y13000D01*
X667000Y63000D02*
X673050D01*
X657600Y72400D02*
X667000Y63000D01*
X1171000Y5000D02*
X1173000Y7000D01*
X490600Y132250D02*
X492000Y133650D01*
X482600Y132250D02*
X486600D01*
X486600Y132250D02*
X486600Y132250D01*
X490600D01*
X1170000Y13000D02*
X1177000D01*
X1177000Y7000D02*
X1181000D01*
X1173000D02*
X1177000D01*
X1177000Y13000D02*
X1181000D01*
X684600Y114450D02*
X692150Y122000D01*
X690000Y108750D02*
X691600Y107150D01*
X697400Y88000D02*
Y97700D01*
X693100Y102000D02*
X697400Y97700D01*
X691600Y102000D02*
X693100D01*
X691600D02*
Y107150D01*
X684600Y109500D02*
Y114450D01*
X691800Y63350D02*
X692150Y63000D01*
X691800Y63350D02*
Y88000D01*
Y93800D01*
X691600Y94000D02*
X691800Y93800D01*
X673050Y63000D02*
X675050D01*
X684600Y72550D02*
Y74500D01*
X675050Y63000D02*
X684600Y72550D01*
X679000Y88400D02*
X679100Y88500D01*
X679000Y86750D02*
Y88400D01*
X672050Y64000D02*
X673050Y63000D01*
X510600Y132000D02*
X514600D01*
X506600D02*
X510600D01*
X868600Y124000D02*
X872600D01*
X864600D02*
X868600D01*
X748000Y148000D02*
X752000D01*
X744000Y152000D02*
X748000Y148000D01*
X752000D02*
X756000Y152000D01*
X748000Y148000D02*
X752000Y152000D01*
X1175600Y75000D02*
X1179600D01*
X1183600D01*
X59000Y5000D02*
X1171000D01*
X506000Y132600D02*
Y133000D01*
Y132600D02*
X506600Y132000D01*
X514600D02*
X515000D01*
X516000Y133000D01*
X820000Y18000D02*
X824000D01*
X834000D01*
X838000D01*
X63750Y9250D02*
X1166250D01*
X1192250Y57750D02*
X1197000Y53000D01*
X1183600Y75000D02*
X1187000D01*
X1192250Y69750D01*
Y57750D02*
Y69750D01*
X1197000Y53000D02*
X1216000D01*
X1223000Y46000D01*
D72*
X944000Y134000D02*
X1240000D01*
X934750Y124750D02*
X944000Y134000D01*
X825750Y124750D02*
X934750D01*
X756000Y152000D02*
X779000D01*
X620000D02*
X704200D01*
X606000Y138000D02*
X620000Y152000D01*
X496350Y138000D02*
X606000D01*
X704200Y152000D02*
X719000D01*
X744000D01*
X481200Y133650D02*
X492000D01*
X185000D02*
X481200D01*
X492000D02*
X496350Y138000D01*
X744000Y152000D02*
X752000D01*
X756000D01*
X779000D02*
X806250Y124750D01*
X825750D01*
X1243750Y55750D02*
X1254750D01*
X1266000Y67000D01*
X1223000Y46000D02*
X1234000D01*
X1243750Y55750D01*
X1266000Y67000D02*
Y108000D01*
X1240000Y134000D02*
X1266000Y108000D01*
D73*
X599798Y206662D02*
G03*
X596750Y206662I-1524J-1148D01*
G01*
X606655Y209905D02*
G03*
X604500Y207750I-266J-1889D01*
G01*
X610966Y214216D02*
G03*
X608811Y212061I-266J-1889D01*
G01*
X615276Y218526D02*
G03*
X613121Y216371I-266J-1889D01*
G01*
X619595Y209095D02*
G03*
X621750Y211250I266J1889D01*
G01*
X327845Y36000D02*
X337321Y45476D01*
X99845Y36000D02*
X327845D01*
X337321Y45476D02*
X576369D01*
X327214Y37524D02*
X336689Y47000D01*
X100476Y37524D02*
X327214D01*
X179155Y118000D02*
X286655D01*
X178524Y116476D02*
X286024D01*
X110155Y99000D02*
X124000D01*
X101155Y108000D02*
X110155Y99000D01*
X124000D02*
X152000Y71000D01*
X109524Y97476D02*
X123369D01*
X151369Y69476D01*
X100524Y106476D02*
X109524Y97476D01*
X297712Y65238D02*
X601762D01*
X242617Y60524D02*
X590476D01*
X787369Y26524D02*
X840631D01*
X779607Y18762D02*
X787369Y26524D01*
X729838Y18762D02*
X779607D01*
X788000Y25000D02*
X840000D01*
X780238Y17238D02*
X788000Y25000D01*
X729838Y17238D02*
X780238D01*
X766107Y37263D02*
X768291Y39446D01*
X729838Y37263D02*
X766107D01*
X768923Y37922D02*
X847077D01*
X766739Y35739D02*
X768923Y37922D01*
X729838Y35739D02*
X766739D01*
X581393Y89762D02*
X601762D01*
X570631Y100524D02*
X581393Y89762D01*
X262476Y100524D02*
X570631D01*
X580762Y88238D02*
X601762D01*
X570000Y99000D02*
X580762Y88238D01*
X261845Y99000D02*
X570000D01*
X599393Y111762D02*
X601762D01*
X596631Y114524D02*
X599393Y111762D01*
X598762Y110238D02*
X601762D01*
X596000Y113000D02*
X598762Y110238D01*
X289500Y113000D02*
X596000D01*
X572607Y77238D02*
X594762D01*
X557845Y92000D02*
X572607Y77238D01*
X573238Y78762D02*
X594762D01*
X558476Y93524D02*
X573238Y78762D01*
X271381Y112524D02*
X276381Y107524D01*
X290131Y114524D02*
X596631D01*
X286655Y118000D02*
X290131Y114524D01*
X286024Y116476D02*
X289500Y113000D01*
X682000Y209000D02*
Y210922D01*
X683078Y212000D02*
X685000D01*
X738000Y56262D02*
X741893D01*
X729838D02*
X733000D01*
X737572D02*
X738000D01*
X736810Y57024D02*
X737572Y56262D01*
X735286Y57024D02*
X736810D01*
X734524Y56262D02*
X735286Y57024D01*
X733000Y56262D02*
X734524D01*
X728600Y63000D02*
X729838Y64238D01*
X1064762Y69762D02*
X1066000Y71000D01*
X1052476Y79524D02*
X1062238Y69762D01*
X981369Y79524D02*
X1052476D01*
X953845Y52000D02*
X981369Y79524D01*
X1051845Y78000D02*
X1061607Y68238D01*
X982000Y78000D02*
X1051845D01*
X954476Y50476D02*
X982000Y78000D01*
X940231Y63476D02*
X973755Y97000D01*
X939600Y65000D02*
X973124Y98524D01*
X1061607Y68238D02*
X1064762D01*
X1062238Y69762D02*
X1064762D01*
X729838Y46762D02*
X850393D01*
X1078078Y30000D02*
X1083078Y35000D01*
X1085000D01*
X1077446Y31524D02*
X1082000Y36078D01*
Y38000D01*
X728600Y44001D02*
X729838Y45238D01*
X728600Y48000D02*
X729838Y46762D01*
X746155Y52000D02*
X953845D01*
X745524Y50476D02*
X954476D01*
X796000Y97000D02*
X933000D01*
X795513D02*
X796000D01*
X794751Y96238D02*
X795513Y97000D01*
X793227Y96238D02*
X794751D01*
X792465Y97000D02*
X793227Y96238D01*
X789417Y97000D02*
X792465D01*
X788655Y96238D02*
X789417Y97000D01*
X787131Y96238D02*
X788655D01*
X786369Y97000D02*
X787131Y96238D01*
X784845Y97000D02*
X786369D01*
X779607Y102238D02*
X784845Y97000D01*
X729838Y102238D02*
X731000D01*
X778244D02*
X779607D01*
X775196D02*
X778244D01*
X774434Y101476D02*
X775196Y102238D01*
X772910Y101476D02*
X774434D01*
X772148Y102238D02*
X772910Y101476D01*
X769100Y102238D02*
X772148D01*
X768338Y101476D02*
X769100Y102238D01*
X766814Y101476D02*
X768338D01*
X766052Y102238D02*
X766814Y101476D01*
X763004Y102238D02*
X766052D01*
X762242Y101476D02*
X763004Y102238D01*
X760718Y101476D02*
X762242D01*
X759956Y102238D02*
X760718Y101476D01*
X756908Y102238D02*
X759956D01*
X756146Y101476D02*
X756908Y102238D01*
X754622Y101476D02*
X756146D01*
X753860Y102238D02*
X754622Y101476D01*
X750812Y102238D02*
X753860D01*
X750050Y101476D02*
X750812Y102238D01*
X748526Y101476D02*
X750050D01*
X747764Y102238D02*
X748526Y101476D01*
X744716Y102238D02*
X747764D01*
X743954Y101476D02*
X744716Y102238D01*
X742430Y101476D02*
X743954D01*
X741668Y102238D02*
X742430Y101476D01*
X738620Y102238D02*
X741668D01*
X737858Y101476D02*
X738620Y102238D01*
X736334Y101476D02*
X737858D01*
X735572Y102238D02*
X736334Y101476D01*
X732524Y102238D02*
X735572D01*
X731000D02*
X732524D01*
X785476Y98524D02*
X932369D01*
X780238Y103762D02*
X785476Y98524D01*
X729838Y103762D02*
X780238D01*
X729838Y92738D02*
X731000D01*
X772148D02*
X772707D01*
X769100D02*
X772148D01*
X768338Y91976D02*
X769100Y92738D01*
X766814Y91976D02*
X768338D01*
X766052Y92738D02*
X766814Y91976D01*
X763004Y92738D02*
X766052D01*
X762242Y91976D02*
X763004Y92738D01*
X760718Y91976D02*
X762242D01*
X759956Y92738D02*
X760718Y91976D01*
X756908Y92738D02*
X759956D01*
X756146Y91976D02*
X756908Y92738D01*
X754622Y91976D02*
X756146D01*
X753860Y92738D02*
X754622Y91976D01*
X750812Y92738D02*
X753860D01*
X750050Y91976D02*
X750812Y92738D01*
X748526Y91976D02*
X750050D01*
X747764Y92738D02*
X748526Y91976D01*
X744716Y92738D02*
X747764D01*
X743954Y91976D02*
X744716Y92738D01*
X742430Y91976D02*
X743954D01*
X741668Y92738D02*
X742430Y91976D01*
X738620Y92738D02*
X741668D01*
X737858Y91976D02*
X738620Y92738D01*
X736334Y91976D02*
X737858D01*
X735572Y92738D02*
X736334Y91976D01*
X732524Y92738D02*
X735572D01*
X731000D02*
X732524D01*
X763155Y65000D02*
X939600D01*
X752893Y75262D02*
X763155Y65000D01*
X729838Y75262D02*
X752893D01*
X762524Y63476D02*
X940231D01*
X752262Y73738D02*
X762524Y63476D01*
X729838Y73738D02*
X752262D01*
X741893Y56262D02*
X746155Y52000D01*
X741262Y54738D02*
X745524Y50476D01*
X729838Y54738D02*
X741262D01*
X1110631Y17554D02*
X1113078Y20000D01*
X1110000Y19078D02*
X1112000Y21078D01*
X1064762Y68238D02*
X1066000Y67000D01*
X728600Y53500D02*
X729838Y54738D01*
X933000Y97000D02*
X955000Y119000D01*
X662262Y99012D02*
X663500Y100250D01*
X657076Y100381D02*
Y108524D01*
Y100381D02*
X659969Y97488D01*
X336689Y47000D02*
X569380D01*
X601078Y32000D02*
X603000D01*
X598592Y29515D02*
X601078Y32000D01*
X592330Y29515D02*
X598592D01*
X576369Y45476D02*
X592330Y29515D01*
X600000Y33078D02*
Y35000D01*
X597961Y31039D02*
X600000Y33078D01*
X592961Y31039D02*
X597961D01*
X591884Y32116D02*
X592961Y31039D01*
X589728Y34272D02*
X591884Y32116D01*
X589728Y34272D02*
Y35234D01*
X588536Y36427D02*
X589728Y35234D01*
X587573Y36427D02*
X588536D01*
X585418Y38582D02*
X587573Y36427D01*
X585418Y38582D02*
Y39545D01*
X584225Y40738D02*
X585418Y39545D01*
X583262Y40738D02*
X584225D01*
X581107Y42893D02*
X583262Y40738D01*
X581107Y42893D02*
Y43856D01*
X579915Y45048D02*
X581107Y43856D01*
X578952Y45048D02*
X579915D01*
X577000Y47000D02*
X578952Y45048D01*
X575476Y47000D02*
X577000D01*
X572428D02*
X575476D01*
X571747Y47681D02*
X572428Y47000D01*
X570061Y47681D02*
X571747D01*
X569380Y47000D02*
X570061Y47681D01*
X601762Y111762D02*
X603000Y113000D01*
X601762Y110238D02*
X603000Y109000D01*
X255845Y105000D02*
X261845Y99000D01*
X256476Y106524D02*
X262476Y100524D01*
X594762Y99238D02*
X596000Y98000D01*
X594762Y100762D02*
X596000Y102000D01*
X594762Y77238D02*
X596000Y76000D01*
X594762Y78762D02*
X596000Y80000D01*
X601762Y88238D02*
X603000Y87000D01*
X601762Y89762D02*
X603000Y91000D01*
X601762Y65238D02*
X603000Y64000D01*
X601762Y66762D02*
X603000Y68000D01*
X576000Y30078D02*
Y32000D01*
X577078Y29000D02*
X579000D01*
X89501Y45000D02*
X90738Y43762D01*
X89501Y41000D02*
X90738Y42238D01*
X728600Y91500D02*
X729838Y92738D01*
X728600Y95500D02*
X729838Y94262D01*
X728600Y86000D02*
X729838Y84762D01*
X728600Y101000D02*
X729838Y102238D01*
X728600Y105000D02*
X729838Y103762D01*
X728600Y82000D02*
X729838Y83238D01*
X728600Y72500D02*
X729838Y73738D01*
X728600Y76500D02*
X729838Y75262D01*
X728600Y67000D02*
X729838Y65762D01*
X728600Y57501D02*
X729838Y56262D01*
X728600Y34501D02*
X729838Y35739D01*
X728600Y38501D02*
X729838Y37263D01*
X728600Y25000D02*
X729838Y26238D01*
X728600Y29000D02*
X729838Y27762D01*
X728600Y16000D02*
X729838Y17238D01*
X728600Y20000D02*
X729838Y18762D01*
X662262Y97488D02*
X663500Y96250D01*
X653993Y140762D02*
X656124Y138631D01*
Y111631D02*
Y138631D01*
Y111631D02*
X658600Y109155D01*
X653362Y139238D02*
X654600Y138000D01*
Y111000D02*
Y138000D01*
Y111000D02*
X657076Y108524D01*
X658600Y101012D02*
Y109155D01*
Y101012D02*
X660600Y99012D01*
X659969Y97488D02*
X662262D01*
X660600Y99012D02*
X662262D01*
X650838Y139238D02*
X653362D01*
X649600Y138000D02*
X650838Y139238D01*
Y140762D02*
X653993D01*
X649600Y142000D02*
X650838Y140762D01*
X1224512Y61738D02*
X1225750Y60500D01*
X1221750D02*
X1222988Y61738D01*
X1224512Y95738D02*
X1225750Y94500D01*
X1214012Y61738D02*
X1215250Y60500D01*
X1211250D02*
X1212488Y61738D01*
X729838Y45238D02*
X849761D01*
X858000Y37000D01*
X850393Y46762D02*
X858631Y38524D01*
X847077Y37922D02*
X855000Y30000D01*
X768291Y39446D02*
X847709D01*
X855631Y31524D01*
X840000Y25000D02*
X847446Y17554D01*
X1110631D01*
X840631Y26524D02*
X848077Y19078D01*
X1110000D01*
X82013Y95369D02*
Y98262D01*
X80489Y96000D02*
Y98262D01*
X80476Y95987D02*
X80489Y96000D01*
X82000Y95356D02*
X82013Y95369D01*
X92513Y98262D02*
X93751Y99500D01*
X90738Y43762D02*
X94238D01*
X90738Y42238D02*
X93607D01*
X80476Y33369D02*
X84845Y29000D01*
X334000D02*
X343476Y38476D01*
X82000Y34000D02*
X85476Y30524D01*
X333369D02*
X342845Y40000D01*
X94238Y43762D02*
X100476Y37524D01*
X93607Y42238D02*
X99845Y36000D01*
X71512Y64262D02*
X72750Y65500D01*
X68750D02*
X69988Y64262D01*
X50512Y66738D02*
X51750Y65500D01*
X47750D02*
X48988Y66738D01*
X61012D02*
X62250Y65500D01*
X58250D02*
X59488Y66738D01*
X71513Y100738D02*
X72751Y99500D01*
X68751D02*
X69989Y100738D01*
X270750Y111000D02*
X275750Y106000D01*
X166446Y106524D02*
X256476D01*
X167078Y105000D02*
X255845D01*
X159000Y101000D02*
X160922D01*
X162000Y98000D02*
Y99922D01*
X130000Y124000D02*
X131922D01*
X133000Y121000D02*
Y122922D01*
X69369Y115524D02*
X109631D01*
X82013Y98262D02*
X83251Y99500D01*
X79251D02*
X80489Y98262D01*
X89751Y99500D02*
X90989Y98262D01*
X552000Y27078D02*
Y29000D01*
X553078Y26000D02*
X555000D01*
X69988Y32856D02*
Y64262D01*
X71512Y33488D02*
Y64262D01*
X69988Y32856D02*
X80845Y22000D01*
X71512Y33488D02*
X81476Y23524D01*
X80845Y22000D02*
X340000D01*
X81476Y23524D02*
X339369D01*
X340000Y22000D02*
X350000Y32000D01*
X339369Y23524D02*
X349369Y33524D01*
X509815Y26476D02*
X513885Y30546D01*
X515692D01*
X517075Y29163D01*
Y25729D02*
Y29163D01*
Y25729D02*
X519350Y23454D01*
X522419D01*
X524695Y25729D01*
Y29163D01*
X526077Y30546D01*
X527884D01*
X529267Y29163D01*
Y25729D02*
Y29163D01*
Y25729D02*
X531542Y23454D01*
X534611D01*
X538157Y27000D01*
X540000D01*
X513254Y32070D02*
X516323D01*
X518599Y29795D01*
Y26361D02*
Y29795D01*
Y26361D02*
X519981Y24978D01*
X521788D01*
X523171Y26361D01*
Y29795D01*
X525446Y32070D01*
X528515D01*
X530791Y29795D01*
Y26361D02*
Y29795D01*
Y26361D02*
X532173Y24978D01*
X533980D01*
X537526Y28524D01*
X540631D01*
X540000Y27000D02*
X544524Y22476D01*
X540631Y28524D02*
X545155Y24000D01*
X544524Y22476D02*
X549554D01*
X545155Y24000D02*
X548922D01*
X549554Y22476D02*
X553078Y26000D01*
X548922Y24000D02*
X552000Y27078D01*
X80476Y33369D02*
Y95987D01*
X82000Y34000D02*
Y95356D01*
X84845Y29000D02*
X334000D01*
X85476Y30524D02*
X333369D01*
X613078Y37922D02*
X614155D01*
X615233Y36845D01*
Y35767D02*
Y36845D01*
Y35767D02*
X616961Y34039D01*
X621961D01*
X624000Y36078D01*
Y38000D01*
X604369Y44476D02*
X616330Y32515D01*
X622593D01*
X625078Y35000D01*
X627000D01*
X90989Y56856D02*
Y98262D01*
X92513Y57487D02*
Y98262D01*
X90989Y56856D02*
X104845Y43000D01*
X92513Y57487D02*
X105476Y44524D01*
X128629Y46922D02*
X132192Y50486D01*
X134000D01*
X135382Y49104D01*
Y45634D02*
Y49104D01*
Y45634D02*
X137657Y43359D01*
X140727D01*
X143002Y45634D01*
Y49104D01*
X144384Y50486D01*
X146192D01*
X147574Y49104D01*
Y45634D02*
Y49104D01*
Y45634D02*
X149849Y43359D01*
X152919D01*
X155194Y45634D01*
Y49104D01*
X156576Y50486D01*
X158384D01*
X159766Y49104D01*
Y45634D02*
Y49104D01*
Y45634D02*
X162041Y43359D01*
X165111D01*
X168674Y46922D01*
X127998Y48446D02*
X131561Y52010D01*
X134631D01*
X136906Y49735D01*
Y46265D02*
Y49735D01*
Y46265D02*
X138288Y44883D01*
X140096D01*
X141478Y46265D01*
Y49735D01*
X143753Y52010D01*
X146823D01*
X149098Y49735D01*
Y46265D02*
Y49735D01*
Y46265D02*
X150480Y44883D01*
X152288D01*
X153670Y46265D01*
Y49735D01*
X155945Y52010D01*
X159015D01*
X161290Y49735D01*
Y46265D02*
Y49735D01*
Y46265D02*
X162672Y44883D01*
X164480D01*
X168043Y48446D01*
X591524Y44476D02*
X604369D01*
X592155Y46000D02*
X605000D01*
X613078Y37922D01*
X103000Y57000D02*
X104922D01*
X648000Y39078D02*
Y41000D01*
X106000Y54000D02*
Y55922D01*
X649078Y38000D02*
X651000D01*
X106000Y55922D02*
X111554Y61476D01*
X104922Y57000D02*
X110922Y63000D01*
X187212Y51732D02*
X189487Y54007D01*
Y58337D01*
X190870Y59720D01*
X192677D01*
X194059Y58337D01*
Y54007D02*
Y58337D01*
Y54007D02*
X196335Y51732D01*
X199404D01*
X201679Y54007D01*
Y58337D01*
X203062Y59720D01*
X204869D01*
X206251Y58337D01*
Y54007D02*
Y58337D01*
Y54007D02*
X208527Y51732D01*
X211596D01*
X213871Y54007D01*
Y58337D01*
X215254Y59720D01*
X217061D01*
X218443Y58337D01*
Y54007D02*
Y58337D01*
Y54007D02*
X220719Y51732D01*
X223788D01*
X226063Y54007D01*
Y58337D01*
X227446Y59720D01*
X229253D01*
X230635Y58337D01*
Y54007D02*
Y58337D01*
Y54007D02*
X232911Y51732D01*
X235980D01*
X183744Y53256D02*
X186581D01*
X187963Y54638D01*
Y58969D01*
X190239Y61244D01*
X193308D01*
X195583Y58969D01*
Y54638D02*
Y58969D01*
Y54638D02*
X196966Y53256D01*
X198773D01*
X200155Y54638D01*
Y58969D01*
X202431Y61244D01*
X205500D01*
X207775Y58969D01*
Y54638D02*
Y58969D01*
Y54638D02*
X209158Y53256D01*
X210965D01*
X212347Y54638D01*
Y58969D01*
X214623Y61244D01*
X217692D01*
X219967Y58969D01*
Y54638D02*
Y58969D01*
Y54638D02*
X221350Y53256D01*
X223157D01*
X224539Y54638D01*
Y58969D01*
X226815Y61244D01*
X229884D01*
X232159Y58969D01*
Y54638D02*
Y58969D01*
Y54638D02*
X233542Y53256D01*
X235349D01*
X589845Y59000D02*
X597369Y51476D01*
X590476Y60524D02*
X598000Y53000D01*
X646054Y34976D02*
X649078Y38000D01*
X183113Y51732D02*
X187212D01*
X168043Y48446D02*
X173554D01*
X177476Y44524D01*
X168674Y46922D02*
X172922D01*
X176845Y43000D01*
X162000Y99922D02*
X167078Y105000D01*
X160922Y101000D02*
X166446Y106524D01*
X109000Y114000D02*
X119000Y104000D01*
X109631Y115524D02*
X119631Y105524D01*
X71513Y100738D02*
Y103000D01*
X69989Y100738D02*
Y103631D01*
X71513Y103000D02*
X74989Y106476D01*
X69989Y103631D02*
X74357Y108000D01*
X74989Y106476D02*
X100524D01*
X74357Y108000D02*
X101155D01*
X255486Y69476D02*
X260002Y73992D01*
Y80103D01*
X264574Y70771D02*
Y80103D01*
X288958Y73992D02*
Y80103D01*
Y73992D02*
X297712Y65238D01*
X258478Y74623D02*
Y80734D01*
X290482Y74623D02*
Y80734D01*
Y74623D02*
X298343Y66762D01*
X104845Y43000D02*
X117000D01*
X120922Y46922D02*
X128629D01*
X117000Y43000D02*
X120922Y46922D01*
X120291Y48446D02*
X127998D01*
X105476Y44524D02*
X116369D01*
X120291Y48446D01*
X111554Y61476D02*
X173369D01*
X183113Y51732D01*
X174000Y63000D02*
X183744Y53256D01*
X110922Y63000D02*
X174000D01*
X152000Y71000D02*
X254855D01*
X59488Y66738D02*
Y105644D01*
X69369Y115524D01*
X70000Y114000D02*
X109000D01*
X61012Y66738D02*
Y105012D01*
X70000Y114000D01*
X141726Y94274D02*
X158000Y78000D01*
X143250Y94905D02*
X158631Y79524D01*
X236524D01*
X250524Y93524D01*
X558476D01*
X158000Y78000D02*
X237155D01*
X251155Y92000D01*
X557845D01*
X127000Y111000D02*
X270750D01*
X127631Y112524D02*
X271381D01*
X276381Y107524D02*
X583476D01*
X590238Y100762D01*
X594762D01*
X275750Y106000D02*
X582845D01*
X589607Y99238D01*
X594762D01*
X50512Y66738D02*
Y113512D01*
X48988Y66738D02*
Y114143D01*
X112881Y127274D02*
X127631Y112524D01*
X62869Y127274D02*
X112881D01*
X112250Y125750D02*
X127000Y111000D01*
X1203512Y61738D02*
X1204750Y60500D01*
X1200750D02*
X1201988Y61738D01*
X932369Y98524D02*
X954369Y120524D01*
X1224512Y61738D02*
Y76644D01*
X1222988Y61738D02*
Y77275D01*
X1221750Y94500D02*
X1222988Y95738D01*
X1090000Y92078D02*
Y94000D01*
X1091078Y91000D02*
X1093000D01*
X1087446Y89524D02*
X1090000Y92078D01*
X1088078Y88000D02*
X1091078Y91000D01*
X973755Y97000D02*
X1073000D01*
X973124Y98524D02*
X1073631D01*
X1082631Y89524D01*
X1087446D01*
X1082000Y88000D02*
X1088078D01*
X1073000Y97000D02*
X1082000Y88000D01*
X855631Y31524D02*
X1077446D01*
X855000Y30000D02*
X1078078D01*
X1113078Y20000D02*
X1115000D01*
X1112000Y21078D02*
Y23000D01*
X1187762Y27238D02*
X1189000Y26000D01*
X1185000D02*
X1186238Y27238D01*
X1204762Y34238D02*
X1206000Y33000D01*
X1202000D02*
X1203238Y34238D01*
Y36762D01*
X1204762Y34238D02*
Y37393D01*
X1198631Y43524D02*
X1204762Y37393D01*
X1198000Y42000D02*
X1203238Y36762D01*
X729838Y27762D02*
X772607D01*
X729838Y26238D02*
X773238D01*
X772607Y27762D02*
X777845Y33000D01*
X773238Y26238D02*
X778476Y31476D01*
X777845Y33000D02*
X844155D01*
X778476Y31476D02*
X843524D01*
X844155Y33000D02*
X851631Y25524D01*
X843524Y31476D02*
X851000Y24000D01*
X851631Y25524D02*
X1092524D01*
X851000Y24000D02*
X1093155D01*
X1187762Y27238D02*
Y31393D01*
X1186238Y27238D02*
Y30762D01*
X1189631Y43524D02*
X1198631D01*
X1189000Y42000D02*
X1198000D01*
X1177631Y41524D02*
X1187762Y31393D01*
X1177000Y40000D02*
X1186238Y30762D01*
X1093155Y24000D02*
X1109155Y40000D01*
X1092524Y25524D02*
X1108524Y41524D01*
X858000Y37000D02*
X1059000D01*
X858631Y38524D02*
X1058369D01*
X1177078Y53922D02*
X1189000Y42000D01*
X1166291Y55446D02*
X1177709D01*
X1189631Y43524D01*
X1059000Y37000D02*
X1081000Y59000D01*
X1058369Y38524D02*
X1080369Y60524D01*
X1085726D01*
X1095726Y50524D01*
X1081000Y59000D02*
X1085095D01*
X1095095Y49000D01*
X1101250D01*
X1111250Y59000D01*
X1095726Y50524D02*
X1100619D01*
X1110619Y60524D01*
X1115476D01*
X1125476Y50524D01*
X1111250Y59000D02*
X1114845D01*
X1124845Y49000D01*
X1131250D01*
X1141250Y59000D01*
X1125476Y50524D02*
X1130619D01*
X1140619Y60524D01*
X1145976D01*
X1155976Y50524D01*
X1141250Y59000D02*
X1145345D01*
X1155345Y49000D01*
X1108524Y41524D02*
X1119226D01*
X1135750Y25000D01*
X1109155Y40000D02*
X1118595D01*
X1135119Y23476D01*
X1135750Y25000D02*
X1150000D01*
X1166524Y41524D01*
X1177631D01*
X1135119Y23476D02*
X1150631D01*
X1167155Y40000D01*
X1177000D01*
X1155345Y49000D02*
X1162000D01*
X1166922Y53922D01*
X1177078D01*
X1155976Y50524D02*
X1161369D01*
X1166291Y55446D01*
X1224512Y76644D02*
X1241000Y93132D01*
Y105000D01*
X1222988Y77275D02*
X1239476Y93763D01*
Y104369D01*
X1229000Y110845D02*
Y116000D01*
X1226000Y119000D02*
X1229000Y116000D01*
X1226631Y120524D02*
X1230524Y116631D01*
Y111476D02*
Y116631D01*
X1229000Y110845D02*
X1232845Y107000D01*
X1236845D01*
X1239476Y104369D01*
X1230524Y111476D02*
X1233476Y108524D01*
X1237476D01*
X1241000Y105000D01*
X729838Y65762D02*
X749393D01*
X757155Y58000D01*
X729838Y64238D02*
X731000D01*
X732524D01*
X735572D01*
X736334Y63476D01*
X737858D01*
X738620Y64238D01*
X741668D01*
X742430Y63476D01*
X743954D01*
X744716Y64238D01*
X747000D01*
X748762D01*
X749839Y63161D01*
X751994Y61006D01*
Y59928D02*
Y61006D01*
Y59928D02*
X753072Y58850D01*
X754150D01*
X756524Y56476D01*
X946631D01*
X757155Y58000D02*
X946000D01*
X946631Y56476D02*
X977631Y87476D01*
X946000Y58000D02*
X977000Y89000D01*
X977631Y87476D02*
X1067369D01*
X977000Y89000D02*
X1068000D01*
X1132928Y67999D02*
X1136608D01*
X1130958Y69969D02*
X1132928Y67999D01*
X1130958Y69969D02*
Y76924D01*
X1129880Y78001D02*
X1130958Y76924D01*
X1127464Y78001D02*
X1129880D01*
X1126386Y76924D02*
X1127464Y78001D01*
X1126386Y69969D02*
Y76924D01*
X1124416Y67999D02*
X1126386Y69969D01*
X1120736Y67999D02*
X1124416D01*
X1118766Y69969D02*
X1120736Y67999D01*
X1118766Y69969D02*
Y76924D01*
X1117688Y78001D02*
X1118766Y76924D01*
X1115272Y78001D02*
X1117688D01*
X1114194Y76924D02*
X1115272Y78001D01*
X1114194Y69969D02*
Y76924D01*
X1112224Y67999D02*
X1114194Y69969D01*
X1108544Y67999D02*
X1112224D01*
X1106574Y69969D02*
X1108544Y67999D01*
X1106574Y69969D02*
Y76924D01*
X1105496Y78001D02*
X1106574Y76924D01*
X1103080Y78001D02*
X1105496D01*
X1102002Y76924D02*
X1103080Y78001D01*
X1102002Y69969D02*
Y76924D01*
X1100032Y67999D02*
X1102002Y69969D01*
X1096352Y67999D02*
X1100032D01*
X1094382Y69969D02*
X1096352Y67999D01*
X1094382Y69969D02*
Y76924D01*
X1093304Y78001D02*
X1094382Y76924D01*
X1090888Y78001D02*
X1093304D01*
X1089810Y76924D02*
X1090888Y78001D01*
X1133560Y69523D02*
X1135976D01*
X1132482Y70600D02*
X1133560Y69523D01*
X1132482Y70600D02*
Y77555D01*
X1130512Y79525D02*
X1132482Y77555D01*
X1126832Y79525D02*
X1130512D01*
X1124862Y77555D02*
X1126832Y79525D01*
X1124862Y70600D02*
Y77555D01*
X1123784Y69523D02*
X1124862Y70600D01*
X1121368Y69523D02*
X1123784D01*
X1120290Y70600D02*
X1121368Y69523D01*
X1120290Y70600D02*
Y77555D01*
X1118320Y79525D02*
X1120290Y77555D01*
X1114640Y79525D02*
X1118320D01*
X1112670Y77555D02*
X1114640Y79525D01*
X1112670Y70600D02*
Y77555D01*
X1111592Y69523D02*
X1112670Y70600D01*
X1109176Y69523D02*
X1111592D01*
X1108098Y70600D02*
X1109176Y69523D01*
X1108098Y70600D02*
Y77555D01*
X1106128Y79525D02*
X1108098Y77555D01*
X1102448Y79525D02*
X1106128D01*
X1100478Y77555D02*
X1102448Y79525D01*
X1100478Y70600D02*
Y77555D01*
X1099400Y69523D02*
X1100478Y70600D01*
X1096984Y69523D02*
X1099400D01*
X1095906Y70600D02*
X1096984Y69523D01*
X1095906Y70600D02*
Y77555D01*
X1093936Y79525D02*
X1095906Y77555D01*
X1090256Y79525D02*
X1093936D01*
X1088286Y77555D02*
X1090256Y79525D01*
X1191845Y82000D02*
X1201988Y71857D01*
X1192476Y83524D02*
X1203512Y72488D01*
X1201988Y61738D02*
Y71857D01*
X1203512Y61738D02*
Y72488D01*
X954369Y120524D02*
X1226631D01*
X955000Y119000D02*
X1226000D01*
X1096631Y105524D02*
X1096777D01*
X938524Y78524D02*
X965524Y105524D01*
X1096631D01*
X729838Y94262D02*
X773338D01*
X776076Y91524D01*
X772707Y92738D02*
X775445Y90000D01*
X776969D01*
X777731Y89238D01*
X779255D01*
X780017Y90000D01*
X783065D01*
X783827Y89238D01*
X785351D01*
X786113Y90000D01*
X789161D01*
X789923Y89238D01*
X791447D01*
X792209Y90000D01*
X939000D01*
X776076Y91524D02*
X938369D01*
X939000Y90000D02*
X960476Y111476D01*
X938369Y91524D02*
X959845Y113000D01*
X960476Y111476D02*
X1105369D01*
X959845Y113000D02*
X1106000D01*
X1105369Y111476D02*
X1107369Y109476D01*
X1106000Y113000D02*
X1108000Y111000D01*
X1113606Y109476D02*
X1116316Y112186D01*
X1118352D01*
X1119239Y111299D01*
Y108546D02*
Y111299D01*
Y108546D02*
X1121019Y106766D01*
X1124317D01*
X1126097Y108546D01*
Y111299D01*
X1126984Y112186D01*
X1129020D01*
X1129907Y111299D01*
Y108546D02*
Y111299D01*
Y108546D02*
X1131687Y106766D01*
X1134985D01*
X1136765Y108546D01*
Y111299D01*
X1137652Y112186D01*
X1139688D01*
X1140575Y111299D01*
Y108546D02*
Y111299D01*
Y108546D02*
X1142355Y106766D01*
X1145653D01*
X1147433Y108546D01*
Y111299D01*
X1148320Y112186D01*
X1150356D01*
X1151243Y111299D01*
Y108546D02*
Y111299D01*
Y108546D02*
X1153023Y106766D01*
X1156321D01*
X1158101Y108546D01*
Y111299D01*
X1158988Y112186D01*
X1161024D01*
X1161911Y111299D01*
Y108546D02*
Y111299D01*
Y108546D02*
X1163691Y106766D01*
X1166989D01*
X1168769Y108546D01*
Y111299D01*
X1169656Y112186D01*
X1171692D01*
X1172579Y111299D01*
Y108546D02*
Y111299D01*
Y108546D02*
X1174359Y106766D01*
X1177657D01*
X1179437Y108546D01*
Y111299D01*
X1180324Y112186D01*
X1182360D01*
X1183247Y111299D01*
Y108546D02*
Y111299D01*
Y108546D02*
X1185027Y106766D01*
X1188325D01*
X1190105Y108546D01*
Y111299D01*
X1190992Y112186D01*
X1193028D01*
X1193915Y111299D01*
Y108546D02*
Y111299D01*
Y108546D02*
X1195695Y106766D01*
X1198993D01*
X1200773Y108546D01*
Y111299D01*
X1201660Y112186D01*
X1203696D01*
X1204583Y111299D01*
Y108546D02*
Y111299D01*
Y108546D02*
X1206363Y106766D01*
X1209661D01*
X1112975Y111000D02*
X1115685Y113710D01*
X1118983D01*
X1120763Y111930D01*
Y109177D02*
Y111930D01*
Y109177D02*
X1121650Y108290D01*
X1123686D01*
X1124573Y109177D01*
Y111930D01*
X1126353Y113710D01*
X1129651D01*
X1131431Y111930D01*
Y109177D02*
Y111930D01*
Y109177D02*
X1132318Y108290D01*
X1134354D01*
X1135241Y109177D01*
Y111930D01*
X1137021Y113710D01*
X1140319D01*
X1142099Y111930D01*
Y109177D02*
Y111930D01*
Y109177D02*
X1142986Y108290D01*
X1145022D01*
X1145909Y109177D01*
Y111930D01*
X1147689Y113710D01*
X1150987D01*
X1152767Y111930D01*
Y109177D02*
Y111930D01*
Y109177D02*
X1153654Y108290D01*
X1155690D01*
X1156577Y109177D01*
Y111930D01*
X1158357Y113710D01*
X1161655D01*
X1163435Y111930D01*
Y109177D02*
Y111930D01*
Y109177D02*
X1164322Y108290D01*
X1166358D01*
X1167245Y109177D01*
Y111930D01*
X1169025Y113710D01*
X1172323D01*
X1174103Y111930D01*
Y109177D02*
Y111930D01*
Y109177D02*
X1174990Y108290D01*
X1177026D01*
X1177913Y109177D01*
Y111930D01*
X1179693Y113710D01*
X1182991D01*
X1184771Y111930D01*
Y109177D02*
Y111930D01*
Y109177D02*
X1185658Y108290D01*
X1187694D01*
X1188581Y109177D01*
Y111930D01*
X1190361Y113710D01*
X1193659D01*
X1195439Y111930D01*
Y109177D02*
Y111930D01*
Y109177D02*
X1196326Y108290D01*
X1198362D01*
X1199249Y109177D01*
Y111930D01*
X1201029Y113710D01*
X1204327D01*
X1206107Y111930D01*
Y109177D02*
Y111930D01*
Y109177D02*
X1206994Y108290D01*
X1209030D01*
X1216524Y109476D02*
X1222988Y103012D01*
Y95738D02*
Y103012D01*
X1224512Y95738D02*
Y103643D01*
X1108000Y111000D02*
X1112975D01*
X1107369Y109476D02*
X1113606D01*
X1212371D02*
X1216524D01*
X1209661Y106766D02*
X1212371Y109476D01*
X1217155Y111000D02*
X1224512Y103643D01*
X1211740Y111000D02*
X1217155D01*
X1209030Y108290D02*
X1211740Y111000D01*
X729838Y84762D02*
X904393D01*
X1136608Y67999D02*
X1150609Y82000D01*
X1191845D01*
X1135976Y69523D02*
X1149978Y83524D01*
X1192476D01*
X1067369Y87476D02*
X1083119Y71726D01*
X1068000Y89000D02*
X1083750Y73250D01*
X1086000D01*
X1088286Y75536D01*
Y77555D01*
X1083119Y71726D02*
X1086631D01*
X1089810Y74905D01*
Y76924D01*
X904393Y84762D02*
X910631Y78524D01*
X926631Y84524D02*
X932631Y78524D01*
X938524D01*
X910631D02*
X915524D01*
X921524Y84524D01*
X926631D01*
X729838Y83238D02*
X731000D01*
X732524D01*
X735572D01*
X736334Y82476D01*
X737858D01*
X738620Y83238D01*
X741668D01*
X742430Y82476D01*
X743954D01*
X744716Y83238D01*
X747764D01*
X748526Y82476D01*
X750050D01*
X750812Y83238D01*
X753860D01*
X754622Y82476D01*
X756146D01*
X756908Y83238D01*
X759956D01*
X760718Y82476D01*
X762242D01*
X763004Y83238D01*
X766052D01*
X766814Y82476D01*
X768338D01*
X769100Y83238D01*
X772148D01*
X772910Y82476D01*
X774434D01*
X775196Y83238D01*
X778244D01*
X779006Y82476D01*
X780530D01*
X781292Y83238D01*
X784340D01*
X785102Y82476D01*
X786626D01*
X787388Y83238D01*
X903762D01*
X910000Y77000D01*
X916155D01*
X922155Y83000D01*
X926000D01*
X932000Y77000D01*
X939155D01*
X966155Y104000D01*
X1096000D01*
X1107750Y92250D01*
X1096631Y105524D02*
X1108381Y93774D01*
X1139337Y87611D02*
Y91109D01*
X1137303Y85577D02*
X1139337Y87611D01*
X1133497Y85577D02*
X1137303D01*
X1131463Y87611D02*
X1133497Y85577D01*
X1131463Y87611D02*
Y97781D01*
X1130322Y98923D02*
X1131463Y97781D01*
X1127778Y98923D02*
X1130322D01*
X1126637Y97781D02*
X1127778Y98923D01*
X1126637Y87611D02*
Y97781D01*
X1124603Y85577D02*
X1126637Y87611D01*
X1120797Y85577D02*
X1124603D01*
X1118763Y87611D02*
X1120797Y85577D01*
X1118763Y87611D02*
Y97781D01*
X1117622Y98923D02*
X1118763Y97781D01*
X1115078Y98923D02*
X1117622D01*
X1113937Y97781D02*
X1115078Y98923D01*
X1113937Y94284D02*
Y97781D01*
X1111903Y92250D02*
X1113937Y94284D01*
X1107750Y92250D02*
X1111903Y92250D01*
X1137813Y88243D02*
Y91740D01*
X1136672Y87101D02*
X1137813Y88243D01*
X1134128Y87101D02*
X1136672D01*
X1132987Y88243D02*
X1134128Y87101D01*
X1132987Y88243D02*
Y98413D01*
X1130953Y100447D02*
X1132987Y98413D01*
X1127147Y100447D02*
X1130953D01*
X1125113Y98413D02*
X1127147Y100447D01*
X1125113Y88243D02*
Y98413D01*
X1123972Y87101D02*
X1125113Y88243D01*
X1121428Y87101D02*
X1123972D01*
X1120287Y88243D02*
X1121428Y87101D01*
X1120287Y88243D02*
Y98413D01*
X1118253Y100447D02*
X1120287Y98413D01*
X1114447Y100447D02*
X1118253D01*
X1112413Y98413D02*
X1114447Y100447D01*
X1112413Y94915D02*
Y98413D01*
X1111272Y93774D02*
X1112413Y94915D01*
X1108381Y93774D02*
X1111272Y93774D01*
X1147204Y98976D02*
X1199774D01*
X1201988Y96762D01*
X1200405Y100500D02*
X1203512Y97393D01*
X1201988Y83369D02*
Y96762D01*
X1203512Y84000D02*
Y97393D01*
X1201988Y83369D02*
X1212488Y72869D01*
X1203512Y84000D02*
X1214012Y73500D01*
X1212488Y61738D02*
Y72869D01*
X1214012Y61738D02*
Y73500D01*
X1137813Y91740D02*
X1146573Y100500D01*
X1200405D01*
X1139337Y91109D02*
X1147204Y98976D01*
X556651Y228400D02*
X560388Y224662D01*
X562000D01*
X556651Y219400D02*
X560388Y223138D01*
X562000Y224662D02*
X563600Y226262D01*
X560388Y223138D02*
X562631D01*
X565124Y225631D01*
X556651Y192400D02*
X560388Y188662D01*
X565124Y225631D02*
Y241124D01*
X586000Y262000D01*
X563600Y229000D02*
Y230524D01*
X562838Y231286D02*
X563600Y230524D01*
X562838Y231286D02*
Y232810D01*
X563600Y233572D01*
Y236620D01*
X562838Y237382D02*
X563600Y236620D01*
X562838Y237382D02*
Y238906D01*
X563600Y239668D01*
Y241000D01*
Y226262D02*
Y229000D01*
Y241000D02*
Y241755D01*
X574767Y252922D02*
X575845Y254000D01*
X572612Y250767D02*
X574767Y252922D01*
X571534Y250767D02*
X572612D01*
X570457Y249690D02*
X571534Y250767D01*
X570457Y248612D02*
Y249690D01*
X568301Y246457D02*
X570457Y248612D01*
X567224Y246457D02*
X568301D01*
X566146Y245379D02*
X567224Y246457D01*
X566146Y244301D02*
Y245379D01*
X565000Y243155D02*
X566146Y244301D01*
X563600Y241755D02*
X565000Y243155D01*
X575845Y254000D02*
X585369Y263524D01*
X560388Y188662D02*
X563507D01*
X564584Y189739D01*
Y190817D01*
X565662Y191895D01*
X566740D01*
X568895Y194050D01*
Y195128D01*
X569972Y196205D01*
X571050D01*
X573205Y198361D01*
X573600Y198755D01*
Y200279D01*
X572838Y201041D02*
X573600Y200279D01*
X572838Y201041D02*
Y202565D01*
X573600Y203327D01*
Y206375D01*
X572838Y207137D02*
X573600Y206375D01*
X572838Y207137D02*
Y208661D01*
X573600Y209423D01*
Y210000D01*
Y237755D01*
X576595Y240750D01*
X593405D01*
X601631Y232524D01*
X624554D01*
Y232524D02*
Y232524D01*
X556651Y210400D02*
X560388Y206662D01*
X677078Y199000D02*
X679000D01*
X556651Y201400D02*
X560388Y205138D01*
X676000Y196000D02*
Y197922D01*
X570124Y239124D02*
X574976Y243976D01*
X568600Y239755D02*
X574345Y245500D01*
X574976Y243976D02*
X599179Y243976D01*
X601156D02*
X604583Y247402D01*
X606085D01*
X607239Y246249D01*
Y242596D02*
Y246249D01*
Y242596D02*
X609286Y240550D01*
X612050D01*
X614097Y242596D01*
Y246249D01*
X615251Y247402D01*
X616753D01*
X617907Y246249D01*
Y242596D02*
Y246249D01*
Y242596D02*
X619954Y240550D01*
X622718D01*
X574345Y245500D02*
X598500Y245500D01*
X600525D02*
X603952Y248926D01*
X606716D01*
X608763Y246880D01*
Y243227D02*
Y246880D01*
Y243227D02*
X609917Y242073D01*
X611419D01*
X612573Y243227D01*
Y246880D01*
X614620Y248926D01*
X617384D01*
X619431Y246880D01*
Y243227D02*
Y246880D01*
Y243227D02*
X620585Y242073D01*
X622087D01*
X629946Y243976D02*
X676000Y197922D01*
X630578Y245500D02*
X677078Y199000D01*
X598500Y245500D02*
X600525D01*
X599179Y243976D02*
X601156D01*
X622718Y240550D02*
X626145Y243976D01*
X629946D01*
X622087Y242073D02*
X625514Y245500D01*
X630578D01*
X560388Y205138D02*
X562888D01*
X570124Y212374D01*
Y239124D01*
X560388Y206662D02*
X562257D01*
X568600Y213005D01*
Y214529D01*
X567838Y215291D02*
X568600Y214529D01*
X567838Y215291D02*
Y216815D01*
X568600Y217577D01*
Y220625D01*
X567838Y221387D02*
X568600Y220625D01*
X567838Y221387D02*
Y222911D01*
X568600Y223673D01*
Y226721D01*
X567838Y227483D02*
X568600Y226721D01*
X567838Y227483D02*
Y229007D01*
X568600Y229769D01*
Y232817D01*
X567838Y233579D02*
X568600Y232817D01*
X567838Y233579D02*
Y235103D01*
X568600Y235865D01*
Y237750D01*
Y239755D01*
X635078Y260000D02*
X683078Y212000D01*
X605000Y260000D02*
X635078D01*
X601476Y263524D02*
X605000Y260000D01*
X585369Y263524D02*
X601476D01*
X586000Y262000D02*
X600845D01*
X604369Y258476D01*
X634446D01*
X682000Y210922D01*
X664078Y193000D02*
X666000D01*
X556651Y183400D02*
X560388Y187138D01*
X564138D01*
X575124Y198124D01*
Y237124D01*
X577226Y239226D01*
X592774D01*
X601000Y231000D01*
X623922D01*
X663000Y190000D02*
Y191922D01*
X623922Y231000D02*
X629168Y225755D01*
X633313D01*
X634375Y224692D01*
Y223060D02*
Y224692D01*
X632493Y221178D02*
X634375Y223060D01*
X632493Y218284D02*
Y221178D01*
Y218284D02*
X634448Y216329D01*
X637342D01*
X639225Y218211D01*
X640856D01*
X641919Y217149D01*
Y215517D02*
Y217149D01*
X640036Y213635D02*
X641919Y215517D01*
X640036Y210741D02*
Y213635D01*
Y210741D02*
X641992Y208785D01*
X644886D01*
X646768Y210668D01*
X648400D01*
X649462Y209606D01*
Y207974D02*
Y209606D01*
X647580Y206091D02*
X649462Y207974D01*
X647580Y203197D02*
Y206091D01*
Y203197D02*
X649535Y201242D01*
X653680Y201242D01*
X655549Y199373D01*
X624554Y232524D02*
X629799Y227278D01*
X633944D01*
X635899Y225324D01*
Y222429D02*
Y225324D01*
X634017Y220547D02*
X635899Y222429D01*
X634017Y218915D02*
Y220547D01*
Y218915D02*
X635079Y217853D01*
X636711D01*
X638593Y219735D01*
X641488D01*
X643443Y217780D01*
Y214886D02*
Y217780D01*
X641561Y213004D02*
X643443Y214886D01*
X641561Y211372D02*
Y213004D01*
Y211372D02*
X642623Y210310D01*
X644255D01*
X646137Y212192D01*
X649031D01*
X650986Y210237D01*
Y207342D02*
Y210237D01*
X649104Y205460D02*
X650986Y207342D01*
X649104Y203829D02*
Y205460D01*
Y203829D02*
X650166Y202766D01*
X654312Y202766D01*
X657073Y200004D01*
X655549Y199373D02*
X663000Y191922D01*
X657073Y200004D02*
X664078Y193000D01*
X176845Y43000D02*
X241155D01*
X177476Y44524D02*
X240524D01*
X250000Y54000D01*
X241155Y43000D02*
X250631Y52476D01*
X583524D01*
X235349Y53256D02*
X242617Y60524D01*
X235980Y51732D02*
X243248Y59000D01*
X589845D01*
X583524Y52476D02*
X591524Y44476D01*
X250000Y54000D02*
X584155D01*
X592155Y46000D01*
X590150Y210400D02*
X593889Y206662D01*
X658078Y180000D02*
X660000D01*
X590150Y201400D02*
X593889Y205138D01*
X657000Y177000D02*
Y178922D01*
X608726Y197369D02*
Y200381D01*
X620226Y185869D02*
Y189381D01*
X614595Y195500D02*
X627095Y208000D01*
X615226Y193976D02*
X627726Y206476D01*
X621750Y188750D02*
X634024Y201024D01*
Y204631D01*
X620226Y189381D02*
X632500Y201655D01*
X610250Y198000D02*
Y199750D01*
Y198000D02*
X612750Y195500D01*
X614595D01*
X608726Y197369D02*
X612119Y193976D01*
X615226D01*
X621750Y186500D02*
Y188750D01*
Y186500D02*
X624476Y183774D01*
X626619D01*
X620226Y185869D02*
X623845Y182250D01*
X627250D01*
X627726Y206476D02*
X630024D01*
X632500Y204000D01*
Y201655D02*
Y204000D01*
X627095Y208000D02*
X630655D01*
X634024Y204631D01*
X651750Y182500D02*
X653422D01*
X657000Y178922D01*
X651119Y184024D02*
X654054D01*
X658078Y180000D01*
X608726Y200381D02*
X622726Y214381D01*
Y216869D01*
X624250Y213750D02*
Y217500D01*
X632726Y174369D02*
X636369Y170726D01*
X639976D02*
X651750Y182500D01*
X627250Y182250D02*
X639250Y194250D01*
X641500D01*
X626619Y183774D02*
X638619Y195774D01*
X642131D01*
X645774Y192131D01*
X632726Y177881D02*
X644250Y189405D01*
Y191500D01*
X641500Y194250D02*
X644250Y191500D01*
X645774Y188774D02*
Y192131D01*
X634250Y175000D02*
Y177250D01*
X645774Y188774D01*
X632726Y174369D02*
Y177881D01*
X634250Y175000D02*
X637000Y172250D01*
X639345D01*
X651119Y184024D01*
X636369Y170726D02*
X639976D01*
X621000Y220750D02*
X624250Y217500D01*
X617500Y220750D02*
X621000D01*
X620369Y219226D02*
X622726Y216869D01*
X618131Y219226D02*
X620369D01*
X593889Y205138D02*
X604043D01*
X618131Y219226D01*
X615625Y218875D02*
X617500Y220750D01*
X602000Y206662D02*
X603412D01*
X610250Y199750D02*
X618750Y208250D01*
X63500Y125750D02*
X112250D01*
X58976Y123381D02*
X62869Y127274D01*
X60500Y118500D02*
Y122750D01*
X63500Y125750D01*
X58976Y119131D02*
Y123381D01*
X50512Y113512D02*
X52750Y115750D01*
X57750D01*
X60500Y118500D01*
X48988Y114143D02*
X52119Y117274D01*
X57119D01*
X58976Y119131D01*
X119000Y104000D02*
X138500D01*
X141726Y100774D01*
Y94274D02*
Y100774D01*
X119631Y105524D02*
X139131D01*
X143250Y101405D01*
Y94905D02*
Y101405D01*
X298343Y66762D02*
X601762D01*
X254855Y71000D02*
X258478Y74623D01*
X151369Y69476D02*
X255486D01*
X278290Y71673D02*
Y80734D01*
X276766Y71042D02*
Y80103D01*
X278290Y71673D02*
X279714Y70249D01*
X276766Y71042D02*
X279083Y68725D01*
X282862Y71589D02*
Y80734D01*
X281522Y70249D02*
X282862Y71589D01*
X279714Y70249D02*
X281522D01*
X284386Y70958D02*
Y80103D01*
X279083Y68725D02*
X282153D01*
X284386Y70958D01*
X272194D02*
Y80103D01*
X258478Y80734D02*
X260494Y82750D01*
X264082D01*
X266098Y80734D01*
X260002Y80103D02*
X261125Y81226D01*
X263451D01*
X264574Y80103D01*
X270670Y80734D02*
X272686Y82750D01*
X276274D01*
X278290Y80734D01*
X272194Y80103D02*
X273317Y81226D01*
X275643D01*
X276766Y80103D01*
X282862Y80734D02*
X284878Y82750D01*
X288466D01*
X290482Y80734D01*
X284386Y80103D02*
X285509Y81226D01*
X287835D01*
X288958Y80103D01*
X266098Y71402D02*
Y80734D01*
Y71402D02*
X267251Y70249D01*
X264574Y70771D02*
X266620Y68725D01*
X269961D01*
X272194Y70958D01*
X270670Y71589D02*
Y80734D01*
X267251Y70249D02*
X269330D01*
X270670Y71589D01*
X131922Y124000D02*
X134172Y126250D01*
X170905D01*
X179155Y118000D01*
X133000Y122922D02*
X134804Y124726D01*
X170274D01*
X178524Y116476D01*
X342845Y40000D02*
X555500D01*
X343476Y38476D02*
X554869D01*
X567369Y25976D01*
X574054D02*
X577078Y29000D01*
X555500Y40000D02*
X568000Y27500D01*
X573422D01*
X576000Y30078D01*
X567369Y25976D02*
X574054D01*
X499845Y32000D02*
X505369Y26476D01*
X350000Y32000D02*
X499845D01*
X349369Y33524D02*
X500476D01*
X506000Y28000D01*
X509184D01*
X513254Y32070D01*
X505369Y26476D02*
X509815D01*
X598000Y53000D02*
X623750D01*
X597369Y51476D02*
X623119D01*
X639619Y34976D01*
X623750Y53000D02*
X640250Y36500D01*
X645422D01*
X648000Y39078D01*
X639619Y34976D02*
X646054D01*
X593889Y206662D02*
X596750D01*
X599798D02*
X602000D01*
X603412D02*
X604500Y207750D01*
X606655Y209905D02*
X608811Y212061D01*
X610966Y214216D02*
X613121Y216371D01*
X615276Y218526D02*
X615625Y218875D01*
X618750Y208250D02*
X619595Y209095D01*
X621750Y211250D02*
X624250Y213750D01*
D76*
X809000Y133000D02*
X931000D01*
X800250Y141750D02*
X809000Y133000D01*
X769900Y232900D02*
X800250Y202550D01*
X615750Y159750D02*
X696750D01*
X769900Y232900D02*
Y256000D01*
X696750Y159750D02*
X769900Y232900D01*
X602000Y146000D02*
X615750Y159750D01*
X800250Y141750D02*
Y202550D01*
X583000Y146000D02*
X602000D01*
D78*
X725600Y114000D02*
X751600D01*
D81*
X600000Y162000D02*
Y198400D01*
D88*
X1254000Y23000D02*
D03*
X22000Y22000D02*
D03*
X687000Y249000D02*
D03*
D89*
X503651Y154000D02*
D03*
Y257900D02*
D03*
D90*
X558651Y151000D02*
D03*
Y260900D02*
D03*
D91*
X590150Y219400D02*
D03*
Y228400D02*
D03*
X582150Y232900D02*
D03*
Y214900D02*
D03*
Y196900D02*
D03*
Y178900D02*
D03*
X548651D02*
D03*
Y196900D02*
D03*
Y232900D02*
D03*
Y214900D02*
D03*
X556651Y228400D02*
D03*
Y219400D02*
D03*
Y210400D02*
D03*
Y201400D02*
D03*
Y192400D02*
D03*
Y183400D02*
D03*
X590150Y210400D02*
D03*
Y201400D02*
D03*
Y192400D02*
D03*
Y183400D02*
D03*
D92*
Y253400D02*
D03*
Y158500D02*
D03*
D93*
X769900Y256000D02*
D03*
D94*
X882000Y105000D02*
D03*
X925600Y117000D02*
D03*
X918000Y117000D02*
D03*
X817550Y124750D02*
D03*
X358250Y74750D02*
D03*
X362250D02*
D03*
X366250D02*
D03*
X370250D02*
D03*
X354250D02*
D03*
X350250D02*
D03*
X346250D02*
D03*
X342250D02*
D03*
X49000Y6000D02*
D03*
X738000Y237000D02*
D03*
X742000D02*
D03*
X746000D02*
D03*
X750000D02*
D03*
X716000D02*
D03*
X720000D02*
D03*
X724000D02*
D03*
X728000D02*
D03*
X738000Y233000D02*
D03*
X742000D02*
D03*
X746000D02*
D03*
X750000D02*
D03*
X728000D02*
D03*
X724000D02*
D03*
X720000D02*
D03*
X716000D02*
D03*
X417000Y80000D02*
D03*
X767501Y202501D02*
D03*
Y212501D02*
D03*
Y172501D02*
D03*
Y167501D02*
D03*
X792000Y17000D02*
D03*
X699000Y136000D02*
D03*
X707200Y149000D02*
D03*
X716000D02*
D03*
X711600D02*
D03*
X31000Y124000D02*
D03*
X40000Y133000D02*
D03*
X45000Y10000D02*
D03*
X51000Y128000D02*
D03*
X43000Y119000D02*
D03*
X1188000Y13000D02*
D03*
Y7000D02*
D03*
X1150000Y15000D02*
D03*
X1135000D02*
D03*
X31000Y111000D02*
D03*
X649600Y146000D02*
D03*
Y134000D02*
D03*
X657000Y177000D02*
D03*
X660000Y180000D02*
D03*
X663000Y190000D02*
D03*
X666000Y193000D02*
D03*
X676000Y196000D02*
D03*
X679000Y199000D02*
D03*
X682000Y209000D02*
D03*
X685000Y212000D02*
D03*
X663000Y183000D02*
D03*
X654000Y174000D02*
D03*
X669000Y196000D02*
D03*
X660000Y187000D02*
D03*
X682000Y202000D02*
D03*
X673000Y193000D02*
D03*
X679000Y206000D02*
D03*
X688000Y215000D02*
D03*
X1096000Y88000D02*
D03*
X1066000Y71000D02*
D03*
Y75000D02*
D03*
X1082000Y38000D02*
D03*
X1085000Y35000D02*
D03*
X728600Y44001D02*
D03*
Y48000D02*
D03*
X886000Y76000D02*
D03*
X876000D02*
D03*
X1066000Y67000D02*
D03*
X1087000Y97000D02*
D03*
X728600Y53500D02*
D03*
X649600Y138000D02*
D03*
Y142000D02*
D03*
X640500Y141500D02*
D03*
X301000Y79000D02*
D03*
X305000D02*
D03*
X297000D02*
D03*
X603000Y117000D02*
D03*
Y113000D02*
D03*
Y109000D02*
D03*
Y105000D02*
D03*
X346000Y120000D02*
D03*
X467600Y80000D02*
D03*
X596000Y94000D02*
D03*
Y98000D02*
D03*
Y102000D02*
D03*
Y106000D02*
D03*
X625000Y135000D02*
D03*
X764600Y132000D02*
D03*
X728600Y117000D02*
D03*
X332600Y120000D02*
D03*
X596000Y76000D02*
D03*
Y80000D02*
D03*
X62000Y24000D02*
D03*
X31000Y85000D02*
D03*
X27000Y81000D02*
D03*
X43000Y86000D02*
D03*
X121750Y76650D02*
D03*
X114501Y76500D02*
D03*
X37501Y88500D02*
D03*
X97001Y96500D02*
D03*
X37501D02*
D03*
Y77500D02*
D03*
X538000Y80000D02*
D03*
X546000D02*
D03*
X542000D02*
D03*
X600000Y162000D02*
D03*
X603000Y87000D02*
D03*
Y91000D02*
D03*
X457600Y80000D02*
D03*
X603000Y64000D02*
D03*
Y68000D02*
D03*
X552000Y29000D02*
D03*
X596000Y84000D02*
D03*
Y72000D02*
D03*
X627000Y35000D02*
D03*
X624000Y38000D02*
D03*
X555000Y26000D02*
D03*
X600000Y35000D02*
D03*
X579000Y29000D02*
D03*
X576000Y32000D02*
D03*
X603000D02*
D03*
X648000Y41000D02*
D03*
X651000Y38000D02*
D03*
X924000Y131000D02*
D03*
X928000D02*
D03*
X932000D02*
D03*
X924000Y135000D02*
D03*
X928000D02*
D03*
X932000D02*
D03*
X106000Y54000D02*
D03*
X103000Y57000D02*
D03*
X89501Y37000D02*
D03*
Y49000D02*
D03*
X100000Y60000D02*
D03*
X549000Y32000D02*
D03*
X558000Y23000D02*
D03*
X573000Y35000D02*
D03*
X582000Y26000D02*
D03*
X597000Y38000D02*
D03*
X606000Y29000D02*
D03*
X86501Y68500D02*
D03*
X630000Y32000D02*
D03*
X621000Y41000D02*
D03*
X654000Y35000D02*
D03*
X645000Y44000D02*
D03*
X603000Y60000D02*
D03*
X197000Y133650D02*
D03*
X193000D02*
D03*
X189000D02*
D03*
X185000D02*
D03*
X76000Y96500D02*
D03*
X327600Y120000D02*
D03*
X462600Y80000D02*
D03*
X86501Y96500D02*
D03*
X603000Y95000D02*
D03*
Y83000D02*
D03*
Y72000D02*
D03*
X486600Y132250D02*
D03*
X590000Y148000D02*
D03*
X586000D02*
D03*
X582000D02*
D03*
X590000Y144000D02*
D03*
X586000D02*
D03*
X582000D02*
D03*
X1173000Y13000D02*
D03*
X1177000Y13000D02*
D03*
X1181000Y7000D02*
D03*
X1177000D02*
D03*
X1173000D02*
D03*
X1198000Y33000D02*
D03*
X1210000D02*
D03*
X728600Y91500D02*
D03*
Y95500D02*
D03*
X728600Y86000D02*
D03*
X728600Y101000D02*
D03*
Y105000D02*
D03*
X847600D02*
D03*
X838600Y108000D02*
D03*
X866600Y111000D02*
D03*
X728600Y82000D02*
D03*
X728600Y72500D02*
D03*
Y76500D02*
D03*
X728600Y63000D02*
D03*
Y67000D02*
D03*
X728600Y57501D02*
D03*
X728600Y34501D02*
D03*
Y38501D02*
D03*
X728600Y25000D02*
D03*
Y29000D02*
D03*
Y16000D02*
D03*
Y20000D02*
D03*
X724600Y13250D02*
D03*
Y22750D02*
D03*
Y31750D02*
D03*
X724600Y41251D02*
D03*
X724600Y50750D02*
D03*
X724600Y60251D02*
D03*
X724600Y69750D02*
D03*
X724600Y79250D02*
D03*
X724600Y88750D02*
D03*
X724600Y107750D02*
D03*
X600000Y198400D02*
D03*
X670000Y96750D02*
D03*
X751600Y114000D02*
D03*
X725600D02*
D03*
X758600Y117000D02*
D03*
X767600Y120000D02*
D03*
Y141000D02*
D03*
X771000Y144600D02*
D03*
X690000Y108750D02*
D03*
X678976Y92750D02*
D03*
X675000Y82750D02*
D03*
X674750Y92750D02*
D03*
X671000Y82750D02*
D03*
X679000Y86750D02*
D03*
X664600Y116000D02*
D03*
X506600Y132000D02*
D03*
X514600D02*
D03*
X510600D02*
D03*
X660600Y116000D02*
D03*
X478600Y265000D02*
D03*
X488600D02*
D03*
X490600Y132250D02*
D03*
X482600D02*
D03*
X322600Y120000D02*
D03*
X1066000Y63000D02*
D03*
X678200Y133400D02*
D03*
X678976Y96800D02*
D03*
X686000Y96750D02*
D03*
X1088000Y32000D02*
D03*
X1079000Y41000D02*
D03*
X853600Y117000D02*
D03*
X866600Y120000D02*
D03*
X921600D02*
D03*
X800600Y123000D02*
D03*
X724600Y98250D02*
D03*
X457600Y20000D02*
D03*
X224000Y92000D02*
D03*
X216000D02*
D03*
X208000D02*
D03*
X200000D02*
D03*
X462600Y20000D02*
D03*
X467600Y20000D02*
D03*
X686000Y88750D02*
D03*
X675000Y102750D02*
D03*
X348500Y9250D02*
D03*
X344500D02*
D03*
X340500D02*
D03*
X825750Y124750D02*
D03*
X872600Y124000D02*
D03*
X864600D02*
D03*
X868600D02*
D03*
X674750Y96800D02*
D03*
X671000Y86750D02*
D03*
X1225750Y60500D02*
D03*
X1221750D02*
D03*
X1225750Y94500D02*
D03*
X1215250Y60500D02*
D03*
X1211250D02*
D03*
X195850Y123000D02*
D03*
X202350Y126750D02*
D03*
X213600Y122500D02*
D03*
X55000Y18000D02*
D03*
X58000Y15000D02*
D03*
X61000Y12000D02*
D03*
X56000Y8000D02*
D03*
X53000Y11000D02*
D03*
X50000Y14000D02*
D03*
X1181000Y13000D02*
D03*
X1253750Y71650D02*
D03*
Y83350D02*
D03*
X1187000Y63500D02*
D03*
X1176500D02*
D03*
X1169500Y71500D02*
D03*
X1162500D02*
D03*
X1218500Y63500D02*
D03*
X1229000D02*
D03*
X1246500Y71500D02*
D03*
Y83500D02*
D03*
X1239500D02*
D03*
X1229000Y91500D02*
D03*
X1176500D02*
D03*
X1169500D02*
D03*
X1175600Y75000D02*
D03*
X1179600D02*
D03*
X1183600D02*
D03*
X23251Y88350D02*
D03*
Y76650D02*
D03*
X121750Y88350D02*
D03*
X114501Y88500D02*
D03*
X107500D02*
D03*
X44500Y96500D02*
D03*
X703000Y136000D02*
D03*
X748000Y148000D02*
D03*
X752000D02*
D03*
X20500Y82500D02*
D03*
X124501D02*
D03*
X37501Y68500D02*
D03*
X44500D02*
D03*
X196000Y92000D02*
D03*
X204000D02*
D03*
X212000D02*
D03*
X220000D02*
D03*
X192000D02*
D03*
X403000Y5000D02*
D03*
X399000D02*
D03*
X395000D02*
D03*
X413000Y80000D02*
D03*
X409000D02*
D03*
X452600Y80000D02*
D03*
X472600D02*
D03*
X452600Y20000D02*
D03*
X472600D02*
D03*
X725000Y120000D02*
D03*
X720000D02*
D03*
X699000Y132000D02*
D03*
X782250Y74000D02*
D03*
X810250D02*
D03*
X802250D02*
D03*
X794250D02*
D03*
X786250D02*
D03*
X790250D02*
D03*
X798250D02*
D03*
X806250D02*
D03*
X814250D02*
D03*
X830250D02*
D03*
X822250D02*
D03*
X818250D02*
D03*
X826250D02*
D03*
X1004250Y56750D02*
D03*
X1032250D02*
D03*
X1024250D02*
D03*
X1016250D02*
D03*
X1008250D02*
D03*
X1012250D02*
D03*
X1020250D02*
D03*
X1028250D02*
D03*
X1036250D02*
D03*
X838000Y18000D02*
D03*
X834000D02*
D03*
X841000Y14000D02*
D03*
X820000Y18000D02*
D03*
X824000D02*
D03*
X863000Y44000D02*
D03*
X76000Y68500D02*
D03*
X55001D02*
D03*
X65500D02*
D03*
X104001Y76500D02*
D03*
X93751Y99500D02*
D03*
X109000Y51000D02*
D03*
X72750Y65500D02*
D03*
X68750D02*
D03*
X89501Y45000D02*
D03*
Y41000D02*
D03*
X127000Y127000D02*
D03*
X136000Y118000D02*
D03*
X51750Y65500D02*
D03*
X47750D02*
D03*
X55001Y96500D02*
D03*
X62250Y65500D02*
D03*
X58250D02*
D03*
X65500Y96500D02*
D03*
X72751Y99500D02*
D03*
X68751D02*
D03*
X165000Y95000D02*
D03*
X156000Y104000D02*
D03*
X83251Y99500D02*
D03*
X79251D02*
D03*
X89751D02*
D03*
X130000Y124000D02*
D03*
X133000Y121000D02*
D03*
X159000Y101000D02*
D03*
X162000Y98000D02*
D03*
X97001Y68500D02*
D03*
X192000Y96000D02*
D03*
X220000D02*
D03*
X212000D02*
D03*
X204000D02*
D03*
X196000D02*
D03*
X200000D02*
D03*
X208000D02*
D03*
X216000D02*
D03*
X224000D02*
D03*
X1036250Y60750D02*
D03*
X1028250D02*
D03*
X1020250D02*
D03*
X1012250D02*
D03*
X1008250D02*
D03*
X1016250D02*
D03*
X1024250D02*
D03*
X1032250D02*
D03*
X1004250D02*
D03*
X1193000Y26000D02*
D03*
X1155250Y90850D02*
D03*
X1208000Y63500D02*
D03*
X1204750Y60500D02*
D03*
X1200750D02*
D03*
X1197500Y63500D02*
D03*
X1256500Y77500D02*
D03*
X1236000Y71500D02*
D03*
X1187000Y91500D02*
D03*
X1197500D02*
D03*
X1218500D02*
D03*
X1208000D02*
D03*
X1221750Y94500D02*
D03*
X1090000Y94000D02*
D03*
X1093000Y91000D02*
D03*
X1230000Y53000D02*
D03*
X1118000Y17000D02*
D03*
X1115000Y20000D02*
D03*
X1112000Y23000D02*
D03*
X1181000Y26000D02*
D03*
X1109000D02*
D03*
X1189000D02*
D03*
X1185000D02*
D03*
X1206000Y33000D02*
D03*
X1202000D02*
D03*
X1155250Y71650D02*
D03*
X1251000Y95000D02*
D03*
X1241000Y75000D02*
D03*
X596400Y177400D02*
D03*
X778000Y142000D02*
D03*
X764000Y112000D02*
D03*
X871500Y80000D02*
D03*
X855000Y69000D02*
D03*
X295000Y43000D02*
D03*
X303000D02*
D03*
X299000D02*
D03*
X362000Y27250D02*
D03*
X358250Y23750D02*
D03*
X354750Y20250D02*
D03*
X382500Y23000D02*
D03*
X379000Y26500D02*
D03*
X372500Y27250D02*
D03*
X1256000Y98750D02*
D03*
X611250Y223250D02*
D03*
D95*
X663500Y100250D02*
D03*
Y96250D02*
D03*
D104*
X692150Y122000D02*
D03*
X675050D02*
D03*
Y63000D02*
D03*
X692150D02*
D03*
D105*
X691800Y88000D02*
D03*
X697400D02*
D03*
X685400Y82000D02*
D03*
X679800D02*
D03*
X685400Y102000D02*
D03*
X679800D02*
D03*
D106*
X670100Y106800D02*
D03*
X670100Y101200D02*
D03*
D107*
X665600Y79000D02*
D03*
Y87000D02*
D03*
X691600Y102000D02*
D03*
Y94000D02*
D03*
D108*
X676600Y109500D02*
D03*
X684600D02*
D03*
X676600Y74500D02*
D03*
X684600D02*
D03*
D109*
X676875Y94750D02*
D03*
M02*
